<?xml version="1.0" encoding="iso-8859-1"?>
<!-- Generator: Adobe Illustrator 16.0.0, SVG Export Plug-In . SVG Version: 6.00 Build 0)  -->
<!DOCTYPE svg PUBLIC "-//W3C//DTD SVG 1.1//EN" "http://www.w3.org/Graphics/SVG/1.1/DTD/svg11.dtd">
<svg version="1.1" xmlns="http://www.w3.org/2000/svg" xmlns:xlink="http://www.w3.org/1999/xlink" x="0px" y="0px" width="1000px"
	 height="1000px" viewBox="0 0 1000 1000" style="enable-background:new 0 0 1000 1000;" xml:space="preserve">
<g id="Glyph_x5F_COMMA">
	<path style="fill:#272525;" d="M137.322,619.847c-0.756-1.706-19.014-8.268-31.354-12.48c-12.32-4.185-34.104-8.811-35.594-9.281
		c-6.955-2.254-29.762,5.777-37.869,10.667c0,0-13,12.215-16.738,18.649c-3.688,6.404-8.922,29.105-9.887,42.652
		c-0.16,2.28,4.943,26.104,22.803,35.389c9.205,4.786,22.623,10.406,34.604,30.206c0,0,1.336,5.543,3.137,13.048
		c2.693,11.407,3.637,22.257,0.6,48.375c19.098-3.836,51.521-31.504,61.643-42.591c3.059-12.948,5.809-48.097,9.471-71.608
		C139.861,671.574,142.187,630.408,137.322,619.847z M80.703,690.559c16.188-21.157,44.828,29.478,28.666,50.581
		C104.714,747.286,78.037,694.039,80.703,690.559z M26.017,670.997l31.305-59.992l-14.145,79.166L26.017,670.997z"/>
</g>
<g id="Layer_1">
</g>
</svg>
