<?xml version="1.0" encoding="iso-8859-1"?>
<!-- Generator: Adobe Illustrator 16.0.0, SVG Export Plug-In . SVG Version: 6.00 Build 0)  -->
<!DOCTYPE svg PUBLIC "-//W3C//DTD SVG 1.1//EN" "http://www.w3.org/Graphics/SVG/1.1/DTD/svg11.dtd">
<svg version="1.1" xmlns="http://www.w3.org/2000/svg" xmlns:xlink="http://www.w3.org/1999/xlink" x="0px" y="0px" width="1000px"
	 height="1000px" viewBox="0 0 1000 1000" style="enable-background:new 0 0 1000 1000;" xml:space="preserve">
<g id="Glyph_x5F_L_x5F_CUR_x5F_BRACKET">
	<path style="fill:#272525;" d="M309.07,706.776c-16.715-4.397-79.48-34.185-91.275-40.595
		c-11.799-6.403-72.23-38.416-77.912-41.764l21.318-76.158l-62.719,9.731l77.52-62.506l25.631-91.484l-61.826-212.573
		c7.793-7.245,133.611-82.407,133.611-82.407c20.951-12.867,26.184-11.402,35.521-13.287c13.045-12.135,18.91-79.295,10.117-83.899
		c-8-4.185-26.568-9.232-29.525-9.441c-3.008-0.499-31.873,1.91-34.914,2.512c-5.49,1.099-24.246,6.563-26.1,7.689
		c-0.891,0.366-12.346,6.669-15.117,9.023c-2.723,2.379-11.43,11.401-12.316,12.867l-25.24,19.064
		c3.664,1.02,15.875,1.047,21.314,1.885c9.914,1.516,17.471,5.806,12.344,13.181c-7.111,10.25-13.807,15.481-30.754,17.158
		c-12.895,1.279-21.682-2.851-29.215-15.692l-11.244,11.848c0,0-36.641,29.632-92.896,35.671
		c-18.514,1.986-36.635,44.25-36.635,44.25L38.88,264.526l71.32,50.762l-60.992-15.56l14.777,50.424c0,0-11.611-0.081-18.727-0.081
		c-9.834-0.679-16.314-11.768-27.613-12.604c-8.189-0.603-11.301,10.669-11.77,19.458v93.727c1.307,9.21,3.818,11.983,9.674,13.396
		c9,2.17,20.43,2.17,27.697,1.046c7.248-1.125,20.531-4.052,20.531-4.052L8.572,663.778c0,0,10.436,23.014,27.457,30.364
		c12.27,5.285,36.877,7.218,48.408,13.941c51.313,29.916,110.5,64.386,114.891,66.664l55.215,23.42
		c7.531,1.412,19.271,2.559,29.34,0.939c10.068-1.618,18.127-3.073,26.389-12.933c6.49-7.741,14.439-62.143-0.838-79.295
		C309.33,706.856,309.199,706.803,309.07,706.776z M142.08,346.805c0.969-3.504,2.906-6.748,5.783-9.625
		c2.902-2.901,5.932-4.838,9.15-5.779c3.217-0.967,5.467-0.158,6.773,2.407c2.537,7.062,1.439,13.18-3.375,18.308
		c-4.836,5.152-9.807,6.119-14.957,2.902C142.24,353.082,141.111,350.363,142.08,346.805z M113.835,398.875
		c1.283-6.041,3.219-7.952,5.777-5.753c2.563,1.647,4.656,4.918,6.281,9.858c1.594,4.943,2.404,10.148,2.404,15.618
		c0,5.49-0.811,10.822-2.404,16.03c-1.625,5.203-3.719,8.916-6.281,11.089c-2.559,1.645-4.494-0.525-5.777-6.566
		c-1.281-6.016-1.932-12.737-1.932-20.139C111.904,411.614,112.554,404.891,113.835,398.875z M80.751,206.388
		c-1.936,4.054-5.332,6.356-10.225,6.877c-4.867,0.525-9.783-0.365-14.697-2.692c-4.945-2.354-8.74-5.571-11.43-9.676
		c-2.666-4.131-3.037-8.214-1.098-12.267c1.934-4.079,5.229-6.25,9.986-6.458c4.734-0.265,9.576,0.783,14.518,3.138
		c4.916,2.354,8.785,5.386,11.609,9.23C82.242,198.385,82.687,202.31,80.751,206.388z M153.826,709.834
		c-12.58,11.824-46.297-24.061-33.709-35.855C132.689,662.16,166.402,698.014,153.826,709.834z M194.125,693.935
		c-2.563,0.549-4.5-0.264-5.779-2.458c-1.281-2.198-1.936-4.522-1.936-6.983c0-2.484,0.654-4.655,1.936-6.592
		c1.279-1.909,3.217-2.303,5.779-1.229c5.809,0.579,8.684,3.009,8.684,7.401C202.808,688.466,199.933,691.763,194.125,693.935z"/>
</g>
<g id="Layer_1">
</g>
</svg>
