<?xml version="1.0" encoding="iso-8859-1"?>
<!-- Generator: Adobe Illustrator 16.0.0, SVG Export Plug-In . SVG Version: 6.00 Build 0)  -->
<!DOCTYPE svg PUBLIC "-//W3C//DTD SVG 1.1//EN" "http://www.w3.org/Graphics/SVG/1.1/DTD/svg11.dtd">
<svg version="1.1" xmlns="http://www.w3.org/2000/svg" xmlns:xlink="http://www.w3.org/1999/xlink" x="0px" y="0px" width="1000px"
	 height="1000px" viewBox="0 0 1000 1000" style="enable-background:new 0 0 1000 1000;" xml:space="preserve">
<g id="Glyph_x5F_PERCENT">
	<path style="fill:#272525;" d="M258.207,205.028c-2.59-3.897-7.063-10.934-13.338-21.131
		c-6.303-10.201-51.967-81.546-54.527-85.939c-0.68-1.464-6.645-13.599-8.268-17.47c-1.619-3.897-7.584-16.765-8.236-18.229
		c-1.883-4.211-5.703-14.435-9.338-20.478c-2.953-4.917-12.633-15.352-16.998-16.972l-20.189,25.813
		c-2.592,3.398-26.729,35.932-33.373,46.133c-1.803,2.772-4.316,6.774-7.113,11.326l42.027,1.333L73.357,130.02
		c-3.689,6.094-7.168,11.847-9.703,16.084c-8.525,14.176-14.643,33.111-24.871,47.442c-7.979,11.194-16.66,11.482-16.66,11.482
		S120.8,355.382,124.88,362.312c-0.34,7.089-3.793,12.293-2.068,15.563c-1.359,2.248,37.479,20.607,41.584,15.402
		c3.531-4.497,3.711-10.095,4.367-12.002c0-1.464,23.982-43.363,29.814-52.806c5.807-9.463,42.082-69.067,45.795-75.371
		c3.713-6.303,13.496-24.295,13.834-24.768c0-0.993,0.941-10.696,0.941-11.663C259.148,215.698,258.207,205.5,258.207,205.028z
		 M150.824,362.993c-19.881,0-19.881-41.269,0-41.269C170.648,321.724,170.648,362.993,150.824,362.993z M196.355,203.382
		c-0.523,5.203-4.891,14.748-11.82,32.69c-2.748,7.035-14.359,29.474-18.885,36.667c-4.26,6.72-18.725,30.599-26.125,31.67
		c-4.656,0.654-4.84-0.968-8.002-4.368c-2.643-2.825-14.412-23.799-17.865-29.032l-24.896-51.076
		c-0.209-0.339,4.184-8.942,5.805-12.161c1.621-3.19,12.973-20.242,14.412-22.388c0.604-0.913,5.961-8.97,7.611-11.428
		c1.621-2.458,10.146-13.363,12.604-16.737c2.432-3.401,26.232-33.424,28.244-31.019c6.564,7.715,15.172,22.049,15.172,22.049
		s18.357,35.96,21.68,40.825C196.513,192.32,196.746,199.38,196.355,203.382z M180.113,319.474
		c-9.57-5.778,6.67-32.612,16.217-26.834C205.9,298.422,189.662,325.255,180.113,319.474z M525.334,542.088
		c-2.43-5.83-5.439-6.12-6.484-7.19c-0.785,0-23.407-39.492-28.506-49.064c-5.127-9.543-37.32-69.254-40.75-75.373
		c-3.4-6.094-13.098-22.202-13.361-22.753c-0.521,0-5.777-1.568-6.303-1.568s-6.043,1.568-6.305,1.568
		c-2.09,4.264-5.883,11.586-11.402,21.968c-5.492,10.358-44.039,85.497-46.418,89.709c-0.787,1.095-7.352,10.901-9.443,13.596
		c-2.094,2.669-9.049,12.5-9.834,13.55c-2.275,3.085-7.795,9.388-11.09,15.4c-2.643,4.813-8.264,20.741-9.154,27.96l13.939,33.215
		c0.732,1.726,8.084,18.251,8.084,18.251l31.145,0.134v14.228h-24.686c0,0,8.211,18.018,10.383,22.31
		c5.518,10.904,19.691,37.08,26.65,49.846c7.664,14.046,17.889,24.085,25.629,40.93c6.041,13.128,6.197,27.406,6.197,27.406
		s81.231-162.408,84.975-169.104c3.84,0.578,6.639,6.277,8.416,3.426C518.223,612.729,528.156,548.836,525.334,542.088z
		 M398.414,685.695c6.252-3.818,27.67,31.15,21.416,34.967C413.609,724.48,392.187,689.513,398.414,685.695z M448.601,431.385
		c4.602,10.042,5.725,22.124-1.176,26.177c-6.934,4.08-15.064-4.129-19.639-14.329c-4.477-9.991-5.52-21.891,1.277-25.923
		C435.998,413.259,444.027,421.315,448.601,431.385z M460.21,540.025c3.637,7.007,16.529,30.807,17.107,42.992
		c0.367,7.663-0.525,7.926-2.352,13.182c-1.52,4.341-12.844,23.695-15.699,29.37l-27.586,40.953
		c-0.156,0.343-4.816-6.851-6.568-9.541c-1.723-2.667-10.93-21.344-12.08-23.696c-0.494-0.995-4.865-9.834-6.172-12.524
		c-1.332-2.668-7.217-16.713-9.049-20.743c-1.83-4.001-18.045-43.153-16.764-46.497c4.184-10.775,11.926-24.952,11.926-24.952
		s19.432-30.232,22.045-35.672c1.754-3.663,5.57-4.027,7.717-3.4c2.824,0.862,7.975,8.054,17.68,19.458
		C444.208,513.453,456.345,532.545,460.21,540.025z M485.947,498.073c1.855,3.322,1.936,10.75,1.285,13.105
		c-0.658,2.25-5.023,4.938-7.326,4.419c-4.758-1.021-8.762-8.318-10.537-15.353c-1.881-7.454-1.203-14.567,3.816-13.491
		C478.13,487.851,481.423,490.042,485.947,498.073z M537.055,74.265c0.311-5.755-0.529-7.35-6.701-13.184
		c-11.088-10.458-42.026-31.671-50.215-35.985c-9.281-4.864-36.824-12.346-51.469-8.997
		c-22.594,30.546-50.027,135.108-60.254,150.222c-8.84,13.052-40.303,68.785-79.215,138.691l35.148-6.879l-46.633,27.488
		C204.935,456.593,112.482,624.967,90.41,661.816c-10.066,16.793-37.086,29.632-42.943,33.712
		c-15.85,11.062-28.35,18.205-37.66,34.889c-5.283,9.468-4.602,14.176-1.674,19.799c4.68,8.918,11.086,14.695,20.504,21.809
		c11.008,8.32,23.326,13.366,33.264,14.858c13.813,2.095,26.129,2.512,37.664-1.179c7.111-5.518,28.922-31.357,31.592-45.271
		c2.512-13.18,5.23-16.868,16.449-38.159c60.754-115.463,227.09-435.524,246.963-470.938l75.662-83.4l-2.984-50.396l19.594,32.09
		L537.055,74.265z M47.751,766.72c-14.695,0-14.695-31.358,0-31.358C62.453,735.361,62.453,766.72,47.751,766.72z M131.181,704.919
		c-8.76,14.619-15.09,20.45-22.699,14.172c-5.885-4.835-3.453-15.873,0.313-22.202c11.9-20.056,26.572-36.169,33.031-33.865
		C147.552,665.088,139.734,690.64,131.181,704.919z M238.566,460.963c-12.266,0-12.266-31.358,0-31.358
		S250.832,460.963,238.566,460.963z"/>
</g>
<g id="Layer_1">
</g>
</svg>
