<?xml version="1.0" encoding="iso-8859-1"?>
<!-- Generator: Adobe Illustrator 16.0.0, SVG Export Plug-In . SVG Version: 6.00 Build 0)  -->
<!DOCTYPE svg PUBLIC "-//W3C//DTD SVG 1.1//EN" "http://www.w3.org/Graphics/SVG/1.1/DTD/svg11.dtd">
<svg version="1.1" xmlns="http://www.w3.org/2000/svg" xmlns:xlink="http://www.w3.org/1999/xlink" x="0px" y="0px" width="1000px"
	 height="1000px" viewBox="0 0 1000 1000" style="enable-background:new 0 0 1000 1000;" xml:space="preserve">
<g id="Glyph_x5F_R_x5F_CUR_x5F_BRACKET">
	<path style="fill:#272525;" d="M284.226,463.003c8.105,3.297,25.316,5.259,30.57,0.993c6.875-5.597,7.088-10.202,8.893-17.574
		c0-9.154-0.105-70.3-0.105-70.3s0.656-17.47-8.531-22.048c-12.809-6.434-45.814,15.141-50.285,14.567
		c-4.447-0.549-0.996-18.099-0.996-18.099l25.318-94.779l-45.168-0.157l59.652-54.138l16.979-63.577
		c0,0-10.438-22.989-27.461-30.338c-12.266-5.31-36.906-7.217-48.438-13.939C193.343,63.672,134.16,29.228,129.767,26.953
		L74.554,3.519c-7.533-1.412-19.248-2.564-29.32-0.939C35.166,4.199,27.087,5.664,18.853,15.496
		c-6.492,7.741-14.443,62.141,0.803,79.325c0.137,0.025,0.268,0.049,0.396,0.103c16.711,4.394,99.693,44.564,111.49,50.974
		c11.797,6.404,52.018,28.007,57.693,31.357l-4.213,15.428l-29.471,108.012l50.738,12.792l-6.727,24.687l-55.281,3.819
		l-16.822,61.591l77.965,192.353c-7.793,7.245-75.164,51.499-77.385,52.728l-72.348,43.985
		c-20.941,12.871-26.174,11.409-35.537,13.288c-13.023,12.134-18.881,79.293-10.094,83.9c7.979,4.182,11.977,5.649,19.795,7.494
		c0.549,0.13,6.754,1.75,9.703,1.96c3.039,0.494,12.947,0.94,18.441,0.21c1.908-0.263,13.467-2.119,16.473-2.722
		c5.496-1.113,24.248-6.577,26.104-7.675c0.914-0.368,12.369-6.669,15.115-9.021c2.719-2.383,11.428-11.433,12.348-12.87
		l62.789-47.441c0,0,35.201-31.698,88.58-50.451c7.744-2.717,8.58-10.037,17.785-17.784c8.916-7.477,23.146-11.713,23.146-11.713
		l-11.221-37.4c0,0-2.98-11.796-11.926-22.099c-7.213-8.368-10.984-5.595-16.447-5.595c-2.801-15.59-13.813-112.777-13.813-112.777
		S275.439,459.447,284.226,463.003z M292.804,383.734c2.877,0.965,5.67,3.686,8.391,8.104c2.697,4.422,4.707,9.313,5.99,14.619
		c1.283,5.337,1.754,10.726,1.412,16.166c-0.338,5.437-1.518,9.519-3.508,12.239c-2.113,2.199-4.492,0.522-7.16-5.049
		c-2.641-5.543-4.838-11.923-6.566-19.117c-1.75-7.191-2.691-13.887-2.824-20.033C288.351,384.492,289.794,382.188,292.804,383.734z
		 M131.068,75.1c-9.99,10.355-50.891-29.106-40.898-39.463C100.16,25.277,141.064,64.744,131.068,75.1z M209.164,433.292
		c0,6.224-1.625,12.058-4.865,17.576c-3.215,5.52-8.055,7.556-14.516,6.169c-14.541-5.49-21.809-13.728-21.809-24.766
		c0-11.036,7.268-17.154,21.809-18.567c6.461-2.746,11.301-1.725,14.516,3.086C207.539,421.63,209.164,427.095,209.164,433.292z
		 M76.023,714.882c-0.973,3.533-2.908,6.748-5.785,9.653c-2.9,2.879-5.938,4.812-9.154,5.779c-3.213,0.967-5.463,0.131-6.771-2.407
		c-2.537-7.089-1.438-13.183,3.373-18.335c4.838-5.148,9.811-6.118,14.961-2.875C75.865,708.608,76.986,711.354,76.023,714.882z
		 M129.552,700.837c-4.025,6.146-7.895,9.863-11.639,11.222c-3.74,1.441-6.746,1.358-9.047-0.156
		c-2.275-1.493-3.479-4.159-3.533-8.083c-0.074-3.869,1.883-8.838,5.914-14.985c3.504-5.36,7.037-8.761,10.645-10.278
		c3.584-1.464,6.537-1.464,8.811,0.026c2.301,1.491,3.563,4.265,3.77,8.21C134.681,690.823,133.056,695.476,129.552,700.837z
		 M217.216,146.104c-2.244,4.185-5.621,6.278-10.119,6.278c-4.496,0-8.029-2.093-10.613-6.278
		c-2.568-4.184-3.846-8.996-3.846-14.461c0-5.465,1.277-10.279,3.846-14.464c2.584-4.185,6.117-6.25,10.613-6.25
		c4.498,0,7.875,2.065,10.119,6.25c2.252,4.185,3.377,8.999,3.377,14.464C220.593,137.109,219.468,141.92,217.216,146.104z
		 M248.027,497.497c-0.967,3.219-2.875,6.28-5.779,9.183c-2.904,2.875-5.938,4.967-9.154,6.253c-3.219,1.278-5.463,0.313-6.748-2.88
		c-3.215-5.805-2.402-11.427,2.408-16.871c4.814-5.49,10.457-6.617,16.869-3.398C248.183,491.72,248.994,494.281,248.027,497.497z"
		/>
</g>
<g id="Layer_1">
</g>
</svg>
