<?xml version="1.0" encoding="iso-8859-1"?>
<!-- Generator: Adobe Illustrator 16.0.0, SVG Export Plug-In . SVG Version: 6.00 Build 0)  -->
<!DOCTYPE svg PUBLIC "-//W3C//DTD SVG 1.1//EN" "http://www.w3.org/Graphics/SVG/1.1/DTD/svg11.dtd">
<svg version="1.1" xmlns="http://www.w3.org/2000/svg" xmlns:xlink="http://www.w3.org/1999/xlink" x="0px" y="0px" width="1000px"
	 height="1000px" viewBox="0 0 1000 1000" style="enable-background:new 0 0 1000 1000;" xml:space="preserve">
<g id="Glyph_x5F_CARET">
	<path style="fill:#272525;" d="M526.273,386.608c-4.813-7.244-181.821-271.049-186.418-277.847
		c-1.807-2.67-4.346-19.224-4.346-19.224L282.55,52.425l50.561,19.457c0,0-3.848-22.306-7.328-27.12
		c-2.666-3.66-38.5-25.916-49.898-28.269c-11.375-2.383-62.064,3.138-67.555,6.666c-5.518,3.532-14.936,38.893-16.113,57.357
		l18.205,28.246c-4.209,5.438-12.289,14.487-21.342,25.943c-9.049,11.48-50.764,68.938-62.818,84.944
		c-12.059,15.979-55.051,74.196-63.811,85.966c-8.74,11.768-37.846,52.174-42.082,57.904c-4.213,5.752-14.594,22.49-14.492,23.091
		c1.729,9.338,12.711,31.331,18.1,38.029c5.209,6.434,14.258,14.305,19.93,18.096c0,0,12.475,1.438,18.098,0
		c7.063-1.831,29.449-13.808,36.197-18.096c6.744-4.315,17.205-14.489,19.01-19.931c1.125-3.452,1.443-17.392,1.443-17.392
		l-66.879-0.023v-17.078l66.352,0.181c0,0-2.35-36.197-0.916-38.995c3.508-6.877,45.928-70.22,53.85-83.272
		c13.316-21.89,29.791-41.922,42.76-52.907c6.465-5.492,25.135-12.974,42.422-20.844l65.514,82.825
		c14.254,16.19,51.838,38.342,71.584,66.456c29.602,42.16,20.137,61.749,20.711,62.95c0,1.204-1.201,17.498,0,18.098
		c1.232,1.806,13,16.583,17.209,20.82c4.213,4.209,19.012,15.979,20.816,17.207c0.607,0,6.932,1.805,8.135,1.805
		c1.23,0,8.762-1.805,9.965-1.805c1.203-0.627,35.907-17.494,37.11-18.096c1.805-1.229,5.125-4.239,9.938-9.051
		c4.842-4.837,9.963-13.287,9.963-14.488C527.186,401.098,526.273,387.812,526.273,386.608z M126.812,275.146
		c-1.203,1.802-3.324,2.092-6.359,0.886c-6.012-0.599-9.02-3.318-9.02-8.133c0-4.837,3.008-8.157,9.02-9.962
		c3.035-0.601,5.156,0.313,6.359,2.718c1.201,2.408,1.805,4.972,1.805,7.69C128.617,271.064,128.013,273.314,126.812,275.146z
		 M234.64,103.477c-4.914,0.393-12.293-3.297-17.08-17.862c-2.979-9.05-0.992-13.756,4.422-17.445
		c6.875-4.653,25.027,9.207,27.594,14.305C252.107,87.573,247.009,102.457,234.64,103.477z M320.216,212.064
		c-13.68-15.091-32.982-51.626-21.264-46.815c3.762,1.518,8.656,6.122,14.277,12.738c2.641,3.191,26.701,36.299,29.813,47.625
		C345.607,235.001,335.722,229.245,320.216,212.064z M480.792,367.388c-2.094,3.921-5.572,5.884-10.408,5.884
		c-4.211,0-7.531-1.963-9.941-5.884c-2.402-3.924-3.609-8.135-3.609-12.658c0-4.526,1.207-8.762,3.609-12.659
		c2.41-3.947,5.73-5.912,9.941-5.912c4.836,0,8.314,1.965,10.408,5.912c2.145,3.897,3.166,8.133,3.166,12.659
		C483.958,359.253,482.937,363.463,480.792,367.388z"/>
</g>
<g id="Layer_1">
</g>
</svg>
