<?xml version="1.0" encoding="iso-8859-1"?>
<!-- Generator: Adobe Illustrator 16.0.0, SVG Export Plug-In . SVG Version: 6.00 Build 0)  -->
<!DOCTYPE svg PUBLIC "-//W3C//DTD SVG 1.1//EN" "http://www.w3.org/Graphics/SVG/1.1/DTD/svg11.dtd">
<svg version="1.1" xmlns="http://www.w3.org/2000/svg" xmlns:xlink="http://www.w3.org/1999/xlink" x="0px" y="0px" width="1000px"
	 height="1000px" viewBox="0 0 1000 1000" style="enable-background:new 0 0 1000 1000;" xml:space="preserve">
<g id="Glyph_x5F_QUESTION">
	<path style="fill:#272525;" d="M344.795,741.97c-0.85-4.591-7.088-21.553-7.402-22.953c-3.807-5.964-8.568-13.365-14.165-22.078
		c-40.177-16.923-105.518-13.928-115.209,12.936c-2.825,7.862-2.694,17.643-0.602,27.584c1.674,8.044,8.436,29.166,15.825,43.211
		c5.023,3.544,7.468,4.824,15.55,8.095c8.096,3.258,11.942,3.95,15.826,4.866c2.026,0.078,20.036,3.661,25.463,4.434
		c5.429,0.812,21.763,1.216,22.678,1.647c1.047-0.366,19.461-4.395,19.461-4.395l16.152-7.808c0,0,2.302-3.768,3.714-10.292
		c1.412-6.502,2.342-11.313,2.76-14.491C344.664,760.541,345.697,746.573,344.795,741.97z M317.227,777.149
		c-5.73-2.563-23.255-6.067-20.927-15.066c2.354-9.101,27.426-15.38,33.271-12.765C341.121,754.471,328.851,782.303,317.227,777.149
		z M552.102,203.592c-2.653-6.919-29.647-30.774-39.535-39.55c-6.266-5.559-45.644-31.298-58.33-39.523
		c-12.973-8.41-43.055-27.191-58.344-39.537c-18.454-14.91-90.935-76.301-97.382-80.028c-6.448-3.727-33.024-3.937-44.846,2.406
		c-3.728,2.001-34.214,19.605-43.382,25.072c-12.883,7.677-51.7,34.972-62.201,43.381c-10.869,8.697-59.73,46.324-74.247,56.42
		c-11.117,7.73-39.786,24.836-48.208,31.808c-8.319,6.892-13.759,13.17-19.291,20.259c-2.027,2.602,11.404,26.248,15.576,32.67
		c4.198,6.434,16.688,22.796,23.96,27.111c9.089,5.389,28.628,3.152,38.567,0c5.153-2.563,16.075-8.108,26.407-15.394
		c8.095-5.702,56.629-38.817,56.629-38.817l-57.545-30.8l78.825,16.519c0,0,77.399-48.639,87.403-53.204
		c11.928-5.44,24.693-9.417,33.273-10.882c5.518-0.941,16.949,0,26.366,3.767c7.494,2.996,42.269,25.164,50.902,30.342
		c8.371,5.022,45.618,29.506,47.709,35.784c1.713,5.126-73.383,62.319-107.139,82.029c-34.881,20.363-138.672,60.265-162.88,80.694
		c-4.787,28.433,7.964,65.851,15.288,70.873c9.208,0.628,17.578,2.72,21.764,7.743c4.721,48.247,10.11,107.047,12.528,138.123
		c6.37,9.966,12.373,18.349,20.809,25.45c7.271,6.121,12.555,10.044,20.39,13.536c15.314-0.052,30.668-2.053,46.077-5.755
		c11.627-3.021,18.322-5.27,24.351-8.827c4.081-2.406,7.613-8.96,9.496-13.497c0,0,0-21.815,0-28.773
		c-4.187-5.846-17.566-10.881-23.15-15.616c-5.585-4.734-19.539-20.924-21.083-30.407V409.5
		c13.603-17.8,117.185-77.02,171.591-110.501c31.742-19.526,84.905-66.334,89.652-75.163
		C553.698,220.868,554.862,210.771,552.102,203.592z M239.095,85.413c-13.498,6.33-35.915,7.874-50.052,3.087
		c-13.824-4.644,11.038-25.777,17.603-28.354c14.713-5.859,34.868-8.174,49.999-3.1C269.462,61.375,245.059,82.641,239.095,85.413z
		 M316.663,84.302c-6.042-3.087-18.493-17.29-17.864-26.393c0.601-9.103,13.378-10.384,21.487-6.251
		c8.083,4.133,18.493,17.264,17.891,26.393C337.549,87.127,322.691,87.375,316.663,84.302z M287.498,531.378
		c-8.448,3.872-32.998-4.46-33.337-4.563c-13.117-4.436-22.508-12.988-20.14-20.26c2.209-6.697,15.458-9.795,28.55-5.401
		C270.889,503.953,295.815,527.561,287.498,531.378z M239.656,416.326l19.541-54.695l95.421-33.48L239.656,416.326z
		 M479.399,262.798c-19.945-8.135-2.511-50.862,17.434-42.729C516.791,228.218,499.357,270.933,479.399,262.798z"/>
</g>
<g id="Layer_1">
</g>
</svg>
