<?xml version="1.0" encoding="iso-8859-1"?>
<!-- Generator: Adobe Illustrator 16.0.0, SVG Export Plug-In . SVG Version: 6.00 Build 0)  -->
<!DOCTYPE svg PUBLIC "-//W3C//DTD SVG 1.1//EN" "http://www.w3.org/Graphics/SVG/1.1/DTD/svg11.dtd">
<svg version="1.1" xmlns="http://www.w3.org/2000/svg" xmlns:xlink="http://www.w3.org/1999/xlink" x="0px" y="0px" width="1000px"
	 height="1000px" viewBox="0 0 1000 1000" style="enable-background:new 0 0 1000 1000;" xml:space="preserve">
<g id="Glyph_x5F_DOUBLE_x5F_QUOTE">
	<path style="fill:#272525;" d="M7.06,41.521c3.377,12.422,13.654,28.454,21.555,44.066c9.178,18.309,17.26,50.108,21.443,65.015
		c4.188,14.857,5.258,24.323,5.781,28.064c0.498,3.661,1.041,12.735,11.109,16.293c7.85,2.746,27.543,10.016,33.768,9.91
		c6.199-0.076,18.645-8.837,24.508-16.16c5.854-7.323,9.412-20.19,9.623-21.969c-7.953,2.093-20.475,6.564-20.266,4.63
		c1.955-17.13,3.398-34.129,5.064-51.026c2.596-26.571,3.305-36.144,6.779-54.502c0.859-4.55,10.193-6.957,10.121-13.444
		c-0.133-9.257-8.445-16.841-16.008-24.817c-7.527-7.951-24.451-16.398-25.393-17.316c-4.26-4.419-21.939-3.113-31.043-1.489
		C55,10.397,21.052,16.414,14.492,22.192C7.949,27.974,3.689,29.095,7.06,41.521z M87.193,106.902
		c0.658-14.227,1.412-34.915,5.104-32.246c2.826,2.089,6.59,37.163,6.852,47.285c0.236,9.571,2.537,27.381-10.727,21.313
		C77.259,138.102,86.566,120.529,87.193,106.902z M343.548,163.13c-8.629-14.174-42.369-85.336-56.938-129.639
		C279.994,13.403,266.58,15,256.669,13.248c-11.695-2.04-30.969,1.333-34.861,6.772c-3.822,5.363-8.578,51.132-4.395,69.306
		c10.303,8.267,15.43,11.9,25.467,20.949c4.033,9.521,9.133,23.487,12.791,33.295c-8.889-5.022-19.535-10.436-31.248-16.923
		c1.072,17.811,7.555,45.011,10.717,57.771c1.805,7.349,7.299,9.31,16.977,16.818c7.217,5.649,60.674,0.234,73.152-3.298
		C341.271,193.467,347.421,169.433,343.548,163.13z M286.195,89.223c-10.354,4.287-33.736-49.768-23.379-54.085
		C273.142,30.848,296.525,84.908,286.195,89.223z"/>
</g>
<g id="Layer_1">
</g>
</svg>
