<?xml version="1.0" encoding="iso-8859-1"?>
<!-- Generator: Adobe Illustrator 16.0.0, SVG Export Plug-In . SVG Version: 6.00 Build 0)  -->
<!DOCTYPE svg PUBLIC "-//W3C//DTD SVG 1.1//EN" "http://www.w3.org/Graphics/SVG/1.1/DTD/svg11.dtd">
<svg version="1.1" xmlns="http://www.w3.org/2000/svg" xmlns:xlink="http://www.w3.org/1999/xlink" x="0px" y="0px" width="1000px"
	 height="1000px" viewBox="0 0 1000 1000" style="enable-background:new 0 0 1000 1000;" xml:space="preserve">
<g id="Glyph_x5F_PLUS">
	<path style="fill:#272525;" d="M337.027,396.887c-9.203-0.339-16.418-1.438-21.811-3.323c-5.307-1.855-7.977-4.208-8.057-7.059
		c-0.053-2.878,4.418-5.57,13.469-8.108c9.154-2.512,17.969-3.531,26.572-3.007c8.58,0.495,15.539,1.7,20.873,3.531
		c5.307,1.854,8.289,4.157,8.996,6.877c0.574,2.719-3.584,5.31-12.686,7.873C355.285,396.155,346.16,397.254,337.027,396.887z
		 M206.628,261.939c-3.033-0.733-5.805-2.538-8.367-5.468c-2.533-2.929-3.871-6.746-4.002-11.482c-0.158-4.732,0.99-7.818,3.4-9.336
		c2.404-1.567,5.123-1.909,8.158-1.227c3.035,0.705,5.809,2.379,8.373,5.02c2.508,2.589,3.842,6.302,4.002,10.985
		c0.123,4.758-1,8.028-3.404,9.831C212.41,262.067,209.689,262.619,206.628,261.939z M460.886,375.572
		c-14.221-3.922-38.285-6.957-49.924-8.107c-8.369-0.835-44.904-4.733-60.545-5.307c-4.258-0.159-57.742-3.113-70.563-5.023
		c0-34.26,0-65.122,0-65.122s0.342-42.759-7.738-51.601c-9.861-10.748-30.391-20.634-55.943-25.863
		c-12.813-2.617-31.172-1.65-31.172-1.021c0,0-8.344,0.681-13.969,6.278c7.85,12.213,8.477,75.528,8.477,86.406
		c0,2.983,0,22.049,0,48.357c-15.252-0.602-64.523,1.883-65.854,1.99c-3.32-0.158-26.568,0.52-45.82,4.969
		c-17.313,2.507-37.561,12.108-46.607,18.986c-5.885,4.471-15.244,33.505-15.35,40.512c-0.104,7.006,3.582,23.615,8.395,26.781
		c4.764,3.137,25.971,9.125,37.637,11.454c12.004,2.379,37.449,3.033,37.449,3.033l34.26-35.124l-1.41,35.672
		c0,0,42.133-0.418,57.301-0.682c0,44.93,0,82.021,0,82.021c0,2.272,1.387,6.616,4.156,13.076
		c2.773,6.457,6.305,13.284,10.566,20.526c4.287,7.223,8.684,14.255,13.209,21.081s8.289,11.771,11.324,14.803
		c2.746,1.7,16.611,6.827,19.455,6.406c11.461-1.727,36.355-12.369,41.635-30.334c0,0,8.133-14.855,6.49-31.987
		c-2.934-30.678-6.49-30.441-6.49-58.371c0-3.458,0-18.44,0-38.895c14.285-1.256,43.967-3.818,58.012-4.313
		c17.783-0.631,51.412-5.31,60.176-6.489c8.736-1.198,31.598-4.39,43.859-7.737C450.847,429.133,460.599,388.677,460.886,375.572z
		 M203.126,476.523h15.088l-15.088,69.538V476.523z"/>
</g>
<g id="Layer_1">
</g>
</svg>
