<?xml version="1.0" encoding="iso-8859-1"?>
<!-- Generator: Adobe Illustrator 16.0.0, SVG Export Plug-In . SVG Version: 6.00 Build 0)  -->
<!DOCTYPE svg PUBLIC "-//W3C//DTD SVG 1.1//EN" "http://www.w3.org/Graphics/SVG/1.1/DTD/svg11.dtd">
<svg version="1.1" xmlns="http://www.w3.org/2000/svg" xmlns:xlink="http://www.w3.org/1999/xlink" x="0px" y="0px" width="1000px"
	 height="1000px" viewBox="0 0 1000 1000" style="enable-background:new 0 0 1000 1000;" xml:space="preserve">
<g id="Glyph_x5F_L_x5F_ANG_x5F_BRACKET">
	<path style="fill:#272525;" d="M157.587,339.01c9.992-12.215,21.211-26.021,33.762-41.453
		c12.533-15.427,25.557-31.826,39.051-49.167c13.492-17.366,26.492-33.738,39.043-49.166c12.531-15.432,23.623-29.425,33.244-41.952
		c9.645-12.527,16.738-21.682,21.209-27.459c1.307-1.308,20.582-37.294,21.211-38.576c0.648-1.937,2.119-15.771,2.432-20.243
		c0.309-4.498,1.436-18.332,1.436-20.242h-46.287c2.588-1.308,6.432-4.34,11.584-9.178c5.154-4.814,8.371-8.527,9.625-11.065
		c1.307-0.654,3.869-20.583,3.869-23.145c-1.275,0-23.771,3.532-25.078,4.812c-3.197,1.307-33.244,14.777-41.924,19.277
		c-8.684,4.496-38.709,17.991-41.949,19.299v20.242c0.65,0.627,8.838,15.561,11.09,19.771c2.271,4.16,9.492,18.151,10.121,18.779
		v20.269c-0.629,1.909-14.775,21.342-19.277,27.459c-4.502,6.096-20.242,28.114-22.178,31.332
		c-0.998,1.204-9.281,11.194-9.281,11.194l30.836,6.145l-47.057,13.419c0,0-13.123,15.846-16.42,19.875
		c-8.686,10.59-38.734,45.453-41.951,48.671c-1.934,1.279-16.713,15.586-21.207,19.771c-4.502,4.159-19.277,17.837-21.209,19.771
		c0,0-57.619,51.731-66.404,55.078v94.153c15.477,1.514,37.057,14.279,46.998,22.436c10.877,8.949,38.678,43.314,40.615,45.248
		c5.15,6.407,13.832,17.839,26.021,34.233c12.213,16.372,25.078,34.051,38.574,53.015c13.498,18.959,26.02,36.794,37.609,53.507
		c11.557,16.71,19.275,28.586,23.119,35.675c-1.285,2.562-1.285,18.959,0,20.238c0.65,1.938,7.895,15.591,10.121,19.774
		c2.275,4.182,10.461,18.465,11.09,19.772c1.305,1.908,18.648,17.981,21.211,19.262h21.209c1.305-0.629,16.557-6.734,20.738-8.671
		c4.186-1.936,19.459-9.965,20.713-10.591c3.242-1.937,21.211-18.649,21.211-19.304c0-1.279,1.932-26.985,1.932-26.985
		c0-1.914-1.283-10.935-1.932-13.496L134.945,425.788v-59.785C140.093,360.219,147.654,351.224,157.587,339.01z M267.117,88.751
		c2.592-4.184,6.436-6.25,11.586-6.25c5.152,0,9.156,2.066,12.033,6.25c2.898,4.185,4.338,8.682,4.338,13.521
		c0,4.812-1.439,9.31-4.338,13.495c-2.877,4.159-6.881,6.25-12.033,6.25c-5.15,0-8.994-2.092-11.586-6.25
		c-2.561-4.185-3.844-8.683-3.844-13.495C263.273,97.434,264.556,92.936,267.117,88.751z M65.714,459.526
		c-3.244-2.459-15.852-17.526-7.092-20.713c10.279-3.741,32.299,2.299,40.801,8.683c3.244,2.456,13.994,19.352,5.229,22.568
		C94.376,473.805,74.212,465.881,65.714,459.526z M297.951,730.261l-34.313-9.205l-1.459-64.858L297.951,730.261z M210.076,599.154
		l10.881,39.884l-78.664-78.249L210.076,599.154z M126.626,518.943c-2.566,1.596-5.313,2.409-8.191,2.409
		c-2.896,0-5.467-0.813-7.709-2.409c-2.25-1.622-3.066-3.712-2.436-6.279c1.311-6.432,4.678-9.621,10.145-9.621
		c5.469,0,9.158,3.189,11.066,9.621C130.154,515.231,129.187,517.321,126.626,518.943z"/>
</g>
<g id="Layer_1">
</g>
</svg>
