<?xml version="1.0" encoding="iso-8859-1"?>
<!-- Generator: Adobe Illustrator 16.0.0, SVG Export Plug-In . SVG Version: 6.00 Build 0)  -->
<!DOCTYPE svg PUBLIC "-//W3C//DTD SVG 1.1//EN" "http://www.w3.org/Graphics/SVG/1.1/DTD/svg11.dtd">
<svg version="1.1" xmlns="http://www.w3.org/2000/svg" xmlns:xlink="http://www.w3.org/1999/xlink" x="0px" y="0px" width="1000px"
	 height="1000px" viewBox="0 0 1000 1000" style="enable-background:new 0 0 1000 1000;" xml:space="preserve">
<g id="Glyph_x5F_L_x5F_SQ_x5F_BRACKET">
	<path style="fill:#272525;" d="M261.259,683.343c-22.072,3.951-103.672,5.203-124.068-3.712c0,0-22.965-200.83-22.965-290.118
		c0-89.259,22.883-258.055,22.883-258.055c10.311-6.405,73.338-17.284,83.979-17.521c23.41-0.469,29.188,7.977,37.533,12.868
		c20.605-2.065,46.707-23.539,51.99-35.803c3.871-8.92,8.188-64.312,3.633-67.502c-1.592-1.149-12.84-11.165-26.777-15.063
		c-6.541-1.805-22.102-4.106-26.258-3.898c-4.158,0.313-18.805,2.538-20.791,3.271l-89.365,1.75c0,0-78.957,1.937-101.816,8.632
		c-8.182,2.407-22.199,5.02-31.828,10.043C5.585,34.405,6.06,66.39,6.06,66.39s16.66,242.78,16.66,324.221
		c0,47.048-10.383,235.168-10.383,235.168l50.266-44.355l-52.357,79.923l-4.369,70.456c0,0,9.857,42.945,22.414,57.592
		c16.318,6.692,53.453,7.519,53.453,7.519s127.865-0.614,133.119-0.379l62.273-1.648c7.273-1.832,18.023-9.182,25.393-14.828
		c7.379-5.623,13.107-13.104,13.395-25.422c0.23-9.65-29.846-62.139-54.297-71.371C261.521,683.315,261.394,683.315,261.259,683.343
		z M94.039,126.594c4-2.614,8.393-4.237,13.154-4.891c4.758-0.653,8.74-0.287,11.871,1.1c3.193,1.385,3.977,3.738,2.516,7.061
		c-4.865,8.422-11.406,13.313-19.646,14.7c-8.236,1.36-12.654-1.285-13.232-7.927C88.232,132.558,90.041,129.211,94.039,126.594z
		 M69.583,411.819c-2.955,7.558-5.357,9.623-7.268,6.225c-2.043-2.667-3.164-7.348-3.348-14.093
		c-0.186-6.75,0.469-13.681,2.01-20.742c1.545-7.086,3.873-13.863,6.881-20.271c3.033-6.405,6.145-10.747,9.234-13.022
		c3.006-1.597,4.26,1.646,3.816,9.729c-0.416,8.083-1.699,16.92-3.766,26.493C75.052,395.736,72.541,404.29,69.583,411.819z
		 M259.693,84.541c3.975-7.191,6.514-11.769,7.455-13.652c0.965-1.021,3.293-2.119,6.902-3.267c3.637-1.179,6.408-1.859,8.316-1.991
		l-0.34,14.438l-29.895,19.589C253.179,96.807,255.691,91.785,259.693,84.541z M39.511,672.334
		c-0.732-2.593,0.338-4.498,3.242-5.781c2.928-1.283,6.012-1.936,9.283-1.936c3.271,0.027,6.145,0.652,8.709,1.959
		c2.539,1.284,3.084,3.192,1.646,5.782c-0.756,5.78-4.002,8.685-9.834,8.659C46.728,681.018,42.386,678.112,39.511,672.334z
		 M82.349,189.128c-4.318-0.211-9.023-2.929-14.201-8.134c-4.502-4.552-6.852-8.97-7.061-13.313
		c-0.186-4.313,0.965-7.766,3.527-10.303c2.586-2.563,6.146-3.792,10.619-3.74c4.525,0.078,9.023,2.38,13.521,6.931
		c5.18,5.23,7.738,10.069,7.738,14.541c0.057,4.498-1.23,8.003-3.816,10.593C90.115,188.238,86.689,189.388,82.349,189.128z
		 M228.152,764.388c-0.369,6.934-4.342,10.283-11.9,10.021c-3.479-0.709-5.883-2.672-7.246-5.964
		c-1.357-3.348-1.803-6.88-1.309-10.698c0.447-3.82,1.625-6.932,3.455-9.439c1.832-2.483,4.369-2.539,7.637-0.183
		C225.406,752.047,228.517,757.459,228.152,764.388z M258.96,727.827c0.68,4.839-0.916,8.188-4.709,10.045
		c-3.766,1.854-8.004,1.36-12.74-1.491c-4.729-2.853-8.914-6.748-12.6-11.693c-3.691-4.939-6.016-9.726-6.934-14.459
		c-0.943-4.708,0.473-7.979,4.26-9.832c3.795-1.861,8.191-1.44,13.186,1.276c4.967,2.724,9.313,6.545,12.998,11.459
		C256.105,718.099,258.304,722.991,258.96,727.827z"/>
</g>
<g id="Layer_1">
</g>
</svg>
