<?xml version="1.0" encoding="iso-8859-1"?>
<!-- Generator: Adobe Illustrator 16.0.0, SVG Export Plug-In . SVG Version: 6.00 Build 0)  -->
<!DOCTYPE svg PUBLIC "-//W3C//DTD SVG 1.1//EN" "http://www.w3.org/Graphics/SVG/1.1/DTD/svg11.dtd">
<svg version="1.1" xmlns="http://www.w3.org/2000/svg" xmlns:xlink="http://www.w3.org/1999/xlink" x="0px" y="0px" width="1000px"
	 height="1000px" viewBox="0 0 1000 1000" style="enable-background:new 0 0 1000 1000;" xml:space="preserve">
<g id="Glyph_x5F_AMPERSAND">
	<path style="fill:#272525;" d="M140.693,457.979L140.693,457.979c1.363-2.301,24.664-38.628,24.664-38.628l1.648,18.884
		L140.693,457.979z M444.148,476.681c7.4-4.657,13.836-12.189,19.666-19.143c9.26-11.063,16.217-23.435,23.512-35.964
		c2.434,4.944,0.363,17.052-2.172,23.904c-3.58,9.784-17.389,28.3-25.238,31.49C456.232,477.464,447.416,476.784,444.148,476.681z
		 M83.339,557.964c3.01,0,5.834,1.073,8.344,3.271c2.508,2.169,3.791,5.126,3.791,8.837c0,4.342-1.283,7.588-3.791,9.806
		c-2.51,2.145-5.334,3.272-8.344,3.272c-3.063,0-5.834-1.128-8.342-3.272c-2.537-2.218-3.793-5.464-3.793-9.806
		c0-3.711,1.256-6.668,3.793-8.837C77.505,559.037,80.277,557.964,83.339,557.964z M407.013,544.077
		c-3.037,0-5.076-2.512-6.072-7.481c-0.494-3.109,0-5.282,1.549-6.563c1.486-1.232,3.135-1.855,4.912-1.855
		c1.754,0,3.297,0.623,4.553,1.855c1.252,1.28,1.621,3.453,1.148,6.563C412.083,541.565,410.041,544.077,407.013,544.077z
		 M231.261,689.54c-6.354,3.507-10.434,5.784-12.424,6.484c-0.156,1.022-0.393,1.83-0.887,2.146c-0.498,0-8.111-7.166-10.596-5.595
		c-2.561,1.541-5.066,3.268-7.605,5.072c-2.537,1.935-8.922,6.903-17.314,6.721c-7.092-0.185-11.771-0.525-18.883-8.345
		l-53.482-69.355c0,0,1.645,2.721-11.195-17.314c-4.002-6.223,32.35-58.321,37.977-65.773c5.621-7.507,3.264-5.283,6.822-10.282
		c3.535-4.97,7.295-9.933,11.379-14.904c4.053-4.995,7.846-9.648,11.377-13.968c3.557-4.389,6.066-7.477,7.586-9.361
		c3.527-4.343,7.975-9.468,13.307-15.379c5.313-5.907,10.594-11.35,15.932-16.317c5.281-4.969,9.857-9.308,13.65-13.051
		c3.789-3.74,5.938-5.23,6.459-4.655l56.045,72.549c8.633,10.589,22.885,28.008,28.768,36.852c6.096,9.202,4.971,4.891,3.848,19.143
		c-1.754,22.699-18.516,22.044-26.127,25.602c-18.23,8.656-25.266,24.296-24.611,43.205c0.469,13.002-11.607,33.166-16.033,36.825
		C240.81,683.474,236.361,686.088,231.261,689.54z M268.763,720.585c-3.293,0-6.195-0.915-8.729-2.827
		c-2.541-1.879-3.824-4.967-3.824-9.311c0-4.365,1.283-7.61,3.824-9.779c2.533-2.222,5.436-3.268,8.729-3.268
		c3.271,0,6.201,1.046,8.686,3.268c2.561,2.169,3.818,5.414,3.818,9.779c0,4.344-1.258,7.432-3.818,9.311
		C274.964,719.67,272.035,720.585,268.763,720.585z M236.494,748.569c-2.227-4.657-0.523-9.442,2.668-12.45
		c1.725-1.568,12.449-8.266,15.01-5.073c3.113,3.818-4.918,18.282-7.559,20.763C243.396,754.82,238.347,752.417,236.494,748.569z
		 M520.674,694.379c-10.277-7.793-21.266-16.45-32.168-25.185c-8.059,1.199-15.432,2.353-24.512,2.142
		c-4.152-1.622-5.799-3.294-10.566-6.275c9-4.524,19.309-8.268,19.594-8.393c-35.043-28.93-65.619-57.332-65.592-66.562
		c0-10.356,44.043-57.901,86.723-95.876c39.518-35.155,34.258-28.091,45.977-38.968c-9.102-3.663-12.42-11.039-15.375-23.514
		c-3.086-12.918-6.123-63.315-7.898-76.707c-6.096-0.079-35.104-8.056-51.84-1.519c-24.449,14.412-5.697,15.692-25.02,41.193
		c-45.619,60.125-95.229,127.157-97.164,128.124c-5.412-5.231-16.32-19.483-17.604-21.317l-63.73-77.724
		c0.049-0.079,0.15-0.156,0.205-0.236c7.037-7.033,73.727-75.713,84.318-86.698c10.564-11.009,57.404-56.462,59.053-56.462
		c2.172-1.204,8.4-1.572,13.443-8.215c5.809-7.792-14.721-81.334-17.234-78.773c-3.658-3.293-9.492,3.271-17.418,3.95
		c-7.74-7.742-175.932-194.579-175.932-194.579s-0.34,16.399-12.844,31.513c-16.029,19.408-37.217,30.965-53.086,47.077
		c-4.738,4.838-11.143,11.428-17.971,18.438l-23.037,105.083l-1.52-79.609c-5.072,5.31-9.543,10.069-12.656,13.468
		c-11.406,12.579-47.838,58.271-51.602,63.188L6.322,240.179c1.828,8.263,13.523,26.598,18.982,32.169
		c6.775,6.904,18.234,14.122,22.938,17.706c1.621,1.2,16.031,12.525,20.375,15.585c4.309,3.086,17.914,14.359,19.559,15.613
		c3.326,3.324,41.139,44.199,68.68,73.856c-4.939,5.1-9.887,10.095-14.799,14.934c-5.051,4.996-8.607,8.71-10.619,11.221
		c-3.537,4.315-9.963,12.267-19.354,23.774c-9.334,11.48-19.355,23.591-29.971,36.377c-10.619,12.713-20.613,24.978-29.947,36.799
		c-9.391,11.798-15.848,20.187-19.381,25.159L5.876,582.209c1.697,8.447,12.578,27.041,17.678,32.692
		c6.326,7.036,16.971,14.38,21.367,18.019c1.492,1.227,4.053,3.399,7.584,6.512c3.555,3.11,7.326,6.198,11.373,9.334
		c4.057,3.089,7.744,6.177,11.014,9.313c3.293,3.086,5.701,5.286,7.221,6.511c4.547,4.999,12.133,13.68,22.775,26.126
		c10.619,12.425,21.734,25.659,33.373,39.623c11.635,14.018,22.756,27.042,33.375,39.179c10.643,12.109,17.961,20.633,22.018,25.603
		c0.498,0,2.432,0.34,5.703,0.941c3.291,0.628,5.412,0.953,6.459,0.953c0.994,0,3.035-0.325,6.092-0.953
		c2.982-0.602,5.021-0.941,6.043-0.941c0.494-0.603,3.295-3.399,8.338-8.396c5.078-4.969,10.885-11.034,17.451-18.147
		c6.563-7.167,13.15-14.309,19.744-21.446c6.563-7.164,11.875-12.897,15.924-17.261c2.018-2.483,7.221-8.553,15.564-18.152
		c8.342-9.65,17.441-20.084,27.332-31.282c9.855-11.163,19.084-21.441,27.666-30.752c8.605-9.311,4.471-5.415,7.768-7.456
		c4.5-0.418,20.92,27.802,42.471,57.956c16.479,23.018,22.1,26.938,38.785,47.915c15.145,19.115,16.527,24.348,34.709,38.076
		c9.465-6.041,33.137-19.771,44.481-33.709c10.518-13.024,19.305-29.712,24.404-39.858
		C539.318,705.338,544.861,712.74,520.674,694.379z M338.488,246.454c0-37.608,46.137-37.608,46.137,0
		C384.625,284.011,338.488,284.011,338.488,246.454z M190.072,328.76c-5.439-6.276-45.637-41.06-45.637-41.06
		s-16.059-16.296-24.662-28.719c-2.725-3.817,30.887-48.854,34.678-53.508c3.766-4.603,15.977-20.768,18.725-23.799
		c2.744-3.113,11.768-13.286,12.789-14.436c2.41-2.723,21.473-24.22,25.055-27.278c3.609-3.113,13.207-11.375,13.574-10.987
		l57.145,47.103c5.832,6.537,29.316,28.82,32.48,33.843c3.793,5.989,5.623,6.303,4.889,15.14
		c-1.201,14.02-27.902,41.377-35.436,49.482c-8.057,8.581-33.131,30.549-41.031,35.754c-20.037,13.102-30.732,21.364-36.561,22.358
		C201.609,333.387,193.707,332.945,190.072,328.76z M305.927,332.63c-6.459-18.101,23.566-48.828,30.023-30.731
		C342.412,319.972,312.414,350.729,305.927,332.63z"/>
</g>
<g id="Layer_1">
</g>
</svg>
