<?xml version="1.0" encoding="iso-8859-1"?>
<!-- Generator: Adobe Illustrator 16.0.0, SVG Export Plug-In . SVG Version: 6.00 Build 0)  -->
<!DOCTYPE svg PUBLIC "-//W3C//DTD SVG 1.1//EN" "http://www.w3.org/Graphics/SVG/1.1/DTD/svg11.dtd">
<svg version="1.1" xmlns="http://www.w3.org/2000/svg" xmlns:xlink="http://www.w3.org/1999/xlink" x="0px" y="0px" width="1000px"
	 height="1000px" viewBox="0 0 1000 1000" style="enable-background:new 0 0 1000 1000;" xml:space="preserve">
<g id="Glyph_x5F_COLON">
	<path style="fill:#272525;" d="M8.701,221.846c-11.326,35.229,12.475,88.03,52.516,91.981c11.742,1.174,25.213-0.394,38.313-3.559
		c10.617-2.537,37.793-11.114,55-19.224c3.402-4.603,4.42-6.774,6.516-13.86c2.066-7.062,2.09-22.152,1.803-26.86
		c-0.287-4.708-3.453-21.367-5.908-26.859c-2.465-5.491-6.359-11.9-11.926-15.22c-5.34,3.426-11.744,7.322-17.969,11.035
		c-13.076,7.768-31.408,33.583-31.408,33.583s-9.494-27.358,33.734-56.625c-0.809-0.808-26.703-1.828-36.223-1.62
		c-9.518,0.208-20.529,1.179-28.689,3.059c-8.158,1.886-24.061,7.143-29.498,9.39C29.519,209.317,19.056,216.011,8.701,221.846z
		 M137.322,635.769c27.381-13.811,26.184-43.282,26.648-59.394c0.656-22.804-10.957-62.582-17.578-71.16
		c-6.037-2.801-21.047-2.433-37.029-1.072c-18.695,1.566-38.732,4.498-47.127,5.229c-15.563,1.384-35.465,7.298-40.537,18.229
		c-3.768,8.132-12.449,38.394-8.734,54.188c9.152,11.222,17.285,23.904,26.723,31.488c9.445,7.611,31.025,22.307,39.287,24.638
		C87.263,640.241,122.388,643.3,137.322,635.769z M121.865,611.5c-5.414-6.328-11.559-25.812-7.27-27.803
		c4.525-2.04,16.975,3.034,22.592,9.6c0,0,5.209,24.769,0.682,26.678C133.375,621.882,121.865,611.5,121.865,611.5z"/>
</g>
<g id="Layer_1">
</g>
</svg>
