<?xml version="1.0" encoding="iso-8859-1"?>
<!-- Generator: Adobe Illustrator 16.0.0, SVG Export Plug-In . SVG Version: 6.00 Build 0)  -->
<!DOCTYPE svg PUBLIC "-//W3C//DTD SVG 1.1//EN" "http://www.w3.org/Graphics/SVG/1.1/DTD/svg11.dtd">
<svg version="1.1" xmlns="http://www.w3.org/2000/svg" xmlns:xlink="http://www.w3.org/1999/xlink" x="0px" y="0px" width="1000px"
	 height="1000px" viewBox="0 0 1000 1000" style="enable-background:new 0 0 1000 1000;" xml:space="preserve">
<g id="Glyph_x5F_FORWARD_x5F_SLASH">
	<path style="fill:#272525;" d="M519.865,61.081c-11.088-10.458-41.825-32.062-50.219-35.985
		c-10.641-4.97-45.188-7.923-67.602-9.363c-8.369,16.581-18.18,32.612-26.912,49.011l-18.469,45.792l-20.998,52.02
		c0,0-249.842,462.411-271.941,499.261c-2.873,4.815-11.922,13.337-11.922,13.337l-0.051,53.354H33.753l0.051-40.722
		c0,0-23.879,13.865-27.928,16.766c0,23.065,0,90.072,0,90.072s20.004,0.863,29.34-0.106c13.814-1.438,26.367-2.117,37.871-5.075
		c11.506-2.927,38.918-7.843,51.26-15.793c4.893-16.108,6.488-33.424,7.324-48.28c0.785-13.81-0.209-22.6,1.074-45.635
		c14.67-27.958,34.18-65.253,34.18-65.253l-20.871-22.726l43.965-21.5c0,0,171.096-325.921,177.893-338.919
		c7.297-13.963,53.645-42.968,69.098-49.532c24.688-10.462,44.777-32.64,56.068-44.356c12.479-12.946,33.479-63.184,33.479-63.184
		C526.873,68.509,526.037,66.915,519.865,61.081z M433.951,157.458c-15.746,13.52-31.566,20.502-34.604,13.048
		c-2.693-6.616,12.818-29.345,24.059-38.889c11.535-9.781,17.893-11.534,19.984,1.255
		C445.013,142.706,438.89,153.22,433.951,157.458z M472.992,93.095c-44.092,0-44.092-41.924,0-41.924
		C517.09,51.17,517.09,93.095,472.992,93.095z"/>
</g>
<g id="Layer_1">
</g>
</svg>
