<?xml version="1.0" encoding="iso-8859-1"?>
<!-- Generator: Adobe Illustrator 16.0.0, SVG Export Plug-In . SVG Version: 6.00 Build 0)  -->
<!DOCTYPE svg PUBLIC "-//W3C//DTD SVG 1.1//EN" "http://www.w3.org/Graphics/SVG/1.1/DTD/svg11.dtd">
<svg version="1.1" xmlns="http://www.w3.org/2000/svg" xmlns:xlink="http://www.w3.org/1999/xlink" x="0px" y="0px" width="1000px"
	 height="1000px" viewBox="0 0 1000 1000" style="enable-background:new 0 0 1000 1000;" xml:space="preserve">
<g id="Glyph_x5F_ASTERISK">
	<path style="fill:#272525;" d="M395.849,273.627c-4.811-4.446-8.188-7.244-10.123-8.447c-1.908-0.601-6.748-2.799-14.463-6.644
		c-7.715-3.844-15.898-7.688-24.586-11.534c-8.656-3.867-16.865-7.556-24.58-11.115c-7.719-3.555-12.529-5.885-14.465-7.085
		c-2.561-1.177-6.094-4.004-10.588-8.449c-4.504-4.418-7.406-7.53-8.688-9.309l97.369-54.139v-21.289
		c-1.908,0-5.625,0.159-11.086,0.445c-5.469,0.288-11.406,0.575-17.84,0.891c-6.434,0.289-12.369,0.73-17.836,1.307
		c-5.465,0.602-9.465,1.202-12.035,1.806c-1.301,0.574-4.832,1.622-10.615,3.087c-5.777,1.464-12.059,3.267-18.803,5.332
		c-6.746,2.069-12.998,3.845-18.807,5.31c-5.781,1.493-9.307,2.538-10.59,3.112h-20.242c0-5.333,0.943-4.025,0.313-15.012
		c-0.654-10.93-4.678-33.187-7.609-45.32c-2.592-10.752-5.621-17.028-6.904-22.334c0-0.605-2.482-5.81-3.766-9.05
		c-1.311-3.271-3.508-6.644-5.439-10.801c-1.91-4.105-5.363-7.01-7.607-10.567c-2.281-3.533-4.344-6.198-6.277-8.003
		c-1.912-2.929-5.311-6.643-10.119-11.062c-4.813-4.446-7.875-6.67-9.156-6.67l-78.1,35.49v18.646
		c0.631,1.178,1.939,4.289,3.848,9.339c1.934,5.02,4.027,10.488,6.277,16.397c2.252,5.938,3.43,11.43,4.654,16.947
		c1.676,7.505,2.195,10.749,4.213,26.65c2.063,16.295,1.859,18.282,1.859,24.193c-3.219,0-20.531-1.308-28.875-2.198
		c-8.369-0.861-17.209-1.907-26.523-3.086c-9.305-1.177-18.148-2.224-26.52-3.111c-8.34-0.887-14.455-1.021-18.299-0.446
		c-2.592,0-6.279,2.38-11.094,7.089c-4.814,4.759-7.873,8.604-9.15,11.534c-0.656,1.202-0.969,2.406-0.969,3.581
		c-0.656,1.178-0.969,2.958-0.969,5.31c0,2.958,0.313,5.023,0.969,6.225c0,1.178,0.313,2.066,0.969,2.643
		c0.625,1.203,2.719,2.666,6.248,4.446c3.531,1.778,7.4,3.53,11.586,5.335c4.162,1.778,8.344,3.4,12.525,4.864
		c4.188,1.489,7.244,2.535,9.152,3.113c1.285,0.601,4.004,0.758,8.217,0.441c4.154-0.286,8.656-0.729,13.49-1.333
		c4.813-0.576,9.156-1.174,13-1.78c3.871-0.572,6.436-0.888,7.717-0.888c0,1.205-0.813,4.604-2.408,10.202
		c-1.623,5.646-1.779,9.334-0.467,11.114c0.627,1.779,3.502,5.019,8.654,9.755c5.152,4.734,8.68,7.399,10.615,8.002
		c-1.936,1.176-5.621,3.532-11.088,7.086c-5.465,3.556-11.428,7.246-17.832,11.092c-6.439,3.841-12.375,7.556-17.836,11.087
		c-5.471,3.555-9.496,5.938-12.063,7.113c-1.279,0.604-3.846,1.648-7.715,3.111c-3.84,1.467-8.027,3.085-12.525,4.865
		c-4.498,1.777-8.684,3.688-12.527,5.781c-3.871,2.066-6.119,3.399-6.744,3.974c-1.313,1.204-2.908,4.762-4.813,10.671
		c-1.943,5.911-2.908,9.466-2.908,10.644c1.938,0,6.096-0.133,12.533-0.445c6.43-0.288,13.338-0.6,20.736-0.888
		c7.375-0.287,14.279-0.601,20.715-0.891c6.432-0.287,10.615-0.73,12.553-1.333c2.537-0.575,7.059-1.752,13.494-3.532
		c6.408-1.803,13.314-3.555,20.713-5.333c7.377-1.781,14.305-3.399,20.74-4.892c6.41-1.465,10.906-2.798,13.494-4.002v67.45
		c0,0,2.824,39.336,14.957,56.096c10.311,14.23,47.705,18.491,87.877,15.405c11.953-0.915,10.883-33.371,10.883-33.371
		s-14.859,1.961-22.813,0.575c-12.131-2.118-21.467-3.844-26.564-11.743c-6.072-9.441-2.096-14.068,1.879-19.457
		c3.32-4.498,21.521-7.505,21.521-7.505c-1.305-2.956,1.104-13.156,3.377-19.956c2.223-6.8,4.814-12.999,7.689-18.648
		c2.902-5.594,5.621-9.31,8.211-11.088c1.934-0.575,6.75-0.889,14.461-0.889c7.717,0,16.063,0.156,25.057,0.445
		c8.996,0.315,17.367,0.602,25.08,0.889c7.717,0.313,12.529,0.158,14.459-0.445c3.199-0.575,8.66-2.509,16.379-5.753
		c7.711-3.244,15.742-6.801,24.111-10.671c8.344-3.818,16.059-7.531,23.146-11.088c7.061-3.555,11.871-6.198,14.461-7.977
		C403.722,281.158,400.685,278.047,395.849,273.627z M209.298,122.307c-3.219,4.733-9.807,7.085-19.744,7.085
		c-9.994,0-16.582-2.352-19.777-7.085c-1.307-2.957,0.318-5.176,4.816-6.669c4.496-1.464,9.646-2.224,15.426-2.224
		c5.785,0,10.938,0.76,15.432,2.224C209.923,117.131,211.232,119.351,209.298,122.307z M298.087,284.036
		c-2.563,3.557-6.121,5.336-10.592,5.336c-5.15,0-8.867-1.779-11.086-5.336c-2.275-3.558-3.377-7.557-3.377-11.979
		c0-4.445,1.102-8.42,3.377-12.003c2.219-3.531,5.936-5.31,11.086-5.31c4.471,0,8.029,1.779,10.592,5.31
		c2.561,3.583,3.844,7.558,3.844,12.003C301.931,276.479,300.648,280.479,298.087,284.036z"/>
</g>
<g id="Layer_1">
</g>
</svg>
