<?xml version="1.0" encoding="iso-8859-1"?>
<!-- Generator: Adobe Illustrator 16.0.0, SVG Export Plug-In . SVG Version: 6.00 Build 0)  -->
<!DOCTYPE svg PUBLIC "-//W3C//DTD SVG 1.1//EN" "http://www.w3.org/Graphics/SVG/1.1/DTD/svg11.dtd">
<svg version="1.1" xmlns="http://www.w3.org/2000/svg" xmlns:xlink="http://www.w3.org/1999/xlink" x="0px" y="0px" width="1000px"
	 height="1000px" viewBox="0 0 1000 1000" style="enable-background:new 0 0 1000 1000;" xml:space="preserve">
<g id="Glyph_x5F_AT">
	<path style="fill:#272525;" d="M374.296,628.707c2.693-3.74,26.57-38.939,55.049-81.02c2.512-3.717,5.049-7.455,7.613-11.248
		c2.875-4.265,5.779-8.579,8.736-12.922c42.418-62.688,87.901-130.056,87.901-130.056s-21.945-54.897-30.184-94.073
		c-5.932,18.412-11.846,27.146-18.881,27.619c-9.363,0.627-22.074-27.538-28.898-38.706c-6.227-10.201-11.979-19.564-14.857-23.721
		c-5.047-7.35-14.201-20.689-27.512-40.094c-13.313-19.379-40.064-59.289-53.404-78.876c-12.631-18.543-46.578-68.626-43.545-79.506
		c4.68-16.738,9.363-30.757,2.77-46.239c-8.498-6.484-43.883-13.859-64.621-15.35c-5.465-0.548-31.281,26.047-37.846,36.614
		c-8.133,13.102-16.605,35.149-20.814,44.277c-1.443,3.139-3.924,8.368-7.561,15.716c-3.582,7.323-7.166,15.169-10.773,23.565
		c-3.584,8.37-7.191,15.979-10.803,22.778c-3.584,6.827-6.096,11.795-7.559,14.959c-5.754,9.416-15.795,25.107-30.205,47.154
		c-14.385,21.996-29.686,45.037-45.873,69.122c-16.191,24.14-31.281,47.183-45.324,69.178
		c-14.018,21.995-23.902,37.189-29.658,45.583c0,1.021-0.367,4.97-1.07,11.795c-0.73,6.798-1.1,11.245-1.1,13.365
		c0,2.067,0.369,6.25,1.1,12.549c0.703,6.279,1.07,10.462,1.07,12.581c0.705,1.019,3.949,6.802,9.73,17.29
		c5.752,10.486,12.762,22.517,21,36.169c8.291,13.598,16.58,27.2,24.818,40.873c8.289,13.574,14.961,24.56,19.98,32.957
		c2.877,4.209,9.889,14.933,21.027,32.221c11.168,17.288,23.225,36.169,36.168,56.625c12.949,20.393,24.822,39.513,35.598,57.35
		c10.775,17.809,17.26,29.318,19.434,34.571c1.49,2.118,11.35,18.856,11.35,21.996c1.438,4.157,1.855,16.215,9.703,25.93
		c9.125,11.25,92.553-48.604,93.207-50.485c8.604-25.136-11.322-78.303-30.258-94.39c-12.318,7.115-22.047,10.724-36.143,6.801
		c-14.83-4.133-17.158-7.977-22.338-17.548c-4-7.373-21.654-42-38.965-76.342c-19.564-7.476-58.43-21.496-58.43-21.496
		s33.32,0.105,47.68,0.105c-13.234-26.338-24.35-48.8-26.26-53.381c-5.883-13.993-25.262-59.628-22.309-72.417
		c3.662-16.031-4.865-32.038-7.658-43.624c-2.463-9.989-0.787-18.49,1.828-23.091c1.438-2.512,88.188-137.513,88.188-137.513
		s15.115-22.729,35.045-48.802c6.225-8.083,64.285,73.2,71.738,84.605c7.451,11.375,5.285,6.643,10.227,13.834
		c4.969,7.164,9.91,14.881,14.881,23.12c4.941,8.185,13.914,23.066,13.914,23.066l30.521-12.37l-5.912,54.764
		c0,0,11.299,21.552,16.242,32.328c4.992,10.749,9.285,20.005,13.021,27.722c3.715,7.689,8.502,15.873,7.873,16.894l-48.826,75.764
		c-23.67-16.527-26.703-15.534-38.238-26.908c-7.426-7.326-13.391-21.137-16.607-33.454c5.129-17.599,15.328-32.455,28.271-45.637
		c-6.354-15.898-42.027-53.036-56.254-65.903c-31.098,0.261-77.387,18.514-92.191,29.708c-3.164,32.69,3.113,89.156,13.391,107.333
		c44.799-3.14,61.67,27.772,74.121,44.775c13.152,17.992,24.217,37.66,29.08,47.7c6.354,13.104,2.902,23.933-3.896,38.445
		C320.785,621.752,347.123,625.648,374.296,628.707z M85.253,466.742c-3.246,4.708-8.109,7.009-14.623,7.009
		c-6.459,0-11.113-2.301-13.887-7.009c-2.771-4.654-4.186-10.042-4.186-16.137c0-6.067,1.414-11.454,4.186-16.134
		c2.773-4.684,7.428-7.012,13.887-7.012c6.514,0,11.377,2.329,14.623,7.012c3.238,4.681,4.836,10.067,4.836,16.134
		C90.089,456.7,88.492,462.088,85.253,466.742z M249.546,85.822c-1.99,3.951-5.494,5.203-10.518,3.636
		c-8.053-3.271-12.08-9.729-12.08-19.404c0-9.729,4.027-16.217,12.08-19.432c5.023-1.571,8.527,0,10.518,4.888
		c2.037,4.815,3.059,10.072,3.059,15.718C252.605,76.879,251.583,81.742,249.546,85.822z M301.406,130.414
		c-2.955,5.229-6.955,7.873-12.057,7.873c-5.91,0-10.355-2.644-13.311-7.873c-2.932-5.231-4.42-11.011-4.42-17.287
		c0-6.303,1.488-12.082,4.42-17.286c2.955-5.23,7.4-7.875,13.311-7.875c5.102,0,9.102,2.645,12.057,7.875
		c2.98,5.205,4.445,10.983,4.445,17.286C305.851,119.403,304.386,125.183,301.406,130.414z M204.22,697.463
		c4.105,8.371,11.693,24.246,4.004,27.125c-5.338,2.014-14.361-12.501-19.824-22.65c-5.469-10.121-13.184-25.026-5.127-28.065
		C188.529,671.887,200.142,689.123,204.22,697.463z M278.443,470.771c-18.096,0-18.096-43.048,0-43.048
		C296.57,427.723,296.57,470.771,278.443,470.771z M298.269,401.7c-3.4,7.114-20.164-2.927-29.945-13.6
		c-9.416-10.277-18.674-28.247-10.199-34.104c6.094-4.21,24.295,2.565,33.344,13.6C300.517,378.659,304.703,388.232,298.269,401.7z"
		/>
</g>
<g id="Layer_1">
</g>
</svg>
