<?xml version="1.0" encoding="iso-8859-1"?>
<!-- Generator: Adobe Illustrator 16.0.0, SVG Export Plug-In . SVG Version: 6.00 Build 0)  -->
<!DOCTYPE svg PUBLIC "-//W3C//DTD SVG 1.1//EN" "http://www.w3.org/Graphics/SVG/1.1/DTD/svg11.dtd">
<svg version="1.1" xmlns="http://www.w3.org/2000/svg" xmlns:xlink="http://www.w3.org/1999/xlink" x="0px" y="0px" width="1000px"
	 height="1000px" viewBox="0 0 1000 1000" style="enable-background:new 0 0 1000 1000;" xml:space="preserve">
<g id="Glyph_x5F_UNDERSCORE">
	<path style="fill:#272525;" d="M493.589,719.725c-17.154-17.684-41.816-34.445-42.316-34.473c0,0-25.236-9.496-47.961-14.15
		c-35.494-7.27-92.191-10.565-110.867-10.565H73.335c-19.275,0-62.48,7.611-65.775,12.214c-3.793,5.441-0.416,21.077,2.695,28.51
		c3.975,9.385,20.344,23.612,31.643,32.744c11.277,9.097,32.273,22.462,57.775,32.716c16.344,4.677,46.027,11.349,58.635,10.379
		c14.564-1.123,39.807-20.475,62.896-22.175c10.381-0.758,148.078,6.642,148.078,6.642l23.174-30.753l36.063,34.521l53.092,8.864
		c40.717,5.363,52.336,1.492,52.336,1.492C522.648,753.408,524.896,752.047,493.589,719.725z M79.664,736.039
		c-11.115-13.127,25.92-31.33,37.035-18.199C127.785,730.964,90.783,749.171,79.664,736.039z M184.826,748.044
		c-3.66,1.776-8.42,2.406-14.305,1.91c-5.834-0.498-11.406-2.772-16.736-6.828c-5.34-4.076-7.588-7.789-6.754-11.09
		c0.865-3.319,3.145-5.855,6.832-7.639c3.631-1.773,8.262-2.531,13.752-2.323c5.465,0.236,10.936,2.406,16.295,6.485
		c5.309,4.083,7.719,7.874,7.166,11.456C190.607,743.598,188.513,746.265,184.826,748.044z M300.525,696.94
		c-5.281,1.252-11.719,1.913-19.322,1.913c-7.615,0-14.912-0.661-21.973-1.913c-7.033-1.307-11.428-3.219-13.154-5.75
		c-1.748-2.565,0.078-4.426,5.465-5.522c5.438-1.122,11.906-1.672,19.51-1.672c7.613,0,14.857,0.55,21.787,1.672
		c6.955,1.097,11.328,2.957,13.025,5.522C307.615,693.722,305.833,695.634,300.525,696.94z"/>
</g>
<g id="Layer_1">
</g>
</svg>
