<?xml version="1.0" encoding="iso-8859-1"?>
<!-- Generator: Adobe Illustrator 16.0.0, SVG Export Plug-In . SVG Version: 6.00 Build 0)  -->
<!DOCTYPE svg PUBLIC "-//W3C//DTD SVG 1.1//EN" "http://www.w3.org/Graphics/SVG/1.1/DTD/svg11.dtd">
<svg version="1.1" xmlns="http://www.w3.org/2000/svg" xmlns:xlink="http://www.w3.org/1999/xlink" x="0px" y="0px" width="1000px"
	 height="1000px" viewBox="0 0 1000 1000" style="enable-background:new 0 0 1000 1000;" xml:space="preserve">
<g id="Glyph_x5F_SEMICOLON">
	<path style="fill:#272525;" d="M38.861,399.006c-8.105-20.375-8.338-34.469-4.73-31.252c6.725,5.987,16.188,4.784,14.514,22.909
		c33.137,17.131,76.289,12.995,96.326-14.15c5.854-7.95,9.516-17.833,11.322-27.877c1.488-8.135,3.031-29.501,1.176-43.703
		c-3.582-3.585-13.678-10.436-25.969-13.103c-12.293-2.696-31.727-7.142-45.221-6.173c-13.52,0.969-57.455,6.486-64.441,15.981
		c-3.033,4.132-12.447,27.983-10.592,43.52C15.14,378.083,15.718,392.023,38.861,399.006z M43.468,347.719
		c-14.229-4.392-9.313-45.479,1.256-46.865c10.746-1.412,35.545,2.432,37.029,10.88C53.509,302.527,47.441,332.239,43.468,347.719z
		 M142.539,635.823c-0.344-1.859-16.244-13.368-27.021-20.898c-10.771-7.531-30.469-18.044-31.797-18.935
		c-6.096-4.159-29.613-2.484-38.426,0.104c0,0-15.141,8.473-20.107,13.782c-4.967,5.313-15.068,26.232-19.041,39.308
		c-0.678,2.227-1.23,27.122,13.707,41.192c7.66,7.244,19.166,16.479,26.102,39.283c0,0,0.02,5.829,0.02,13.729
		c0,11.976-1.563,22.938-10.355,47.835c19.043,1.466,56.129-16.869,68.262-25.029c5.859-11.926,13.053-29.658,14.018-40.169
		c1.045-11.04,6.279-31.175,13.602-39.962C135.16,681.668,144.755,647.566,142.539,635.823z M26.964,653.893
		c-15.381-14.722,14.777-46.499,30.131-31.801C61.539,626.329,29.501,656.325,26.964,653.893z M117.482,650.076l-21.76,93.73
		l0.209-69.464L117.482,650.076z"/>
</g>
<g id="Layer_1">
</g>
</svg>
