<?xml version="1.0" encoding="iso-8859-1"?>
<!-- Generator: Adobe Illustrator 16.0.0, SVG Export Plug-In . SVG Version: 6.00 Build 0)  -->
<!DOCTYPE svg PUBLIC "-//W3C//DTD SVG 1.1//EN" "http://www.w3.org/Graphics/SVG/1.1/DTD/svg11.dtd">
<svg version="1.1" xmlns="http://www.w3.org/2000/svg" xmlns:xlink="http://www.w3.org/1999/xlink" x="0px" y="0px" width="1000px"
	 height="1000px" viewBox="0 0 1000 1000" style="enable-background:new 0 0 1000 1000;" xml:space="preserve">
<g id="Glyph_x5F_EXCLAIMATION">
	<path style="fill:#272525;" d="M138.175,696.366c-33.137-17.13-98.908-14.124-118.945,13.022
		c-5.859,7.953-9.518,17.838-11.324,27.882c-1.49,8.134-3.033,29.501-1.176,43.704c3.582,3.58,5.49,4.887,12.213,8.182
		c6.748,3.298,10.279,4.003,13.758,4.944c1.961,0.08,18.383,3.702,23.432,4.485c5.072,0.809,21.053,1.229,21.785,1.672
		c1.203-0.365,17.471-1.358,20.975-4.46c-4.758-14.382-10.385-37.188-10.385-37.188s19.695,14.438,29.371,29.319
		c1.203-0.364,3.742-3.817,7.691-10.407c3.922-6.568,6.721-11.435,8.367-14.646c0.656-2.225,7.141-16.348,8.029-21.003
		c0.941-4.628,1.387-21.782,1.623-23.197C142.15,712.661,140.32,705.15,138.175,696.366z M17.558,771.218
		c-6.777-2.432,8.082-47.442,14.854-45.037C39.183,728.612,24.33,773.649,17.558,771.218z M166.447,55.642
		c0,0,5.752-15.354,2.143-22.097c-3.008-5.625-10.643-9.834-17.08-12.766c-3.686-1.673-8.051-4.184-14.066-6.277
		c-4.447-1.541-10.619-3.373-15.248-4.993c-4.627-1.596-8.186-2.724-10.645-3.377c-1.855-0.625-4.785-1.098-8.813-1.438
		c-4.002-0.314-8.16-0.626-12.502-0.966C85.925,3.415,81.763,3.1,77.732,2.76c-3.998-0.313-6.928-0.472-8.787-0.472
		c0,0-21.547,11.535-25.236,15.693c-3.713,4.184-11.352,14.464-13.416,19.25c-2.143,5.022-14.148,27.408-14.148,28.692V93.59h69.643
		v28.454H16.144v449.651c1.885,4.551,3.844,6.957,7.926,9.364c6.012,3.557,14.303,9.934,25.916,12.972
		c17.941,4.286,35.777,6.486,53.559,5.724c23.043-2.586,28.459-8.652,32.459-20.29c1.125-30.368-12.865-63.269-11.795-100.061
		c1.256-41.144,2.639-63.033,4.184-108.697c1.309-38.42,4.027-52.621,10.855-88.189c-7.43-16.946-35.592-81.595-35.592-81.595
		s31.564,27.407,44.012,39.124c8.027-40.301,10.852-50.083,12.084-82.853C160.98,124.426,162.707,79.363,166.447,55.642z
		 M103.656,542.823c-16.455,0-16.455-38.736,0-38.736C120.13,504.087,120.13,542.823,103.656,542.823z M102.267,444.356
		c0,10.25-0.992,34.759-11.141,34.759c-10.121,0-11.117-39.102-11.117-39.102c0-10.227,0.996-34.757,11.117-34.757
		C101.275,405.257,102.267,444.356,102.267,444.356z"/>
</g>
<g id="Layer_1">
</g>
</svg>
