<?xml version="1.0" encoding="iso-8859-1"?>
<!-- Generator: Adobe Illustrator 16.0.0, SVG Export Plug-In . SVG Version: 6.00 Build 0)  -->
<!DOCTYPE svg PUBLIC "-//W3C//DTD SVG 1.1//EN" "http://www.w3.org/Graphics/SVG/1.1/DTD/svg11.dtd">
<svg version="1.1" xmlns="http://www.w3.org/2000/svg" xmlns:xlink="http://www.w3.org/1999/xlink" x="0px" y="0px" width="1000px"
	 height="1000px" viewBox="0 0 1000 1000" style="enable-background:new 0 0 1000 1000;" xml:space="preserve">
<g id="Glyph_x5F_PERIOD">
	<path style="fill:#272525;" d="M125.343,679.129c8.08,20.377,8.338,34.443,4.732,31.253c-6.75-5.985-16.193-4.812-14.518-22.935
		c-33.133-17.104-76.311-12.994-96.348,14.15c-5.857,7.95-9.518,17.835-11.32,27.88c-1.469,8.132-3.01,29.497-1.18,43.701
		c3.586,3.584,13.676,10.435,25.975,13.128c12.291,2.671,31.717,7.115,45.244,6.147c13.488-0.97,57.459-6.485,64.418-15.954
		c3.057-4.159,12.447-28.011,10.613-43.519C149.037,700.052,148.486,686.114,125.343,679.129z M57.685,754.427
		c-13.572,6.144-37.086-27.906-30.08-35.964c7.117-8.158,28.221-21.705,34.945-16.343C35.296,713.913,50.417,740.199,57.685,754.427
		z"/>
</g>
<g id="Layer_1">
</g>
</svg>
