<?xml version="1.0" encoding="iso-8859-1"?>
<!-- Generator: Adobe Illustrator 16.0.0, SVG Export Plug-In . SVG Version: 6.00 Build 0)  -->
<!DOCTYPE svg PUBLIC "-//W3C//DTD SVG 1.1//EN" "http://www.w3.org/Graphics/SVG/1.1/DTD/svg11.dtd">
<svg version="1.1" xmlns="http://www.w3.org/2000/svg" xmlns:xlink="http://www.w3.org/1999/xlink" x="0px" y="0px" width="1000px"
	 height="1000px" viewBox="0 0 1000 1000" style="enable-background:new 0 0 1000 1000;" xml:space="preserve">
<g id="Glyph_x5F_R_x5F_SQ_x5F_BRACKET">
	<path style="fill:#272525;" d="M319.064,61.499c0,0-10.436-30.492-27.463-40.246c-12.266-7.01-33.838-18.598-48.434-18.466
		C174.933,3.415,91.007,15.496,85.673,15.341L35.46,17.407c-7.352,2.511-12.502,2.223-19.799,9.468
		c-7.299,7.243-9.887,20.269-9.783,35.696c0.107,12.136,11.012,77.101,36.143,88.006c0.133-0.05,0.264-0.077,0.422-0.103
		c17.211-4.132,92.293-32.665,106.834-33.242c15.902-0.627,33.27-2.327,38.943,2.093l13.496,554.735
		c-28.168,18.699-106.291,5.571-106.291,5.571c-26.203-6.409-28.424-12.449-36.793-17.292c-20.611,2.12-49.404,26.207-50.662,37.927
		c-1.385,12.941-3.975,79.241,3.74,85.545c7.977,6.514,27.229,12.907,44.775,13.559c23.881,0.918,109.686-3.257,109.686-3.257
		s33.688,0.029,89.943-7.977c18.514-2.64,29.393-25.185,42.264-50.136c12.842-24.947,17.834-58.584,17.834-58.584
		s-13.391-16.736-29.445-22.854c0-8.004,18.047-337.871,18.047-337.871l-45.564,10.407l3.531-46.761l44.516-8.814L319.064,61.499z
		 M244.5,134.443c-5.121-2.748-8.316-6.906-9.623-12.475c-1.277-5.572-0.055-9.967,3.66-13.208
		c3.715-3.218,8.498-4.865,14.332-4.943c5.834-0.053,11.326,1.488,16.529,4.602c5.23,3.163,8.449,7.505,9.705,13.104
		c1.307,5.568,0.078,9.754-3.738,12.579c-3.82,2.875-8.635,4.287-14.471,4.367C255.068,138.494,249.628,137.188,244.5,134.443z
		 M285.404,83.992c0.314-2.823,1.908-4.002,4.838-3.557c5.678-1.359,9.523,0.654,11.561,6.093
		c2.068,5.468,0.887,10.566-3.504,15.325c-2.143,1.57-4.314,1.231-6.564-1.02c-2.225-2.273-3.924-4.94-5.07-8.003
		C285.507,89.772,285.093,86.844,285.404,83.992z M199.072,720.453c-3.975,2.614-8.367,4.262-13.127,4.916
		c-4.76,0.681-8.738,0.341-11.873-1.047c-3.193-1.386-4.004-3.737-2.539-7.032c4.842-8.45,11.377-13.364,19.592-14.778
		c8.234-1.412,12.652,1.232,13.26,7.87C204.851,714.492,203.076,717.812,199.072,720.453z M266.757,553.468
		c-1.283,8.001-3.215,10.538-5.777,7.608c-2.564-2.171-4.658-6.512-6.277-13.075c-1.598-6.512-2.408-13.444-2.408-20.688
		c0-7.271,0.811-14.354,2.408-21.263c1.619-6.879,3.713-11.82,6.277-14.696c2.563-2.173,4.494,0.706,5.777,8.707
		c1.281,8.005,1.936,16.896,1.936,26.702C268.693,536.572,268.039,545.49,266.757,553.468z"/>
</g>
<g id="Layer_1">
</g>
</svg>
