<?xml version="1.0" encoding="iso-8859-1"?>
<!-- Generator: Adobe Illustrator 16.0.0, SVG Export Plug-In . SVG Version: 6.00 Build 0)  -->
<!DOCTYPE svg PUBLIC "-//W3C//DTD SVG 1.1//EN" "http://www.w3.org/Graphics/SVG/1.1/DTD/svg11.dtd">
<svg version="1.1" xmlns="http://www.w3.org/2000/svg" xmlns:xlink="http://www.w3.org/1999/xlink" x="0px" y="0px" width="1000px"
	 height="1000px" viewBox="0 0 1000 1000" style="enable-background:new 0 0 1000 1000;" xml:space="preserve">
<g id="Glyph_x5F_HYPHEN">
	<path style="fill:#272525;" d="M410.259,349.29c-4.889,0.496-13.576,1.098-26.025,1.778c-12.5,0.68-25.785,1.255-39.854,1.7
		c-14.098,0.467-27.49,1.122-40.281,1.961c-12.758,0.863-61.25-1.099-61.559-1.648c0,0-62.902-1.385-76.111-0.627
		c-13.232,0.781-61.744,16.5-61.744,16.5c-2.797,1.571-29.266,13.494-37.033,16.712c-7.791,3.218-33.973,14.985-36.197,16.244
		c-1.385,1.487-11.27,14.148-14.1,18.28c-2.844,4.158-10.693,17.891-11.479,19.065c0.053,1.439,3.793,8.815,3.793,8.815
		s4.057,6.668,5.545,8.027c2.068,1.073,6.592,2.616,13.574,4.601c7.01,2.016,11.924,2.958,14.803,2.8
		c0.99,0.105,26.232-0.995,26.232-0.995l55.813-53.483l-24.271,51.891c0,0,10.379-0.34,13.311-0.475
		c8.631-0.364,28.689-1.933,37.922-1.204c9.26,0.764,14.016,1.441,14.307,1.988c0,0,25.24,2.721,29.998,4.186
		c4.785,1.44,66.139,0.525,75.111-1.49c11.639-2.64,36.037-12.682,36.037-12.682c3.691-1.283,9.676-4.08,17.99-8.343
		c8.295-4.211,17.078-8.921,26.369-14.072c9.254-5.152,39.412-23.355,42.473-25.787c1.385-1.49,10.693-14.775,13.416-18.491
		c2.721-3.712,10.932-16.373,11.768-17.546c-0.625-1.126-2.85-9.103-3.453-10.227C415.988,355.669,410.546,349.864,410.259,349.29z
		 M286.529,425.943c0.207,5.153-1.727,8.919-5.807,11.326c-4.078,2.405-8.549,3.739-13.361,3.948
		c-4.816,0.181-9.34-0.758-13.629-2.822c-4.266-2.067-6.514-5.678-6.723-10.829c-0.209-5.125,1.727-9.074,5.807-11.821
		c4.051-2.72,8.5-4.212,13.285-4.422c4.863-0.182,9.393,0.917,13.678,3.322C284.068,417.025,286.291,420.79,286.529,425.943z
		 M331.3,400.286c-0.234,4.892-2.586,8.581-7.086,11.089c-4.496,2.486-8.736,2.459-12.715-0.102
		c-4.025-2.565-7.266-6.096-9.752-10.593c-2.484-4.473-3.789-9.102-3.842-13.862c-0.053-4.735,2.145-8.368,6.641-10.854
		c4.5-2.512,8.893-2.563,13.158-0.133c4.287,2.408,7.686,5.861,10.174,10.36C330.365,390.689,331.509,395.395,331.3,400.286z"/>
</g>
<g id="Layer_1">
</g>
</svg>
