<?xml version="1.0" encoding="iso-8859-1"?>
<!-- Generator: Adobe Illustrator 16.0.0, SVG Export Plug-In . SVG Version: 6.00 Build 0)  -->
<!DOCTYPE svg PUBLIC "-//W3C//DTD SVG 1.1//EN" "http://www.w3.org/Graphics/SVG/1.1/DTD/svg11.dtd">
<svg version="1.1" xmlns="http://www.w3.org/2000/svg" xmlns:xlink="http://www.w3.org/1999/xlink" x="0px" y="0px" width="1000px"
	 height="1000px" viewBox="0 0 1000 1000" style="enable-background:new 0 0 1000 1000;" xml:space="preserve">
<g id="Glyph_x5F_DOLLAR">
	<path style="fill:#272525;" d="M441.453,177.228c-0.967-4.002-5.781-10.28-13.154-15.404c-4.527-3.139-36.092-19.277-44.932-22.703
		c-8.842-3.452-27.541-9.282-35.855-11.009c-4.318-0.914-14.883,15.405-19.799,20.005c-4.916,4.63-16.32,16.53-24.922,18.178
		c-9.18,1.752-31.805,0.498-42.867,0.237c-2.93-0.054-8.105-0.76-13.73-1.677V58.726c0-1.018-1.49-5.282-4.445-12.813
		c-2.955-7.558-5.492-13.338-7.639-17.364c-1.279-1.02-3.504-3.506-6.666-7.532c-3.191-4.029-4.969-6.54-5.416-7.56h-6.33h-6.379
		c-1.676,1.02-4.863,3.035-9.549,6.042c-4.654,3.033-9.516,6.145-14.592,9.442c-5.098,3.244-9.859,6.405-14.307,9.414
		c-4.443,3.007-7.713,5.02-9.855,6.041v6.775v7.555c1.252,2.514,3.502,7.902,6.666,16.22c3.189,8.289,6.668,17.077,10.488,26.387
		c3.818,9.309,7.637,18.49,11.453,27.54c3.818,9.048,6.564,15.56,8.242,19.588c0.832,1.775,1.803,3.973,2.773,6.039
		c-7.744-1.698-16.559-3.452-23.986-4.289c-17.393-1.96-65.699-3.582-54.504-3.555c11.195,0-28.322-1.358-42.553-1.571
		c-4.184,2.252-6.354,2.931-12.289,7.063c-5.936,4.131-22.256,15.218-31.828,23.721c-3.926,5.884-7.244,12.266-9.521,18.725
		c8.004,25.708,14.49,39.727,20.768,45.61c0.914,0.182,31.854-8.109,43.1-2.957c4.734,9.155,29.318,56.152,57.693,110.344
		l42.889,32.898l-22.125,6.802c33.607,64.205,67.137,128.358,76.291,146.142h-41.137c-4.787,0-48.543,4.446-61.777,5.911
		c-13.154,1.486-44.748,5.021-60.516,8.891c-3.271,0.812-29.162,10.62-37.164,14.045c-7.975,3.482-33.713,13.574-35.963,16.292
		c-2.43,2.984-2.873,10.672-0.887,14.62c1.908,3.714,42.682,55.445,50.059,60.882c5.619,4.16,15.664,2.878,23.955,0
		c7.428-2.584,39.961-18.489,49.143-22.934h63.316c-1.125,20.397-3.01,39.283-6.068,56.986
		c-5.441,31.385-12.268,53.147-10.699,65.385c0.262,1.935,11.537,13.915,19.172,21.758c7.662,7.849,21.629,18.778,22.57,19.718
		c4.314,4.306,21.002,2.582,27.252-0.101c0,0,10.748-8.843,14.279-14.358c3.531-5.544,10.695-27.329,13.492-40.931
		c0.475-2.299,0.865-28.243-9.699-42.89c-5.439-7.534-13.602-17.158-18.52-40.879l-0.023-24.688h49.115
		c4.576,1.335,7.506,3.113,9.387,4.471c8.578,0.761,12.818-0.783,17.707-1.619c5.832-1.021,20.793-6.196,24.479-7.947
		c0.969-0.475,2.746-1.442,4.891-2.699l-68.912-44.038l94.15,27.72c5.178-3.921,10.879-8.891,13.99-13.939
		c3.168-5.123,2.957-9.57,2.227-14.278c-0.523-3.189-5.074-10.252-11.404-14.696c-5.65-3.976-13.23-8.058-18.283-10.2
		c-5.566-2.353-12.604-4.629-16.342-5.599c-7.637-1.988-10.568-3.453-16.322-5.623c-7.01-2.641-10.145-5.777-14.773-12.813
		c-4.004-6.119-102.441-184.982-163.379-295.663c7.346-0.549,14.67-1.072,18.83-1.359c10.303-0.785,69.098-3.478,78.904-3.373
		c9.807,0.08,154.094-0.054,163.455-0.026c9.34,0.052,16.713-9.337,18.203-11.035c1.49-1.703,6.695-10.359,8.057-14.02
		C443.41,193.313,443.23,184.524,441.453,177.228z M65.605,217.322c-5.254,2.771-9.414,2.351-12.551-1.334
		c-3.141-3.663-3.115-8.108,0.023-13.339c2.016-2.565,4.369-3.531,7.09-2.851c2.639,0.68,4.918,2.092,6.824,4.316
		c1.855,2.169,2.824,4.552,2.848,7.032C69.867,213.685,68.457,215.724,65.605,217.322z M110.746,173.199
		c-1.543,4.657-4.105,8.554-7.768,11.691c-3.688,3.14-7.949,5.073-12.762,5.858c-4.863,0.733-8.762-0.6-11.666-4.027
		c-3.346-3.896-4.262-8.187-2.744-12.866c1.492-4.657,4.078-8.554,7.766-11.692c3.637-3.137,7.898-5.073,12.762-5.805
		c4.84-0.786,8.922,0.785,12.27,4.706C111.531,164.489,112.238,168.545,110.746,173.199z M68.56,582.47
		c-1.619,1.518-5.621,4.237-12.004,8.158c-6.381,3.976-10.799,6.41-13.205,7.401c0-0.991-2.383-7.137-2.383-8.131
		c0-0.498,2.383-6.409,2.383-7.429c1.621-1.438,5.619-4.052,11.979-7.768c6.406-3.688,10.828-5.991,13.23-7.009
		c0,1.018,2.381,6.405,2.381,7.402C70.941,577.057,69.347,581.504,68.56,582.47z M134.675,607.026
		c-5.176,1.989-10.803,2.984-16.789,2.984c-5.961,0-11.561-0.995-16.766-2.984c-5.203-1.963-7.793-4.941-7.793-8.891
		c0-3.425,2.59-6.146,7.793-8.134c5.205-1.963,10.805-2.927,16.766-2.927c5.986,0,11.613,0.964,16.789,2.927
		c5.205,1.988,7.797,4.709,7.797,8.134C142.472,602.085,139.88,605.063,134.675,607.026z M245.775,739.754
		c3.635,0.866,4.469,3.479,2.432,7.793c-2.041,4.342-5.1,8.553-9.18,12.656c-4.055,4.112-8.291,7.193-12.58,9.261
		c-4.287,2.04-6.93,1.257-7.844-2.349c-1.832-6.386,0.625-12.949,7.426-19.802S239.421,737.949,245.775,739.754z M209.423,114.459
		c-4.994,3.217-9.313,2.983-12.973-0.627c-3.635-3.635-4.105-8.186-1.385-13.625c1.801-2.745,4.184-3.792,7.139-3.112
		c2.957,0.68,5.465,2.04,7.504,4.079c2.066,2.04,3.191,4.317,3.426,6.801C213.396,110.461,212.144,112.605,209.423,114.459z
		 M384.57,170.82c-2.641,1.804-5.727,3.741-9.154,5.702c-3.504,2.013-6.904,3.844-10.305,5.57c-3.348,1.726-5.939,2.904-7.74,3.558
		c-3.373,0.468-6.615,0.782-9.781,0.966c-2.539,0.42-4.813,0.654-6.828,0.786l-5.387,0.287c-4.027,0.234-9.18,0.393-15.506,0.469
		c-6.357,0.054-10.279,0.16-11.9,0.238c-2.172-0.445-5.887-1.598-11.117-3.557c-5.18-1.908-8.422-3.244-9.729-4.026
		c3.715,0.626,11.77,0.6,24.219-0.08c12.447-0.705,20.816-1.596,25.158-2.693c1.676-0.339,4.262-1.385,7.611-3.114
		c3.375-1.7,6.615-3.608,9.754-5.727c3.139-2.118,6.014-4.078,8.682-5.91c2.564-1.805,4.057-3.138,4.369-3.976
		c4.002-0.235,8.789,0.63,14.41,2.512c5.572,1.936,8.16,3.584,7.662,4.997C388.65,167.681,387.158,169.015,384.57,170.82z"/>
</g>
<g id="Layer_1">
</g>
</svg>
