<?xml version="1.0" encoding="iso-8859-1"?>
<!-- Generator: Adobe Illustrator 16.0.0, SVG Export Plug-In . SVG Version: 6.00 Build 0)  -->
<!DOCTYPE svg PUBLIC "-//W3C//DTD SVG 1.1//EN" "http://www.w3.org/Graphics/SVG/1.1/DTD/svg11.dtd">
<svg version="1.1" xmlns="http://www.w3.org/2000/svg" xmlns:xlink="http://www.w3.org/1999/xlink" x="0px" y="0px" width="1000px"
	 height="1000px" viewBox="0 0 1000 1000" style="enable-background:new 0 0 1000 1000;" xml:space="preserve">
<g id="Glyph_x5F_EQUAL">
	<path style="fill:#272525;" d="M472.107,466.273c-2.043-8.607-9.443-21.237-24.402-30.938c-11.559-4.448-28.689-9.885-47.859-9.808
		v24.896L98.955,435.334c-27.775-1.752-31.723-8.029-63.082-8.737c-12.529-0.264-29.5,6.513-29.5,6.513s-2.381,41.92,3.295,62.269
		c4.213,15.089,18.1,40.302,18.619,40.302c0,0,19.561,8.918,38.262,8.918c5.18,0,39.283-8.918,45.51-8.918
		c96.686,0,239.797,0,254.57,0c19.172,0,69.855-7.191,77.754-11.562c9.287-5.125,21.732-19.924,26.131-26.936
		C476.054,488.314,474.123,474.875,472.107,466.273z M191.718,491.64c-4.943,1.751-10.277,2.641-15.953,2.641
		c-5.701,0-11.012-0.89-15.953-2.641c-4.941-1.75-7.426-4.656-7.426-8.683s2.484-7.036,7.426-9.047
		c4.941-2.016,10.252-3.038,15.953-3.038c5.676,0,11.01,1.022,15.953,3.038c4.945,2.012,7.402,5.02,7.402,9.047
		S196.664,489.89,191.718,491.64z M110.253,469.961c-4.947,1.778-10.438,2.637-16.531,2.637c-6.066,0-11.588-0.859-16.529-2.637
		c-4.939-1.726-7.426-4.632-7.426-8.66c0-4.027,2.486-7.036,7.426-9.046c4.941-2.015,10.463-3.033,16.529-3.033
		c6.094,0,11.584,1.018,16.531,3.033c4.941,2.01,7.4,5.019,7.4,9.046C117.654,465.329,115.195,468.235,110.253,469.961z
		 M431.937,480.239c1.805,3.034,3.451,5.723,4.547,8.712c2.719,7.266,0.266,12.339-2.484,15.167
		c-2.773,2.822-17.338,9.228-22.57,10.823c-7.658,2.355-19.979,4.974-27.563,5.626c-1.598-0.943-2.879-2.065-3.949-4.84
		c-1.232-3.136-0.234-4.497,1.123-5.886c2.826-1.803,12.109-5.517,15.563-6.955c5.127-2.146,11.033-4.602,16.318-7.559
		c3.818-2.927,6.197-8.056,7.479-10.514c1.65-3.14,3.063-6.486,5.363-11.875C428.433,475.163,430.939,478.589,431.937,480.239z
		 M438.839,303.807c2.613-12.813,1.646-31.172,1.018-31.172c0,0-0.678-8.342-6.275-13.965c-12.211,7.843-75.529,8.474-86.408,8.474
		c-10.883,0-237.969,0-237.969,0c-2.275,0-6.615,1.385-13.076,4.158c-6.459,2.772-13.285,6.303-20.531,10.563
		c-7.219,4.29-14.252,8.684-21.078,13.208c-6.826,4.523-11.768,8.292-14.801,11.325c-1.701,2.745-6.828,16.606-6.41,19.458
		c1.73,11.453,12.373,36.353,30.342,41.634c0,0,14.85,8.134,31.982,6.488c30.682-2.931,30.441-6.488,58.373-6.488
		c13.623,0,207.367,0,207.367,0s42.764,0.341,51.602-7.739C423.722,349.892,433.605,329.361,438.839,303.807z M228.462,285.71
		v15.091l-69.541-15.091H228.462z M388.021,326.535l-19.324-12.813l49.166-32.536c0,1.439-0.809,3.742-2.432,6.931
		c-1.59,3.216-3.32,6.513-5.254,9.887c-1.83,3.373-3.613,6.668-5.205,9.859c-1.625,3.188-2.957,5.153-4.029,5.859
		c-1.621,1.099-4.027,3.399-7.271,6.957C390.453,324.234,388.572,326.169,388.021,326.535z"/>
</g>
<g id="Layer_1">
</g>
</svg>
