<?xml version="1.0" encoding="iso-8859-1"?>
<!-- Generator: Adobe Illustrator 16.0.0, SVG Export Plug-In . SVG Version: 6.00 Build 0)  -->
<!DOCTYPE svg PUBLIC "-//W3C//DTD SVG 1.1//EN" "http://www.w3.org/Graphics/SVG/1.1/DTD/svg11.dtd">
<svg version="1.1" xmlns="http://www.w3.org/2000/svg" xmlns:xlink="http://www.w3.org/1999/xlink" x="0px" y="0px" width="1000px"
	 height="1000px" viewBox="0 0 1000 1000" style="enable-background:new 0 0 1000 1000;" xml:space="preserve">
<g id="Glyph_x5F_R_x5F_ANG_x5F_BRACKET">
	<path style="fill:#272525;" d="M335.015,339.195c-6.693-11.3-12.918-17.628-12.918-17.628c-1.934-1.309-5.625-4.526-11.088-9.65
		c-5.439-5.153-8.814-8.684-10.123-10.617c-8.994-11.561-144.6-193.771-146.533-197.641c-0.625-1.281-7.873-21.682-10.121-28.427
		c-2.25-6.749-4.186-13.026-5.779-18.805c-1.6-5.782-3.064-9.649-4.348-11.56c-1.93-3.245-5.15-6.93-9.646-11.088
		c-4.498-4.186-8.998-8.371-13.492-12.526c-4.502-4.211-8.504-7.717-12.061-10.621c-3.529-2.901-5.938-4.341-7.217-4.341
		c-3.871,0-10.121,1.44-18.811,4.341c-8.676,2.904-17.361,6.409-26.016,10.621c-8.684,4.156-16.896,8.34-24.584,12.526
		C14.562,37.937,9.72,41.623,7.82,44.867c0,1.28-1.943,8.997-1.943,9.623c0,0.657,1.943,8.682,1.943,10.621
		c1.9,2.563,6.406,9.154,13.488,19.77c7.063,10.593,14.932,22.153,23.619,34.704c8.682,12.527,42.26,57.356,46.762,63.135
		c1.906,2.564,42.416,59.784,42.416,59.784l32.855,47.417l-0.158-78.142h25.943l0.182,115.645l45.299,65.386
		c0,1.28,1.934,23.877,1.934,27.094c0,1.908-1.934,17.99-1.934,19.272c0,0.628-17.686,23.622-24.117,32.302
		c-6.408,8.681-33.395,41.611-38.543,46.759c-2.572,3.218-7.563,9.313-14.965,18.309c-7.373,8.997-16.059,19.613-26.018,31.826
		c-9.967,12.187-20.717,25.215-32.305,39.048c-11.557,13.813-22.305,26.652-32.297,38.548
		c-9.941,11.901-38.395,46.452-40.957,49.667c-1.938,1.937-10.775,16.714-13.027,21.212c-2.244,4.496-8.178,17.024-8.178,18.305
		c0,0.629,5.934,13.812,8.178,18.333c2.252,4.474,11.09,19.272,13.027,21.212c1.277,1.909,18.645,17.967,21.213,19.273H70.48
		c1.904-0.653,16.707-6.745,21.209-8.683c4.496-1.934,19.277-9.961,21.213-10.591c3.217-1.939,21.203-18.65,21.203-19.304
		c0.633-1.908-0.154-31.33-0.492-39.986c-0.314-8.685-0.469-16.894-0.469-24.582c0-7.718,0.34-12.554,0.961-14.466
		c0-1.304,5.941-13.835,8.195-18.33c2.242-4.499,10.77-20.243,12.053-22.178c1.934-3.217,6.746-9.153,14.457-17.838
		c7.719-8.657,74.566-85.652,79.063-90.122c4.502-4.523,21.211-20.895,25.055-24.112c3.871-3.22,36.014-32.564,36.014-32.564
		c10.588-18.072,14.932-35.41,20.084-54.946C332.083,404.684,337.974,362.626,335.015,339.195z M108.007,69.607
		c-2.563,4.159-6.408,6.25-11.561,6.25c-5.15,0-8.994-2.092-11.586-6.25c-2.561-4.185-3.842-8.683-3.842-13.493
		c0-4.838,1.281-9.337,3.842-13.495c2.592-4.186,6.436-6.276,11.586-6.276c5.152,0,8.998,2.09,11.561,6.276
		c2.586,4.158,3.871,8.657,3.871,13.495C111.878,60.925,110.593,65.423,108.007,69.607z M306.062,388.519l-18.854,16.032
		l-6.615-40.459l13.936-27.381L306.062,388.519z M125.375,622.955l56.357-85.623l51.057-17.03L125.375,622.955z M58.292,735.833
		c-2.902,4.183-6.906,6.273-12.057,6.273s-8.996-2.091-11.588-6.273c-2.563-4.188-3.846-8.842-3.846-13.967
		c0-5.154,1.283-9.808,3.846-13.993c2.592-4.184,6.438-6.249,11.588-6.249s9.154,2.065,12.057,6.249
		c2.875,4.186,4.311,8.839,4.311,13.993C62.603,726.991,61.167,731.646,58.292,735.833z M117.683,709.548
		c-2.563,1.593-5.309,2.407-8.184,2.407c-2.906,0-5.467-0.814-7.717-2.407c-2.25-1.62-3.061-3.714-2.402-6.274
		c1.277-5.783,4.652-8.685,10.119-8.685c5.463,0,9.146,2.901,11.092,8.685C121.216,705.834,120.273,707.928,117.683,709.548z
		 M131.39,133.158c1.648,4.578-0.393,7.64-6.096,9.102c-5.754,1.492-12.268,0.63-19.586-2.459
		c-7.324-3.138-13.762-7.06-19.254-11.821c-5.488-4.733-9.047-9.417-10.664-13.991c-1.602-4.629,0.471-7.611,6.193-9.101
		c5.705-1.465,12.244-0.653,19.514,2.485c7.324,3.113,13.73,7.034,19.275,11.795C126.265,123.901,129.841,128.558,131.39,133.158z"
		/>
</g>
<g id="Layer_1">
</g>
</svg>
