<?xml version="1.0" encoding="iso-8859-1"?>
<!-- Generator: Adobe Illustrator 16.0.0, SVG Export Plug-In . SVG Version: 6.00 Build 0)  -->
<!DOCTYPE svg PUBLIC "-//W3C//DTD SVG 1.1//EN" "http://www.w3.org/Graphics/SVG/1.1/DTD/svg11.dtd">
<svg version="1.1" xmlns="http://www.w3.org/2000/svg" xmlns:xlink="http://www.w3.org/1999/xlink" x="0px" y="0px" width="1000px"
	 height="1000px" viewBox="0 0 1000 1000" style="enable-background:new 0 0 1000 1000;" xml:space="preserve">
<g id="Glyph_x5F_L_x5F_PARENTHESIS">
	<path style="fill:#272525;" d="M306.373,708.736c-16.707-4.391-99.697-44.566-111.49-50.974
		c-11.795-6.407-8.365-3.741-16.186-7.789c-7.875-4.055-15.744-8.397-23.564-13.026c-6.355-3.716-12.27-7.22-17.939-10.566
		l-0.053-432.992c7.791-7.243,20.922-15.35,35.305-17.521c-27.564-6.487-19.561-24.009-2.484-30.837
		c5.756-2.3,9.23,15.877,13.074,18.073c7.348-3.844,13.129-6.904,15.355-8.133l72.336-43.99
		c20.947-12.868,26.182-11.402,35.541-13.287c13.027-12.134,18.883-79.294,10.1-83.898c-7.979-4.185-11.979-5.646-19.797-7.478
		c-0.551-0.131-6.752-1.753-9.705-1.964c-3.035-0.494-12.949-0.94-18.438-0.207c-1.912,0.26-13.469,2.118-16.477,2.718
		c-5.494,1.099-24.246,6.565-26.104,7.69c-0.914,0.366-12.369,6.669-15.115,9.022c-2.719,2.38-11.428,11.403-12.342,12.867
		l-62.797,47.443c0,0-35.201,31.671-88.58,50.421c-7.738,2.72-8.578,10.043-17.783,17.786c-8.918,7.506-23.146,11.715-23.146,11.715
		L6.005,370.526l43.229,92.058L5.98,421.863L5.876,665.741c0,0,10.432,23.018,27.459,30.363c12.266,5.283,36.902,7.22,48.438,13.939
		c51.311,29.923,110.496,64.391,114.889,66.665l55.207,23.421c7.537,1.408,19.254,2.563,29.322,0.939s18.148-3.087,26.385-12.934
		c6.486-7.742,14.438-62.136-0.809-79.296C306.638,708.815,306.503,708.762,306.373,708.736z M177.361,73.32
		c0.967-3.502,2.898-6.745,5.779-9.622c2.9-2.904,5.936-4.838,9.154-5.78c3.221-0.969,5.467-0.158,6.773,2.407
		c2.541,7.059,1.441,13.18-3.373,18.305c-4.84,5.152-9.809,6.122-14.961,2.904C177.519,79.597,176.396,76.879,177.361,73.32z
		 M54.626,271.667c1.279-6.041,3.188-7.952,5.781-5.755c2.559,1.647,4.652,4.917,6.244,9.861c1.602,4.943,2.436,10.148,2.436,15.612
		c0,5.492-0.834,10.827-2.436,16.032c-1.592,5.205-3.686,8.917-6.244,11.09c-2.594,1.646-4.502-0.524-5.781-6.565
		c-1.311-6.016-1.938-12.735-1.938-20.137C52.689,284.402,53.316,277.68,54.626,271.667z M47.853,664.851
		c-6.277-4.024-10.281-6.563-11.949-7.557c-0.789-0.866-1.412-2.719-1.836-5.571c-0.469-2.85-0.576-5.022-0.34-6.457l14.094,2.379
		l13.371,25.027C58.599,671.464,54.152,668.881,47.853,664.851z M94.191,481.65c-2.586,0.55-4.492-0.262-5.777-2.457
		c-1.307-2.197-1.934-4.524-1.934-6.983c0-2.483,0.627-4.656,1.934-6.59c1.285-1.91,3.191-2.302,5.777-1.23
		c5.783,0.572,8.688,3.007,8.688,7.4C102.878,476.185,99.974,479.479,94.191,481.65z M112.791,154.58
		c-3.189,2.198-8.426,3.293-15.773,3.293c-6.404,0-11.195-1.095-14.436-3.293c-3.189-2.197-4.813-4.656-4.813-7.376
		c0-2.745,1.623-5.31,4.813-7.662c3.24-2.379,8.031-3.557,14.436-3.557c7.348,0,12.584,1.178,15.773,3.557
		c3.244,2.353,4.84,4.917,4.84,7.662C117.63,149.923,116.035,152.382,112.791,154.58z M224.933,761.148
		c-4.813,5.491-10.461,6.616-16.865,3.398c-2.566-1.937-3.375-4.496-2.41-7.717c0.967-3.216,2.877-6.275,5.783-9.175
		c2.902-2.877,5.932-4.973,9.148-6.254c3.219-1.282,5.467-0.313,6.752,2.879C230.556,750.082,229.746,755.709,224.933,761.148z
		 M275.488,743.807c-2.592,4.184-6.117,6.254-10.617,6.254c-4.496,0-7.871-2.07-10.125-6.254c-2.248-4.186-3.367-8.998-3.367-14.46
		c0-5.464,1.119-10.279,3.367-14.465c2.254-4.182,5.629-6.273,10.125-6.273c4.5,0,8.025,2.092,10.617,6.273
		c2.563,4.186,3.846,9.001,3.846,14.465C279.333,734.809,278.05,739.621,275.488,743.807z"/>
</g>
<g id="Layer_1">
</g>
</svg>
