<?xml version="1.0" encoding="iso-8859-1"?>
<!-- Generator: Adobe Illustrator 16.0.0, SVG Export Plug-In . SVG Version: 6.00 Build 0)  -->
<!DOCTYPE svg PUBLIC "-//W3C//DTD SVG 1.1//EN" "http://www.w3.org/Graphics/SVG/1.1/DTD/svg11.dtd">
<svg version="1.1" xmlns="http://www.w3.org/2000/svg" xmlns:xlink="http://www.w3.org/1999/xlink" x="0px" y="0px" width="1000px"
	 height="1000px" viewBox="0 0 1000 1000" style="enable-background:new 0 0 1000 1000;" xml:space="preserve">
<g id="Num_x5F_5">
	<path style="fill:#272525;" d="M537.139,703.657c-2.405-7.723-4.758-7.803-8.646-9.759c-3.912-1.955-7.955-3.889-12.187-5.841
		c-4.231-1.959-8.458-3.916-12.662-5.843c-4.233-1.957-6.664-3.251-7.322-3.914L316.987,498.966
		c-12.348-12.981-28.104-29.396-47.247-49.201c-19.195-19.828-37.702-39.313-55.575-58.482
		c-17.872-19.166-33.286-35.586-46.292-49.228c-13.01-13.642-19.486-20.782-19.486-21.441V87.055
		c5.156-0.027,43.069,5.048,92.642,14.012c49.572,8.988,67.733,11.128,92.003,14.806c8.94,1.349,20.122,2.223,26.232,3.383
		c0.578-10.548-1.058-19.669,3.171-28.976c13.958-3.809,45.924-7.428,49.067-6.981c-14.805,5.079-32.148,32.998-35.321,44.417
		c12.451,3.066,45.952,11.553,50.895,13.008c5.845,2.328,58.641,2.143,72.255,1.217c12.534-4.337,32.282-23.824,37.621-57.557
		c3.99-25.196-0.316-31.385-13.985-51.238c-8.302-10.656-18.294-15.52-33.285-18.004c-9.753-1.64-34.051-1.535-35.083-1.585
		c0,0-18.376,2.749-38.442,5.392c-14.937,1.984-36.115,6.902-54.754,8.724c-14.514,1.428-56.791,0.558-97.77-1.795
		c-32.914-1.904-41.746-4.1-117.782-5.448c-3.331-0.922-6.691-1.797-10.046-2.617c-12.056-3.013-22.951-9.225-34.559-13.563
		c-0.844-0.767-1.794-1.692-2.563-2.325c-1.32,0-2.616-0.344-3.915-0.981c-1.293,0-2.273-0.156-2.904-0.5
		c-0.663-0.317-1.639-0.476-2.934-0.476c-0.662,0-1.456,0.159-2.432,0.476c-0.98,0.345-2.12,0.5-3.413,0.5
		c-1.955,0.637-3.57,0.981-4.866,0.981c-3.276,1.294-9.755,4.36-19.509,9.251c-9.732,4.865-16.235,8.277-19.487,10.231
		C35.97,24,31.741,27.726,26.558,32.617c-5.208,4.868-7.799,7.959-7.799,9.254v39.95c0,16.92,0.476,42.406,1.456,76.511
		c0.975,34.106,2.112,72.785,3.409,115.988c1.296,43.226,1.347,88.62,4.39,135.971c0.871,13.325,2.354,13.934,9.544,28.315
		c2.537,5.075,4.413,6.743,8.01,12.585c3.57,5.842,7.456,11.868,11.687,18.03c4.227,6.189,8.299,12.031,12.187,17.556
		c3.887,5.5,6.821,9.257,8.777,11.21c1.296,0.634,2.591,0.95,3.887,0.95c1.294,0.666,2.935,0.984,4.892,0.984
		c2.561,0,4.865-0.318,6.819-0.984c1.298,0,2.907-0.316,4.865-0.95c1.298-0.66,3.888-1.797,7.799-3.406
		c3.887-1.643,7.933-3.417,12.188-5.37c4.204-1.958,8.277-3.912,12.163-5.842c3.91-1.957,6.5-3.57,7.799-4.892
		c3.253-1.93,7.325-5.34,12.188-10.231c4.865-4.867,7.324-9.227,7.324-9.227c2.59,3.25,7.798,8.618,15.574,16.072
		c7.799,7.484,15.916,15.44,24.375,23.873c8.435,8.463,16.392,16.581,23.874,24.377c7.455,7.799,12.821,13.011,16.076,15.603
		c2.59,3.246,8.614,9.913,18.031,19.958c9.412,10.101,20.147,21.945,32.179,35.588c11.602,13.189,24.187,27.337,37.645,42.354
		c8.617,11.393,16.236,20.909,19.484,34.689c-0.316,7.799-1.874,15.17-4.624,19.956c-3.122,5.478-7.007,9.89-11.343,13.563
		c-13.085,3.675-32.968,5.155-49.044,3.467c-60.544-7.538-85.793-11.157-146.788-15.651c-45.341-3.302-92.641-7.193-112.944-5.5
		c-5.286,5.077-10.996,12.689-14.595,30.67c9.651-11.633,27.813-21.44,31.728-20.304c6.556,1.901,8.883,4.864,8.462,9.728
		c-0.556,6.318-6.982,12.689-17.557,18.188c-3.915,2.037-11.766-0.658-14.516-0.95c-1.929,10.341-3.726,21.045-4.517,31.912
		c-0.211,2.67,0.208,26.572,3.167,39.896c4.233,1.265,15.442,1.688,25.012,1.265c79.979-3.515,150.275-12.687,234.906-13.107
		c84.631-0.423,183.458,8.671,204.055,12.712c0.265,0.055,0.527,0.028,0.819,0.079c0.583,0.372,1.189,0.716,2.168,0.716
		c1.295,0.661,3.566,0.978,6.824,0.978c2.588,0,4.518-0.316,5.84-0.978c1.297,0,2.59-0.316,3.89-0.948
		c2.588-1.324,7.796-3.915,15.595-7.802c7.797-3.914,17.582-7.35,22.471-13.007C538.619,771.523,540.1,713.172,537.139,703.657z
		 M58.151,97.524c8.701,0,9.519,122.436,0.819,122.436C50.273,219.96,49.453,97.524,58.151,97.524z M66.057,384.17
		c-15.573,0-14.619-63.081,0.952-63.081C82.581,321.09,81.628,384.17,66.057,384.17z M113.751,452.91
		c-9.594-0.13-23.527-17.527-25.512-20.382c-5.025-7.218-1.35-17.847,5.763-22.023c8.038-4.708,17.026-1.428,22.049,5.763
		c3.729,5.365,5.526,13.855,6.744,20.252C124.486,445.405,122.372,453.02,113.751,452.91z M392.626,766.208l-79.524-10.149
		l108.288-8.463L392.626,766.208z M473.61,756.346c-8.2,3.226-17.689-3.461-19.833-11.233c-2.509-9.15,23.083-24.933,28.848-27.788
		c7.876-3.889,17.368-2.193,22.048,5.766C508.88,730.278,482.198,752.966,473.61,756.346z"/>
</g>
<g id="Layer_1">
</g>
</svg>
