<?xml version="1.0" encoding="iso-8859-1"?>
<!-- Generator: Adobe Illustrator 16.0.0, SVG Export Plug-In . SVG Version: 6.00 Build 0)  -->
<!DOCTYPE svg PUBLIC "-//W3C//DTD SVG 1.1//EN" "http://www.w3.org/Graphics/SVG/1.1/DTD/svg11.dtd">
<svg version="1.1" xmlns="http://www.w3.org/2000/svg" xmlns:xlink="http://www.w3.org/1999/xlink" x="0px" y="0px" width="1000px"
	 height="1000px" viewBox="0 0 1000 1000" style="enable-background:new 0 0 1000 1000;" xml:space="preserve">
<g id="Num_x5F_7">
	<path style="fill:#272525;" d="M546.523,48.403c-1.61-3.941-3.067-6.478-7.953-11.343c-4.867-4.89-9.575-6.847-11.529-8.17
		c-6.664-2.829-24.668-8.196-32.706-9.227c-14.935-1.956-31.038-4.072-48.247-6.347c-17.211-2.272-33.285-4.387-48.226-6.344
		c-14.965-1.928-24.375-3.254-28.264-3.887h-38.017c-1.323,0.633-4.865,1.958-10.733,3.887c-5.846,1.958-11.847,4.072-18.035,6.344
		c-6.156,2.274-12.159,4.391-18.028,6.347c-5.843,1.931-9.413,2.908-10.708,2.908c-1.957,0-6.664-0.977-14.146-2.908
		c-7.454-1.956-15.569-4.232-24.349-6.82c-8.776-2.619-16.733-4.893-23.871-6.822c-7.167-1.956-11.714-2.936-13.644-2.936
		c-1.326,0-4.733-0.157-10.261-0.475c-5.526-0.343-12.028-0.504-19.482-0.504c-7.485,0-14.783-0.157-21.921-0.476
		c-7.166-0.345-13.007-0.501-17.552-0.501c-4.547,0-10.392,0.156-17.531,0.501C104.16,1.95,97.178,2.107,90.356,2.107
		c-6.822,0-12.848,0.161-18.031,0.504c-5.208,0.317-8.143,0.475-8.778,0.475c-1.295,0-3.572,0.792-6.822,2.432
		c-3.251,1.614-6.819,3.412-10.707,5.368c-3.914,1.958-7.8,4.045-11.712,6.318c-3.888,2.276-6.821,4.073-8.75,5.368
		c-3.276,1.955-7.322,5.208-12.19,9.755c-4.891,4.546-7.324,7.457-7.324,8.778L53.315,143c0.634,0,1.611,0.318,2.911,0.978
		c1.291,0,2.112,0.16,2.456,0.478c0.315,0.316,0.793,0.5,1.458,0.5c1.293,0,3.25-0.343,5.84-0.978
		c2.593-0.659,4.545-0.978,5.843-0.978c2.592-0.661,6.662-1.797,12.19-3.412c5.52-1.639,11.369-3.41,17.552-5.364
		c6.161-1.96,11.847-4.075,17.053-6.32c5.186-2.302,8.778-3.756,10.708-4.39c0,0,276.655,0.133,312.055,0.133
		c-12.664,23.053-27.125,49.202-43.358,78.442c-16.233,29.241-33.47,59.804-51.661,91.634c-18.193,31.834-35.4,62.054-51.662,90.635
		c-4.361,7.691-8.591,15.121-12.715,22.418c0,17.823-0.134,47.433-0.134,55.257c-5.102,0-18.824,0.186-31.224,0.186
		c-12.877,22.868-22.552,39.501-29.03,49.809c-5.181,9.754-12.003,22.104-20.463,37.041c-8.433,14.964-17.873,30.011-27.601,43.542
		c-10.232,14.253-14.171,19.461-21.787,29.828c-7.085,9.621-13.11,14.802-20.727,21.785c-7.825,7.19-17.976,15.228-24.112,20.091
		c-6.318,5.021-19.593,13.878-27.072,19.881c-4.972,3.994-8.674,9.942-12.267,17.981c10.442,0.792,30.297,7.608,35.928,13.956
		c11.263,12.691-7.005,20.887-18.346,20.887c-4.366,0-14.094,0.851-25.224-2.591c-1.297,0.768-2.857,1.428-4.016,2.248
		c-3.23,2.303-5.501,4.073-6.826,5.368c0,1.295-0.314,2.592-0.952,3.889c0,1.318-0.155,2.298-0.501,2.93
		c-0.315,0.661-0.475,1.643-0.475,2.938c0,0.633,0.16,1.293,0.475,1.927c0.346,0.663,0.501,1.643,0.501,2.937
		c0.638,1.296,0.952,2.591,0.952,3.886l19.513,19.514c3.252,1.93,9.596,5.34,19.008,10.23c9.414,4.864,15.756,7.957,18.984,9.251
		h30.935c9.145-0.498,28.79-0.607,35.373-1.556c7.402-1.059,19.247-2.539,21.441-6.398c5.157-9.121,7.746-17.082,11.555-31.886
		c3.912-15.226,8.116-33.894,12.134-53.009c3.383-16.074,6.612-29.48,10.155-42.856c4.095-15.52,6.766-18.904,12.532-33.258
		c-10.791,3.222-18.086,5.18-27.262,7.877c9.203-8.857,21.893-19.409,27.1-24.483c3.069-4.759,11.58-23.556,18.216-36.984
		c6.638-13.435,9.598-20.31,20.04-38.655c10.049-17.631,20.282-34.107,31.013-53.589c10.71-19.487,19.328-35.722,25.804-48.728
		c0.66-1.297,1.797-4.549,3.414-9.757c1.635-5.179,34.606-66.282,34.606-66.282c1.956-3.887,5.709-10.389,11.209-19.484
		c5.528-9.097,11.368-18.852,17.555-29.241c6.162-10.392,12.03-19.99,17.531-28.74c5.524-8.778,9.253-14.779,11.208-18.029
		c1.321-1.958,4.39-5.367,9.254-10.232c4.891-4.89,8.301-7.959,10.23-9.28c0,0,95.657-86.984,96.979-95.021
		c1.373-8.354,4.755-43.677,4.545-57.002C551.946,79.626,548.138,52.341,546.523,48.403z M59.713,41.077l74.452-20.728
		l-9.305,20.728H59.713z M328.753,56.307c-14.856,0.45-34.501,0.531-37.227-9.306c-2.405-8.752,27.496-9.307,42.727-10.999
		c9.622-1.083,64.72,0.054,64.72,8.886C398.974,55.356,355.825,55.459,328.753,56.307z M437.918,227.788
		c-10.498-2.673,3.092-57.742,13.565-55.1C461.974,175.36,448.415,230.457,437.918,227.788z M519.585,156.298
		c-2.272,3.886-6.001,5.842-11.21,5.842c-4.548,0-7.958-1.956-10.23-5.842c-2.272-3.915-3.408-8.301-3.408-13.168
		c0-4.866,1.136-9.251,3.408-13.165c2.272-3.887,5.683-5.844,10.23-5.844c5.209,0,8.938,1.958,11.21,5.844
		c2.273,3.914,3.409,8.299,3.409,13.165C522.994,147.997,521.858,152.384,519.585,156.298z"/>
</g>
<g id="Layer_1">
</g>
</svg>
