<?xml version="1.0" encoding="iso-8859-1"?>
<!-- Generator: Adobe Illustrator 16.0.0, SVG Export Plug-In . SVG Version: 6.00 Build 0)  -->
<!DOCTYPE svg PUBLIC "-//W3C//DTD SVG 1.1//EN" "http://www.w3.org/Graphics/SVG/1.1/DTD/svg11.dtd">
<svg version="1.1" xmlns="http://www.w3.org/2000/svg" xmlns:xlink="http://www.w3.org/1999/xlink" x="0px" y="0px" width="1000px"
	 height="1000px" viewBox="0 0 1000 1000" style="enable-background:new 0 0 1000 1000;" xml:space="preserve">
<g id="Num_x5F_8">
	<path style="fill:#272525;" d="M512.521,19.925c-4.917-2.166-10.441-4.177-16.653-6.105c-6.161-1.904-11.795-3.516-16.923-4.813
		c-5.076-1.294-8.804-2.115-11.179-2.483c-0.902-0.32-5.027-0.557-12.297-0.767c-7.299-0.214-15.677-0.424-25.17-0.713
		c-9.465-0.267-18.954-0.505-28.422-0.795c-9.491-0.264-17.158-0.477-22.973-0.634c-17.132,0.103-39.051,0.291-65.779,0.554
		c-26.708,0.263-52.639,0.343-77.809,0.212c-25.17-0.106-46.798-0.079-64.961,0.157c-18.14,0.214-27.499,0.45-28.026,0.715
		L94.239,29.288c-5,2.486-6.927,4.653-9.492,8.434c-2.59,3.806-6.979,14.517-8.226,22.391l-17.79-29
		c-2.01,0.236-4.865,1.084-8.646,2.562c-3.728,1.509-7.611,3.07-11.659,4.655c-3.992,1.638-7.88,3.198-11.633,4.708
		c-3.728,1.48-6.423,2.615-8.087,3.463c0,0-4.839,15.993-6.03,23.239C11.672,75.74,10.615,84.2,9.688,89.672
		c-0.979,5.475-1.611,10.816-2.04,15.996c-0.368,5.209-0.685,9.969-0.894,14.303c-0.211,4.336,0.025,7.111,0.766,8.276
		l176.847,288.682c-0.74,2.167-1.374,4.204-1.85,5.71c-1.957,6.266-4.31,12.296-5.949,15.468
		c-1.852,3.991-5.234,10.493-10.125,19.484c-4.892,8.935-10.047,18.666-15.495,29.082c-5.446,10.391-10.468,20.04-15.067,28.897
		c-4.628,8.835-8.064,14.967-10.259,18.376c-3.674,5.687-9.493,14.934-17.425,27.733c-7.903,12.799-17.023,27.178-27.335,43.123
		c-10.285,15.915-21.046,32.6-32.204,50.126c-11.129,17.479-21.865,34.186-32.175,50.125c-3.651,5.608-7.084,10.95-10.417,16.129
		c-0.766,7.642,16.975,30.431,28.952,45.134c8.908,10.917,24.743,27.44,36.458,29.291c6.716,0.188,13.457,0.344,20.172,0.557
		c9.491,0.265,17.158,0.478,22.949,0.633c17.158-0.102,39.078-0.289,65.802-0.551c26.708-0.27,52.641-0.347,77.813-0.215
		c25.145,0.106,46.794,0.056,64.959-0.132c18.112-0.237,27.469-0.477,28.026-0.741c0,0,77.569-5.313,82.222-5.341
		c4.654,0,66.178-38.045,65.781-45.366c-0.291-5.845-2.565-16.445-10.313-19.143c-5.025-1.721-11.974-6.846-11.208-10.312
		c0-2.325,0-5.581-0.105-9.783c-0.027-4.205-0.266-8.669-0.714-13.479c-0.397-4.789-0.899-9.363-1.43-13.699
		c-0.499-4.39-0.845-7.272-1.03-8.726c-8.119-14.408-20.912-37.036-38.388-67.948c-17.478-30.904-37.226-65.436-59.223-103.69
		c-8.591-14.962-15.043-26.358-25.487-44.176l-39.971-65.279c-0.716-1.19-0.374-5.025,1.028-11.474
		c1.427-6.478,2.936-11.29,4.602-14.435c1.848-3.992,5.233-10.498,10.098-19.486c4.917-8.938,10.072-18.666,15.517-29.082
		c5.448-10.393,10.473-20.041,15.071-28.897c4.626-8.804,8.038-14.965,10.26-18.401c3.674-5.659,9.49-14.913,17.396-27.735
		c7.932-12.771,17.052-27.151,27.364-43.096c10.313-15.916,21.046-32.597,32.175-50.125c11.16-17.479,21.894-34.186,32.205-50.129
		c10.312-15.917,19.509-30.139,27.6-42.646c8.115-12.504,14.276-21.731,18.506-27.707C520.955,23.787,517.441,22.069,512.521,19.925
		z M173.818,469.381c-0.504-4.361,0.741-7.295,3.676-8.751c3.356-1.69,6.848-1.137,10.469,1.667
		c3.649,2.803,6.795,6.422,9.519,10.84c2.697,4.413,4.493,8.884,5.367,13.483c0.872,4.522-0.372,7.669-3.703,9.333
		c-2.936,1.481-6.425,0.715-10.441-2.276c-4.045-2.983-7.38-6.689-10.099-11.102C175.908,478.135,174.292,473.742,173.818,469.381z
		 M342.95,675.868c5.365,18.665-9.784,26.913-18.852,31.433c-9.041,4.525-21.443,6.291-40.741,5.189
		c-19.3-1.142-23.718-1.564-45.398-3.021c-2.036-0.128-21.838-1.265-21.838-1.265l4.603,32.915l-40.296-35.639
		c0,0-7.558-0.611-11.762-0.954c-19.248-1.558-32.388-2.485-40.055-3.276c-13.352-2.935-30.776-19.433-23.767-29.69
		c6.871-10.098,120.796-187.184,120.796-187.184S333.166,659.846,342.95,675.868z M64.839,187.283
		c-0.184-4.916,2.221-8.62,7.164-11.078c4.389-2.192,8.992-2.008,13.801,0.583c4.814,2.616,8.674,6.266,11.555,10.973
		c2.908,4.705,4.283,9.595,4.15,14.647c-0.131,5.101-2.377,8.696-6.767,10.891c-4.942,2.459-9.704,2.353-14.228-0.396
		c-4.518-2.722-8.243-6.426-11.154-11.157C66.478,197.039,65.001,192.228,64.839,187.283z M339.403,629.918
		c-2.458-6.769-2.407-10.786,0.158-12.055c2.857-1.429,6.85,0.581,11.847,6.051c5.023,5.449,9.677,11.689,13.983,18.719
		c4.31,7.035,7.724,13.938,10.128,20.674c2.514,6.743,2.247,10.817-0.608,12.247c-2.538,1.292-6.346-0.767-11.369-6.243
		c-5.023-5.443-9.702-11.709-14.012-18.743C345.246,643.535,341.859,636.659,339.403,629.918z M429.533,729.802
		c-0.558,3.758-3.304,6.875-8.224,9.362c-4.946,2.457-9.464,2.959-13.589,1.529c-4.097-1.426-7.113-3.7-8.989-6.791
		c-1.904-3.092-2.431-6.585-1.584-10.496c0.817-3.913,3.698-7.115,8.644-9.599c4.915-2.459,9.332-2.882,13.166-1.295
		c3.834,1.556,6.69,3.911,8.593,6.98C429.426,722.586,430.115,726.021,429.533,729.802z M269.765,448.284
		c-0.925,5.183-2.776,10.313-5.553,15.363c-2.799,5.049-6.134,9.223-9.938,12.558c-3.862,3.306-6.636,3.699-8.382,1.138
		c-2.062-3.464-2.882-7.376-2.405-11.766c0.449-4.388,1.718-8.462,3.78-12.19c2.061-3.702,4.786-6.821,8.17-9.36
		c3.382-2.507,6.981-3.646,10.812-3.382C269.477,440.539,270.638,443.075,269.765,448.284z M151.586,248.489
		c1.268,5.657-0.027,9.438-3.811,11.342c-3.828,1.902-8.141,0.926-13.005-2.934c-4.84-3.834-8.964-8.515-12.348-14.093
		c-3.41-5.523-5.631-11.183-6.662-16.948c-1.003-5.734,0.343-9.566,4.18-11.473c3.779-1.903,8.036-0.874,12.636,3.066
		c4.626,3.966,8.67,8.725,12.054,14.252C148.04,237.253,150.366,242.858,151.586,248.489z M267.492,316.647L135.96,101.938
		l33.736-16.868c7.664,0.795,21.148,1.746,40.474,2.856c19.302,1.137,39.816,2.431,61.498,3.887
		c21.707,1.481,42.172,2.989,61.362,4.546c19.251,1.536,32.681,2.698,40.348,3.491c2.907,0.106,7.72,1.534,14.435,4.309
		c6.741,2.802,11.185,4.811,13.377,6.028L267.492,316.647z M337.686,37.432l-19.222-18.139l79.371,5.13L337.686,37.432z
		 M459.039,49.671c-0.051,4.626-1.982,7.904-5.814,9.836c-4.391,2.194-8.621,1.98-12.692-0.581
		c-4.126-2.565-7.51-6.056-10.208-10.499c-2.695-4.415-4.281-8.988-4.706-13.798c-0.422-4.788,1.588-8.276,5.975-10.472
		c3.806-1.902,8.01-1.505,12.56,1.217c4.545,2.75,8.166,6.292,10.893,10.732C457.718,40.524,459.064,45.043,459.039,49.671z"/>
</g>
<g id="Layer_1">
</g>
</svg>
