<?xml version="1.0" encoding="iso-8859-1"?>
<!-- Generator: Adobe Illustrator 16.0.0, SVG Export Plug-In . SVG Version: 6.00 Build 0)  -->
<!DOCTYPE svg PUBLIC "-//W3C//DTD SVG 1.1//EN" "http://www.w3.org/Graphics/SVG/1.1/DTD/svg11.dtd">
<svg version="1.1" xmlns="http://www.w3.org/2000/svg" xmlns:xlink="http://www.w3.org/1999/xlink" x="0px" y="0px" width="1000px"
	 height="1000px" viewBox="0 0 1000 1000" style="enable-background:new 0 0 1000 1000;" xml:space="preserve">
<g id="Num_x5F_6">
	<path style="fill:#272525;" d="M370.577,259.831c4.389,8.565,8.697,9.546,18.27,14.806c10.283,5.658,23.344,9.096,37.249,12.902
		c16.973,1.217,37.967,1.057,50.685,0.187c10.919-5.159,19.934-12.004,29.479-19.303c8.09-12.399,10.391-26.729,10.391-26.729
		l-0.317-19.907L89.692,5.147c-0.661,0-3.593-0.29-8.804-0.871c-5.232-0.557-8.484-0.819-9.783-0.819L65.24,3.563
		c-2.621,0.053-4.865,0.396-6.798,1.11c-2.617,0.053-5.232,0.45-7.798,1.138c-2.59,1.375-5.791,4.731-9.6,10.125
		c-3.83,5.392-7.796,11.448-11.919,18.136c-4.128,6.715-7.592,13.088-10.419,19.115c-2.828,6.03-4.576,10.683-5.157,14.012
		c-0.37,16.604-0.741,42.357-1.138,77.202c-0.391,34.873-0.871,74.37-1.426,118.55c-0.186,13.696-0.369,27.681-0.527,41.746
		c2.193-1.746,18.667-23.661,32.491-32.969c5.365,16.314,9.835,29.215,10.154,49.095c-7.191,6.241-35.243,19.331-43.122,25.726
		c-0.21,18.138-0.396,36.54-0.579,55.362c-0.504,48.463-1.035,94.784-1.59,138.963c-0.581,44.153-1.029,83.807-1.426,119.027
		c-0.399,35.189-0.452,61.098-0.16,77.701l0.346,20.912c0.659,1.298,3.65,4.731,8.96,10.287c5.315,5.55,8.622,8.644,9.939,9.279
		c1.986,1.954,4.946,4.071,8.912,6.342c3.912,2.25,8.038,4.312,12.292,6.242c4.286,1.903,8.04,3.673,11.345,5.286
		c3.252,1.59,5.236,2.381,5.893,2.381c1.297-0.028,5.869,0.211,13.697,0.767c7.796,0.499,13.667,0.766,17.583,0.69
		c3.251-0.056,8.302-0.505,15.12-1.272c6.849-0.795,10.868-1.188,12.186-1.214c5.847-1.403,12.958-4.178,21.368-8.331
		c8.379-4.126,16.787-8.435,25.166-12.875c8.382-4.468,15.097-9.412,21.285-12.823c6.822-3.778,10.127-7.589,22.5-12.108
		c15.729-5.765,43.436-17.927,43.436-17.927l266.184-146.069c-1.956-1.961-5.604-4.709-10.862-8.278
		c-5.292-3.544-11.053-7.614-17.294-12.133c-6.295-4.548-12.214-8.594-17.817-12.135c-5.58-3.546-18.086-11.156-25.62-14.99
		c-7.563-3.863-15.758-7.854-24.642-12.032c-8.063-3.78-15.52-7.588-22.499-11.369c-5.289,4.998-7.984,8.275-14.01,14.831
		c-5.503-12.397-8.146-17.762-12.798-28.262c-6.742-3.437-15.125-7.931-25.568-13.721c-16.762-9.329-34.369-19.139-52.769-29.451
		c-18.402-10.311-35.854-20.28-52.27-29.983c-16.445-9.647-41.773-30.617-49.099-36.988c-6.873-5.975-59.962-61.653-64.323-84.258
		c0,0-3.04-181.922-3.173-190.57c3.915-15.203,14.542-9.783,34.712-2.143c7.509,4.867,182.057,100.679,187.133,103.695
		C363.094,234.607,367.057,251.688,370.577,259.831z M386.412,192.466c2.221-4.334,5.926-6.583,11.13-6.663
		c4.55-0.08,8.2,2.009,10.84,6.292c2.698,4.256,4.099,9.044,4.178,14.354c0.081,5.315-1.161,10.155-3.673,14.517
		c-2.538,4.364-6.083,6.585-10.628,6.661c-5.209,0.081-8.99-2.006-11.344-6.265c-2.379-4.283-3.568-9.068-3.648-14.382
		C383.163,201.639,384.221,196.802,386.412,192.466z M103.441,487.414c1.214-4.334,3.491-5.866,6.74-4.601
		c5.925,2.566,8.965,8.968,9.15,19.275c0.157,10.257-2.644,17.134-8.461,20.541c-3.251,1.401-5.526-0.052-6.926-4.362
		c-1.347-4.281-2.087-9.411-2.196-15.386C101.646,496.932,102.199,491.752,103.441,487.414z M43.875,217.819
		c-6.029-23.819-8.145-47.983-8.036-58.666c0.103-11.923,2.377-44.127,9.359-65.279c4.624,5.396,8.062,8.778,12.716,15.627
		C59.37,129.065,50.036,196.378,43.875,217.819z M58.627,568.078c-2.352-4.283-3.568-8.91-3.649-13.882
		c-0.079-4.968,0.981-9.646,3.198-13.984c2.198-4.362,5.9-6.556,11.132-6.663c4.549-0.077,7.985,2.011,10.337,6.292
		c2.355,4.257,3.569,8.911,3.648,13.855c0.081,4.998-0.973,9.647-3.171,14.014c-2.222,4.361-5.605,6.556-10.15,6.659
		C64.76,574.451,60.982,572.361,58.627,568.078z M67.802,763.353l-0.345-20.91l94.045-1.641L67.802,763.353z M146.693,452.539
		c9.31-1.69,23.374,6.164,38.154,13.541c14.778,7.346,30.377,15.228,46.821,23.582c16.394,8.352,32.019,16.391,46.798,24.083
		c14.778,7.719,25.14,13.17,31.061,16.396c2.595,1.267,6.878,3.7,12.799,7.243c5.926,3.541,12.003,7.43,18.268,11.633
		c6.267,4.203,12.005,8.25,17.295,12.137c5.284,3.883,8.908,6.474,10.891,7.795L178.103,674.839l-39.074,0.688l-3.465-207.016
		C136.409,459.2,137.255,454.231,146.693,452.539z M154.787,73.174c-3.278,0.714-5.712-0.079-7.376-2.352
		c-1.667-2.301-2.538-4.944-2.591-7.906c-0.053-3.013,0.738-5.684,2.323-8.01c1.587-2.405,3.993-3.253,7.3-2.644
		c5.208,1.242,7.878,4.679,7.981,10.336C162.506,68.23,159.967,71.746,154.787,73.174z"/>
</g>
<g id="Layer_1">
</g>
</svg>
