<?xml version="1.0" encoding="iso-8859-1"?>
<!-- Generator: Adobe Illustrator 16.0.0, SVG Export Plug-In . SVG Version: 6.00 Build 0)  -->
<!DOCTYPE svg PUBLIC "-//W3C//DTD SVG 1.1//EN" "http://www.w3.org/Graphics/SVG/1.1/DTD/svg11.dtd">
<svg version="1.1" xmlns="http://www.w3.org/2000/svg" xmlns:xlink="http://www.w3.org/1999/xlink" x="0px" y="0px" width="1000px"
	 height="1000px" viewBox="0 0 1000 1000" style="enable-background:new 0 0 1000 1000;" xml:space="preserve">
<g id="Num_x5F_9">
	<path style="fill:#272525;" d="M527.964,33.331c-4.889-4.865-8.299-7.958-10.229-9.251L478.738,4.593
		c-2.593,0-5.179-0.317-7.8-0.978c-1.958,0-4.202-0.159-6.821-0.502c-2.588-0.319-4.521-0.475-5.84-0.475
		c-1.297,0-3.068,0.156-5.371,0.475c-2.269,0.343-4.387,0.502-6.318,0.502c-2.591,0.66-5.208,0.978-7.8,0.978
		c-1.954,0.634-4.89,1.798-8.778,3.409c-3.91,1.614-7.956,3.413-12.186,5.341c-4.204,1.958-25.46,9.889-30.328,12.004
		c-5.657,2.458-47.166,18.214-47.166,18.214c-0.634,0-9.252,3.758-25.801,11.209c-16.581,7.482-36.222,16.579-58.988,27.286
		c-22.737,10.734-46.295,21.626-70.639,32.651c-24.378,11.053-44.368,20.147-59.966,27.287c-5.182,2.616-12.001,6.025-20.463,10.255
		c-8.435,4.23-16.87,8.433-25.33,12.664c-8.436,4.23-15.912,7.959-22.42,11.213c-6.474,3.25-10.071,5.206-10.705,5.842
		c-1.957,1.293-4.893,3.568-8.779,6.821c-3.912,3.249-8.115,6.979-12.664,11.21c-4.547,4.229-8.46,8.272-11.711,12.187
		c-3.25,3.887-5.5,6.822-6.823,8.75c7.166,3.28,17.873,8.461,32.177,15.601c14.275,7.166,30.537,15.282,48.727,24.376
		c18.189,9.094,37.197,18.692,57.001,28.738c19.829,10.099,38.839,19.67,57.028,28.764c18.19,9.095,34.45,17.399,48.726,24.855
		c14.305,7.48,24.694,12.82,31.197,16.072c3.888,1.956,10.392,5.713,19.484,11.211c9.097,5.525,19.012,11.554,29.72,18.033
		c10.733,6.502,20.805,12.529,30.217,18.031c9.44,5.524,16.076,9.596,19.987,12.186c3.253,1.959,7.3,5.369,12.188,10.235
		c4.866,4.862,7.298,7.955,7.298,9.254v275.831l-19.486,19.485v20.462l77.971,38.999l7.797-7.799
		c2.592-1.957,5.053-4.049,7.298-6.347c2.302-2.273,4.071-4.047,5.367-5.366c1.954-2.594,4.547-6.002,7.801-10.234
		c3.254-4.203,6.502-8.433,9.755-12.662c3.252-4.229,6.184-7.957,8.747-11.208c2.623-3.254,3.917-5.184,3.917-5.845v-37.355
		l-51.027,0.207v-29.399h51.027V189.212l-43.653-28.501l43.653-0.263v-37.939c1.29-1.956,3.407-5.498,6.345-10.709
		c2.907-5.208,5.842-11.049,8.748-17.554c2.936-6.476,5.713-12.504,8.303-18.03c2.592-5.5,4.229-9.571,4.867-12.189V43.563
		C535.922,41.609,532.827,38.198,527.964,33.331z M123.535,195.163c-2.273,3.884-6,5.842-11.208,5.842
		c-4.548,0-8.116-1.958-10.738-5.842c-2.589-3.885-3.883-8.275-3.883-13.167c0-4.865,1.294-9.411,3.883-13.641
		c2.622-4.204,6.189-6.319,10.738-6.319c5.208,0,8.935,2.115,11.208,6.319c2.272,4.23,3.412,8.776,3.412,13.641
		C126.947,186.888,125.807,191.278,123.535,195.163z M420.758,516.892c-4.786-34.978,11.132-142.187,18.85-111.701
		C448.199,439.136,425.041,548.515,420.758,516.892z M399.792,270.434v88.91L163.932,241.429c1.321-1.955,4.233-5.524,8.78-10.733
		c4.549-5.182,8.115-8.433,10.708-9.757c6.503-3.886,18.033-10.549,34.607-19.96c16.578-9.411,34.287-19.327,53.115-29.741
		c18.85-10.366,36.723-20.12,53.618-29.241c16.894-9.072,28.579-15.574,35.083-19.487h39.948v127.617l46.081,20.147L399.792,270.434
		z"/>
</g>
<g id="Layer_1">
</g>
</svg>
