<?xml version="1.0" encoding="iso-8859-1"?>
<!-- Generator: Adobe Illustrator 16.0.0, SVG Export Plug-In . SVG Version: 6.00 Build 0)  -->
<!DOCTYPE svg PUBLIC "-//W3C//DTD SVG 1.1//EN" "http://www.w3.org/Graphics/SVG/1.1/DTD/svg11.dtd">
<svg version="1.1" xmlns="http://www.w3.org/2000/svg" xmlns:xlink="http://www.w3.org/1999/xlink" x="0px" y="0px" width="1000px"
	 height="1000px" viewBox="0 0 1000 1000" style="enable-background:new 0 0 1000 1000;" xml:space="preserve">
<g id="Num_x5F_3">
	<path style="fill:#272525;" d="M507.82,556.496c-17.686-12.08-41.243-19.243-70.274-26.331
		c-15.225-3.703-58.322-17.873-58.322-17.873c-4.969-1.956-10.392-4.1-16.207-6.42c-5.897-2.307-11.318-4.448-16.234-6.402
		c-4.97-1.957-8.354-3.462-10.156-4.546c-3.62-1.771-10.388-5.155-20.272-10.152c-9.916-4.972-20.522-10.313-31.782-15.997
		c-11.289-5.714-22.103-11.028-32.441-16.02c-10.39-4.999-17.82-8.541-22.313-10.685c-3.622-2.14-8.354-4.915-14.224-8.276
		c-5.844-3.379-11.712-6.764-17.552-10.149c-5.847-3.412-10.818-6.398-14.888-9.068c-4.047-2.671-6.055-4.177-6.055-4.549
		c0,0,27.257-18.032,30.091-19.46c0,0,176.132-103.825,190.092-111.516c22.842-12.666,31.221-6.664,45.103-11.237
		c12.347-4.097,20.174-7.561,30.274-18.375c8.669-9.333,13.456-23.954,13.456-23.954s-30.351-23.449-31.327-24.03
		c-1.882-1.668-6.242-5.052-13.01-10.102c-6.745-5.102-63.824-24.374-81.694-34.82c-17.848-10.442-78.313-44.391-99.412-59.616
		c-18.107-13.063-28.288-21.495-44.495-35.641c-15.863-13.882-20.228-20.728-27.946-24.694L127.897,6.628
		c8.938,29.058-16.046,1.006-28.418-3.065C87.13-0.508,70.291,1.131,62.673,9.273C52.522,20.166,51.148,30.239,43.716,38.67
		c-7.11,8.092-21.333,13.885-24.692,20.413c-6.052,11.713-2.483,31.566,5.21,40.821c27.733-2.985,33.472-2.855,55.995,2.989
		c16.445,4.307,98.14,43.49,109.75,49.729c11.629,6.268,8.248,3.649,15.938,7.617c7.748,3.939,15.494,8.169,23.214,12.689
		c7.72,4.495,14.94,8.751,21.706,12.666c6.77,3.964,11.609,6.792,14.515,8.46c6.743,3.936,14.728,8.88,23.877,14.806
		c9.173,5.92,11.153,6.899,18.848,12.82c7.745,5.922,12.241,9.862,18.032,14.091c5.817,4.231,8.222,6.637,7.244,7.194
		L233.259,307.71c-16.421,9.622-64.091,39.368-76.647,45.794c-14.011,7.136-25.015,12.027-39.288,17.474
		c-15.675,5.977-41.748,6.002-61.523,5.448c-17.767-0.503-29.663,1.082-48.513,5.391c-6.956,41.428,17.212,71.911,23.16,80.504
		c0,0,27.784,37.676,37.992,30.036c24.722-18.505,91.186-12.98,109.456-10.417c20.175,2.806,38.312,16.421,60.57,27.501
		c20.835,10.333,60.756,35.556,60.756,35.556c3.174,1.161,9.335,13.723,11.766,15.467c17.345,12.427-34.423,34.134-53.988,45.264
		c-5.578,3.199-68.288,36.218-70.458,37.413l-70.828,42.696c20.012-2.804,40.82-3.836,47.194,4.732
		c-11.531-0.397-39.554,26.121-68.956,8.354l-65.01,39.208c0,0.688-0.687,2.378-2.035,5.049c-1.376,2.673-2.038,4.55-2.038,5.609
		v2.96c0,1.217,0.451,2.376,1.376,3.461l2.697,4.285c2.695,1.374,7.509,18.8,14.726,21.121c7.216,2.299,15.097,4.628,23.662,6.952
		c8.567,2.302,16.658,4.339,24.351,6.137c7.641,1.771,13.3,2.671,16.893,2.671c1.8,0.344,5.422,0.159,10.813-0.554
		c5.422-0.689,10.813-1.564,16.233-2.649c5.396-1.081,10.575-2.326,15.574-3.724c4.916-1.428,8.3-2.693,10.125-3.783
		c0.874-0.34,2.908-1.298,6.081-2.903c3.122-1.615,6.081-3.601,8.804-5.872c2.669-2.328,5.132-4.654,7.43-6.956
		c2.221-2.324,3.805-4.201,4.707-5.604v-10.682c0.9-0.712,2.457-2.14,4.731-4.282c2.248-2.115,4.761-4.255,7.458-6.399
		c2.695-2.139,5.39-4.257,8.115-6.397c2.671-2.142,4.468-3.566,5.394-4.284c5.42-3.198,14.408-8.458,27.044-15.755
		c12.615-7.297,26.151-14.936,40.559-22.951c14.41-8.009,27.947-15.414,40.558-22.154c12.636-6.767,21.178-11.396,25.672-13.876
		c1.82-1.085,5.209-2.677,10.151-4.813c4.968-2.144,10.153-4.282,15.574-6.426c5.418-2.142,10.814-4.177,16.232-6.133
		c5.396-1.956,8.963-3.282,10.786-3.995c1.824-0.394,3.597-0.553,5.423-0.553c0,0,11.393-0.397,16.627-0.82
		c5.552-0.476,11.396-1.878,19.091-4.309c11.685-4.153,19.059-8.755,25.484-13.222c10.15-6.978,33.102-26.515,32.969-26.568
		C499.677,587.27,512.948,559.989,507.82,556.496z M305.194,151.564c-3.356,2.937-7.955,4.417-13.774,4.417
		c-6.739,0-11.792-1.479-15.199-4.417c-3.361-2.906-5.079-6.132-5.079-9.622c0-3.542,1.718-6.768,5.079-9.679
		c3.407-2.904,8.46-4.385,15.199-4.385c5.819,0,10.417,1.481,13.774,4.385c3.386,2.911,5.107,6.137,5.107,9.679
		C310.302,145.432,308.58,148.658,305.194,151.564z M118.803,451.138c-3.359,2.939-8.432,4.394-15.202,4.394
		c-6.74,0-11.608-1.455-14.488-4.394c-2.908-2.931-4.332-6.289-4.332-10.068c0-3.833,1.424-7.195,4.332-10.127
		c2.88-2.907,7.748-4.388,14.488-4.388c6.77,0,11.843,1.481,15.202,4.388c3.413,2.933,5.078,6.294,5.078,10.127
		C123.881,444.849,122.216,448.207,118.803,451.138z M159.599,451.856l-18.692-21.309c2.723,0.552,7.587,2.007,14.569,4.413
		c6.979,2.433,11.396,3.911,13.221,4.494c0.948,0.664,2.004,2.354,3.09,5.05c1.11,2.696,1.718,4.786,1.824,6.241L159.599,451.856z
		 M315.93,657.677c-3.174,2.409-7.904,3.598-14.197,3.598c-7.245,0-12.4-1.188-15.544-3.598c-3.201-2.405-4.761-4.991-4.761-7.773
		c0-2.748,1.56-5.233,4.761-7.479c3.145-2.223,8.3-3.304,15.544-3.304c6.292,0,11.023,1.081,14.197,3.304
		c3.147,2.246,4.76,4.731,4.76,7.479C320.69,652.686,319.077,655.271,315.93,657.677z M430.673,606.179
		c-1.928,1.453-5.314,1.898-10.153,1.322c-7.718-1.194-11.578-3.521-11.578-7.035c0-3.518,3.86-5.868,11.578-7.034
		c4.839-0.556,8.225,0,10.153,1.775c1.932,1.741,2.91,3.646,2.91,5.685C433.583,602.95,432.605,604.723,430.673,606.179z"/>
</g>
<g id="Layer_1">
</g>
</svg>
