<?xml version="1.0" encoding="iso-8859-1"?>
<!-- Generator: Adobe Illustrator 16.0.0, SVG Export Plug-In . SVG Version: 6.00 Build 0)  -->
<!DOCTYPE svg PUBLIC "-//W3C//DTD SVG 1.1//EN" "http://www.w3.org/Graphics/SVG/1.1/DTD/svg11.dtd">
<svg version="1.1" xmlns="http://www.w3.org/2000/svg" xmlns:xlink="http://www.w3.org/1999/xlink" x="0px" y="0px" width="1000px"
	 height="1000px" viewBox="0 0 1000 1000" style="enable-background:new 0 0 1000 1000;" xml:space="preserve">
<g id="Num_x5F_4">
	<path style="fill:#272525;" d="M36.056,172.002c-23.266-31.303-25.802-38.07-29.61-81.644c-1.031-11.66-0.343-32.676,5.074-43.145
		c6.346-12.268,16.501-25.753,20.068-29.005c3.57-3.25,6.663-5.525,9.254-6.82c1.323,0,5.712-0.316,13.166-0.979
		c7.48-0.635,13.167-0.978,17.053-0.978c4.547,0,10.578,0.343,18.03,0.978c7.483,0.663,11.873,0.979,13.166,0.979
		c1.931,1.295,4.869,3.57,8.75,6.82c3.914,3.252,7.987,7.166,12.188,11.687c4.231,4.573,8.146,8.776,11.716,12.691
		c3.567,3.887,5.999,6.822,7.293,8.751c0.664,1.32,0.819,5.05,0.506,11.209c-0.348,6.188-0.506,12.663-0.506,19.512
		c0,6.822-0.156,13.142-0.473,18.984c-0.318,5.869-0.162,9.438,0.473,10.733c0.664,1.957,3.41,6.344,8.275,13.167
		c4.891,6.822,10.576,14.623,17.079,23.374c6.506,8.777,12.983,17.238,19.483,25.353c6.506,8.117,11.691,14.463,15.604,19.01
		c3.25,3.25,8.749,8.619,16.547,16.074c7.802,7.483,26.28,26.493,29.507,29.715L478.108,11.388c1.933,0,4.229-0.316,6.824-0.979
		c1.927,0,4.044-0.157,6.317-0.475c2.3-0.317,4.071-0.503,5.366-0.503c1.955,0,5.687,0.343,11.212,0.978
		c5.523,0.663,8.936,0.979,10.23,0.979c1.295,0.662,3.754,1.8,7.297,3.411c3.596,1.639,7.667,3.57,12.187,5.841
		c4.55,2.302,8.776,4.39,12.666,6.346c3.909,1.932,6.848,3.57,8.775,4.868c3.25,1.955,7.486,5.366,12.664,10.228
		c5.208,4.869,5.711,16.077,3.413,21.947c-2.248,5.843-5.023,12.03-8.275,18.507c-3.251,6.503-6.479,12.504-9.729,18.029
		c-3.254,5.527-5.868,9.256-7.798,11.211v624.744c0,0.635-1.141,2.592-3.413,5.845c-2.272,3.251-5.208,6.977-8.778,11.208
		c-3.569,4.23-7.136,8.461-10.735,12.664c-3.541,4.23-6.316,7.643-8.272,10.233c-1.295,3.252-4.547,7.483-9.756,12.664
		c-5.183,5.205-8.433,7.798-9.732,7.798h-9.75h-10.71c-1.295-0.636-3.911-1.798-7.797-3.413c-3.914-1.61-8.117-3.563-12.691-5.839
		c-4.524-2.275-8.751-4.393-12.667-6.347c-3.884-1.931-6.476-3.544-7.797-4.863c-2.59-1.96-6.638-5.503-12.19-10.708
		c-5.499-5.211-8.273-8.438-8.273-9.757V253.089L275.271,398.873L111.008,232.625L36.056,172.002z M49.224,142.682
		c5.208,5.208,11.079,6.187,17.557,2.907c3.25-1.295,4.229-3.543,2.932-6.82c-1.295-3.225-3.412-6.32-6.344-9.253
		c-2.936-2.936-6.16-4.864-9.759-5.843c-3.541-0.98-6.315-0.159-8.274,2.433C42.743,131.947,44.041,137.473,49.224,142.682z
		 M395.831,112.701c-2.564,4.231-3.885,8.935-3.885,14.119c0,5.208,1.321,9.914,3.885,14.145c2.616,4.231,6.186,6.319,10.734,6.319
		c5.21,0,9.253-2.088,12.189-6.319c2.906-4.23,4.39-8.937,4.39-14.145c0-5.185-1.484-9.888-4.39-14.119
		c-2.936-4.229-6.979-6.344-12.189-6.344C402.017,106.357,398.447,108.471,395.831,112.701z M499.684,663.334
		c-2.567,4.233-3.886,8.938-3.886,14.146c0,5.209,1.319,9.917,3.886,14.119c2.618,4.228,6.184,6.347,10.735,6.347
		c5.206,0,9.25-2.119,12.187-6.347c2.908-4.202,4.389-8.91,4.389-14.119c0-5.208-1.48-9.912-4.389-14.146
		c-2.937-4.203-6.98-6.317-12.187-6.317C505.867,657.017,502.302,659.131,499.684,663.334z M438.768,79.097
		c-2.591,4.229-3.885,8.75-3.885,13.645c0,4.863,1.294,9.412,3.885,13.641c2.617,4.231,6.187,6.318,10.735,6.318
		c5.211,0,9.093-2.087,11.683-6.318c2.594-4.229,3.89-8.778,3.89-13.641c0-4.894-1.296-9.416-3.89-13.645
		c-2.59-4.23-6.472-6.345-11.683-6.345C444.954,72.751,441.384,74.866,438.768,79.097z M458.093,721.13
		c-2.59,4.231-3.884,8.778-3.884,13.644c0,4.89,1.294,9.438,3.884,13.666c2.619,4.231,6.188,6.321,10.735,6.321
		c5.209,0,9.096-2.09,11.687-6.321c2.614-4.228,3.912-8.776,3.912-13.666c0-4.865-1.297-9.412-3.912-13.644
		c-2.59-4.203-6.478-6.317-11.687-6.317C464.282,714.813,460.712,716.927,458.093,721.13z M92.025,48.614
		c-2.59,4.257-3.911,8.961-3.911,14.145c0,5.208,1.321,9.915,3.911,14.118c2.592,4.257,6.504,6.346,11.687,6.346
		c5.211,0,9.121-2.089,11.687-6.346c2.618-4.204,3.914-8.91,3.914-14.118c0-5.184-1.296-9.888-3.914-14.145
		c-2.566-4.203-6.476-6.319-11.687-6.319C98.529,42.295,94.618,44.411,92.025,48.614z"/>
</g>
<g id="Layer_1">
</g>
</svg>
