<?xml version="1.0" encoding="iso-8859-1"?>
<!-- Generator: Adobe Illustrator 16.0.0, SVG Export Plug-In . SVG Version: 6.00 Build 0)  -->
<!DOCTYPE svg PUBLIC "-//W3C//DTD SVG 1.1//EN" "http://www.w3.org/Graphics/SVG/1.1/DTD/svg11.dtd">
<svg version="1.1" xmlns="http://www.w3.org/2000/svg" xmlns:xlink="http://www.w3.org/1999/xlink" x="0px" y="0px" width="1000px"
	 height="1000px" viewBox="0 0 1000 1000" style="enable-background:new 0 0 1000 1000;" xml:space="preserve">
<g id="Num_x5F_1">
	<path style="fill:#272525;" d="M330.949,40.313l-10.078-14.675c-9.753-7.8-16.258-12.664-19.508-14.619h-6.821
		c-1.957,0-3.89-0.133-5.845-0.477c-1.958-0.317-3.569-0.501-4.865-0.501c-3.251,0-7.325,0.184-12.188,0.501
		c-4.863,0.344-7.957,0.477-9.253,0.477c-0.661,0-2.777,0.819-6.346,2.433c-3.567,1.637-7.453,3.595-11.682,5.868
		c-4.233,2.275-8.304,4.547-12.194,6.822c-3.91,2.271-6.82,4.044-8.775,5.34c-1.958,1.323-5.685,3.754-11.208,7.325
		c-5.499,3.568-11.528,7.482-18.032,11.686c-6.479,4.231-12.506,8.3-18.031,12.187c-5.5,3.914-9.572,6.824-12.19,8.778
		c-1.927,1.295-6.822,5.051-14.619,11.209c-7.773,6.189-16.074,12.664-24.853,19.487c-8.751,6.818-17.054,13.164-24.85,19.008
		c-7.801,5.842-12.665,9.755-14.621,11.687c-1.297,0.661-4.867,2.933-10.709,6.818c-5.841,3.915-12.188,7.987-19.009,12.191
		c-6.823,4.229-13.167,8.461-19.008,12.664c-5.846,4.229-9.414,6.689-10.708,7.322c-1.958,1.294-5.367,4.547-10.232,9.727
		c-4.891,5.209-7.959,8.778-9.282,10.736c0.663,3.25,2.616,7.797,5.87,13.642c3.252,5.842,6.98,12.031,11.209,18.506
		c4.233,6.505,8.433,12.375,12.666,17.556c4.227,5.21,7.639,8.777,10.23,10.736c1.958,0.633,4.232,0.95,6.823,0.95h12.662
		c1.323,0,4.549-0.129,9.755-0.473c5.209-0.32,8.436-0.477,9.732-0.477c5.207-2.591,13.506-7.641,24.853-15.124
		c11.393-7.456,23.397-15.412,36.061-23.873c12.689-8.434,24.534-16.577,35.585-24.378c11.05-7.801,18.509-13.642,22.421-17.528
		v580.879c0,1.299,2.431,4.39,7.294,9.254c4.895,4.864,8.938,8.625,12.19,11.209c1.955,1.295,4.865,2.938,8.775,4.866
		c3.89,1.957,7.96,3.912,12.194,5.845c4.229,1.953,8.115,3.915,11.682,5.868c3.569,1.931,5.686,3.226,6.346,3.889
		c1.296,0,4.39,0.318,9.253,0.975c4.863,0.636,8.936,0.979,12.188,0.979h4.865c1.93,0,3.835-0.343,5.762-0.979
		c-0.553-0.842-18.504-19.273-25.06-41.478c0.421-15.231,4.017-24.327,8.908-35.061c7.375-1.322,15.84,0.581,23.452,6.082
		c9.094,22.84,13.959,39.974,15.44,52.242c2.275-2.908,9.357-13.142,10.972-15.891c2.275-3.912,3.41-6.502,3.41-7.801
		c0,0,0-599.625,0-614.984c1.056-19.75,0.979-26.599,1.905-51.267C333.906,75.053,334.038,55.54,330.949,40.313z M261.808,133.005
		l-18.533-38.971l58.483,38.971H261.808z M292.32,604.035l4.785-80.081l19.459,53.853L292.32,604.035z M316.328,294.996
		c-2.593,4.23-6.48,6.318-11.688,6.318c-4.548,0-7.958-2.088-10.229-6.318c-2.275-4.231-3.411-8.938-3.411-14.146
		c0-5.181,1.136-9.888,3.411-14.119c2.272-4.229,5.682-6.344,10.229-6.344c5.208,0,9.096,2.115,11.688,6.344
		c2.614,4.231,3.914,8.938,3.914,14.119C320.241,286.057,318.942,290.765,316.328,294.996z"/>
</g>
<g id="Layer_1">
</g>
</svg>
