<?xml version="1.0" encoding="iso-8859-1"?>
<!-- Generator: Adobe Illustrator 16.0.0, SVG Export Plug-In . SVG Version: 6.00 Build 0)  -->
<!DOCTYPE svg PUBLIC "-//W3C//DTD SVG 1.1//EN" "http://www.w3.org/Graphics/SVG/1.1/DTD/svg11.dtd">
<svg version="1.1" xmlns="http://www.w3.org/2000/svg" xmlns:xlink="http://www.w3.org/1999/xlink" x="0px" y="0px" width="1000px"
	 height="1000px" viewBox="0 0 1000 1000" style="enable-background:new 0 0 1000 1000;" xml:space="preserve">
<g id="Num_x5F_0">
	<path style="fill:#272525;" d="M508.19,322.621c-1.456-8.274-7.142-19.192-11.686-25.168c-4.337-5.712-12.215-13.114-12.215-13.114
		l-48.698,19.777l33.627-35.958c0,0-37.568-43.597-43.781-50.763c2.249-2.299,4.52-4.572,6.636-6.635
		c5.819-5.711,16.55-16.152,22.817-20.039c3.382-2.063,7.797-2.856,12.241-4.522c4.416-1.664,8.329-3.516,11.79-5.522
		c3.462-2.063,5.897-3.676,7.351-4.891c0.077-1.271,0.506-2.513,1.269-3.756c0.107-1.322,0.37-2.247,0.741-2.856
		c0.37-0.662,0.636-1.585,0.715-2.856c0.078-0.66-0.053-1.32-0.318-1.955c-0.266-0.687-0.343-1.665-0.238-2.907
		c-0.583-1.348-0.767-2.644-0.662-3.916l-18.055-20.513c-3.096-2.116-9.227-5.899-18.298-11.317
		c-9.123-5.393-15.228-8.857-18.4-10.365l-19.644-1.241c-2.062,1.166-5.605,3.994-10.575,8.541
		c-4.996,4.521-8.224,7.694-9.679,9.519c-4.73,6.186-11.102,15.069-18.978,26.412c-9.729-11.264-18.854-21.866-27.157-31.597
		c-13.376-15.811-21.178-25.565-23.344-29.268c-0.738-1.243-2.247-4.521-4.521-9.835c-2.274-5.287-4.756-11.237-7.43-17.817
		c-2.671-6.557-4.995-12.665-6.954-18.324c-1.98-5.658-3.648-9.41-5.099-11.235c-2.143-3.092-13.433-16.074-17.717-20.491
		c-4.123-4.257-13.349-12.478-19.614-15.756c-0.896,0.054-7.852,0.795-8.117,0.821c-3.938,0.289-10.259,2.166-18.932,5.683
		c-8.697,3.518-17.363,7.64-25.954,12.452c-8.622,4.786-16.792,9.519-24.404,14.251c-3.779,2.353-12.824,8.564-14.518,9.438
		c-7.981,4.097-13.586,6.9-16.813,8.434l1.165,20.198c5.683,5.393,11.817,14.383,14.354,18.401c2.541,4.02,7.668,11,9.439,18.534
		c0,0,1.931,8.539,1.955,12.716c0.028,4.204-3.461,13.14-7.109,18.562c-3.649,5.393-7.59,11.289-11.847,17.713
		c-4.229,6.424-8.329,12.663-12.267,18.744c-3.938,6.055-6.794,10.734-8.592,14.119c-3.068,4.07-8.409,11.183-16.076,21.388
		c-7.666,10.206-15.623,20.888-23.874,32.096c-8.248,11.211-16.209,21.732-23.899,31.594c-7.667,9.862-13.063,16.524-16.155,19.96
		c-1.903,1.427-4.705,4.207-8.435,8.331c-3.7,4.124-7.745,8.406-12.109,12.901c-4.332,4.495-8.405,8.647-12.134,12.456
		c-3.726,3.805-6.53,6.741-8.378,8.803c0,0-7.671,8.725-4.285,39.893c2.776,25.752-14.251,69.111-7.827,103.009
		c3.066,16.309,15.44,39.391,19.168,44.282c5.365,7.059,13.247,15.258,17.397,19.145c4.176,3.882,7.298,6.738,9.359,8.509
		c5.102,5.477,13.536,14.996,24.935,28.16c-5.872,5.947-11.691,12.238-16.769,18.717c-10.069,8.937-18.45,19.221-28.895,27.895
		c-2.669,2.223-17.106,21.203-19.509,28.79c5.047,13.323,10.601,26.493,16.337,39.525c19.671,14.619,2.858,6.82,26.781,9.36
		c9.361,1.001,19.012,0.052,29.828-2.883c7.108-1.901,35.637-37.489,42.906-61.336c12.982,15.729,25.275,30.774,36.619,44.864
		c12.743,15.838,13.825,18.188,17.474,26.094c3.674,7.909,4.547,11.819,6.823,19.036c1.426,4.575,4.68,13.486,6.844,16.896
		c2.17,3.385,2.62,7.955,5.131,12c2.537,3.972,5.048,7.828,7.56,11.502c2.542,3.701,6.054,5.262,6.799,6.505
		c1.425,1.822,4.882,4.972,10.382,9.415c5.524,4.439,9.651,7.188,12.348,8.299l21.624-1.532c5.29-1.402,16.234-5.714,16.234-5.714
		c1.907-0.792,4.812-2.113,8.647-3.989c3.862-1.877,8.037-3.943,12.503-6.188c4.494-2.247,8.624-4.626,12.427-7.14
		c3.807-2.535,6.689-4.202,8.619-4.942c3.173-2.171,7.402-6.001,12.664-11.526c5.287-5.523,7.933-8.597,7.878-9.229
		c0.559-1.979,0.452-6.952-0.343-14.938c-0.769-8.013-1.561-16.312-2.377-24.956c-0.822-8.62-1.457-16.789-1.876-24.483
		c-0.424-7.695-0.373-12.531,0.158-14.488c-0.081-1.295,0.634-3.598,2.089-6.9c1.455-3.332,3.199-7.324,5.26-11.951
		c2.033-4.677,4.099-9.146,6.133-13.459c2.088-4.362,3.729-7.503,4.916-9.541c1.776-3.333,6.374-9.596,13.774-18.825
		c7.351-9.199,15.178-19.246,23.48-30.112c8.246-10.896,16.55-21.442,24.88-31.675c8.299-10.259,14.275-17.738,17.978-22.501
		c1.826-2.72,4.916-6.474,9.226-11.285c4.359-4.813,8.567-9.468,12.558-13.908c4.021-4.497,18.271-17.158,19.222-18.24
		c12.956-14.706,30.167-29.031,39.287-54.81L508.19,322.621z M210.55,57.497c19.557,0,19.557,46.24,0,46.24
		C190.987,103.737,190.987,57.497,210.55,57.497z M147.336,505.154c-8.753-11.66-17.371-23.901-25.301-36.616
		c-14.913,0-47.485,0.024-55.099,0.024c0-5.921,0.132-16.283,0.132-23.372c8.117,0,26.094,0.056,41.59,0.056
		c-10.286-19.672-18.351-40.162-22.475-61.076l-0.478-8.353c4.945-6.133,12.163-15.65,21.603-28.554
		c9.489-12.902,20.198-27.471,32.122-43.782c11.896-16.26,24.298-33.549,37.066-51.847c12.825-18.27,25.144-35.533,37.096-51.82
		c11.254-15.413,21.193-29.318,29.974-41.933c9.016,10.231,15.942,18.033,20.572,23.189c2.086,2.406,17.13,19.724,22.868,26.226
		c4.81,5.475,23.766,30.352,23.766,30.352l8.01,10.443c-4.705,7.14-7.611,11.766-8.936,13.616
		c-7.4,10.126-13.138,21.521-16.868,27.601c-3.755,6.083-18.609,28.318-18.609,28.318l6.82,33.021l-36.964,11.606
		c0,0-23.502,35.373-35.789,53.985C200.319,428.534,168.247,474.909,147.336,505.154z M203.489,643.584
		c20.511,0,20.511,52.772,0,52.772C183,696.356,183,643.584,203.489,643.584z M240.579,759.309c-18.692,0-18.692-39.367,0-39.367
		C259.246,719.941,259.246,759.309,240.579,759.309z M421.284,436.994c-4.573,6.425-9.886,14.199-15.965,23.291
		c-6.053,9.124-12.452,18.297-19.196,27.446c-6.717,9.148-12.531,16.473-17.528,21.972c-2.431,3.383-7.193,9.836-14.224,19.354
		c-7.008,9.488-15.28,20.699-24.771,33.603c-9.494,12.876-19.723,26.649-30.752,41.244c-11.025,14.62-21.281,28.209-30.799,40.793
		c-1.007,1.298-1.822,2.405-2.752,3.651l-80.256-96.979c31.303-41.854,71.031-94.2,81.051-109.033
		c14.885-21.995,26.016-37.965,33.365-47.828c6.006-9.281,13.801-21.123,23.479-35.346c9.649-14.278,19.328-28.212,28.951-41.829
		c3.436-4.863,6.448-9.224,9.515-13.613l26.176,34.131c8.882,15.573,18.745,30.83,24.193,47.644
		c5.524,16.999,8.114,33.892,9.621,51.343C421.363,436.892,421.312,436.945,421.284,436.994z"/>
</g>
<g id="Layer_1">
</g>
</svg>
