<?xml version="1.0" encoding="iso-8859-1"?>
<!-- Generator: Adobe Illustrator 16.0.0, SVG Export Plug-In . SVG Version: 6.00 Build 0)  -->
<!DOCTYPE svg PUBLIC "-//W3C//DTD SVG 1.1//EN" "http://www.w3.org/Graphics/SVG/1.1/DTD/svg11.dtd">
<svg version="1.1" xmlns="http://www.w3.org/2000/svg" xmlns:xlink="http://www.w3.org/1999/xlink" x="0px" y="0px" width="1000px"
	 height="1000px" viewBox="0 0 1000 1000" style="enable-background:new 0 0 1000 1000;" xml:space="preserve">
<g id="Num_x5F_2">
	<path style="fill:#272525;" d="M484.525,656.012c-14.383,11.001-30.009,14.465-42.301,18.615
		c-29.901,10.073-101.631,19.962-124.048,21.651c-21.706,1.64-155.67,10.708-169.499,10.708
		c19.168-23.688,87.699-106.756,101.05-122.332l81.535-96.156c6.344-8.039,126.51-130.843,138.354-141.843
		c2.75,4.574,8.199,12.319,16.71,17.054c16.498-3.81,42.539-14.039,43.939-58.327c-0.848-15.649,5.342-33.257,5.342-33.257
		s-22.26-27.363-42.568-27.363c-17.476-16.078-31.833-33.234-48.224-55.707c-9.728-13.325-18.901-24.189-34.049-44.842
		c-11.555-15.729-17.133-21.359-33.419-41.031c-14.915-18.005-7.349-11.423-21.308-27.285
		c-23.928-27.178-25.597-38.07-51.398-58.164L276.957,7.396c-10.204,2.538-32.756,18.717-39.631,26.305
		c-8.512,9.414-21.571,22.58-25.327,29.505c-7.033,12.982-8.883,16.791-12.267,36.037c7.612-13.75,18.423-27.233,21.678-28
		c-0.421,1.06,9.412,27.918-2.854,40.823c-6.32,6.635-13.96,12.054-20.516,13.958c-7.193-5.499-8.46-11.29-12.984-31.013
		c-42.3,41.035-163.839,97.849-173.776,117.309c5.52,22.129,33.045,44.575,39.548,74.74c12.111,10.155,27.92,15.786,49.914,17.901
		c13.249-26.917,49.92-66.072,68.798-84.448c20.251-19.747,58.718-62.923,81.135-82.701c21.92,2.17,32.125-12.293,87.964,38.551
		c26.149,23.819,46.559,46.134,57.689,57.265c13.112,13.114,21.415,25.223,42.302,63.453l-101.786,96.975
		c-12.798,12.878-49.233,40.929-61.499,49.811c-8.225,5.95-36.167,28.981-58.455,46.03c-12.98,9.968-50.42,40.741-83.811,69.509
		c4.786,16.442,1.826,30.617,0.766,49.863c-6.346,3.169-20.094,13.113-30.458,16.5c2.116-12.27,7.404-37.02,12.982-51.823
		c-27.921,24.538-32.652,32.893-58.084,57.714c-3.833,3.733-7.059,6.77-10.074,9.573C-0.859,663.73,1.494,702.704,12.81,753.862
		c2.247,10.205,13.192,20.357,23.636,23.637c15.967,4.997,24.904,7.691,35.639,10.285c11.421,2.751,28.979,5.71,42.436,7.823
		c-14.305-17.555-12.4-17.766-4.125-20.146c6.954-0.582,13.906-1.081,20.756-1.296c7.349-0.209,24.877-0.788,26.517-0.788
		c103.481-0.162,203.632-4.683,306.238,10.705c6.237,7.296,28.606,6.82,44.525,5.393c14.591-18.872,24.797-59.514,23.79-81.354
		C530.212,664.475,510.332,653.263,484.525,656.012z M382.394,162.67c5.313-13.167,46.297,37.675,46.297,39.023
		C429.137,218.587,381.311,165.498,382.394,162.67z M447.035,237.435c16.391,0,32.679,41.246,16.287,41.246
		C446.905,278.681,430.62,237.435,447.035,237.435z M65.185,752.169c-2.643,3.756-6.213,5.661-10.733,5.661
		c-5.263,0-9.227-1.905-11.873-5.661c-2.618-3.755-3.964-7.907-3.964-12.427s1.346-8.669,3.964-12.425
		c2.646-3.754,6.609-5.656,11.873-5.656c4.52,0,8.09,1.902,10.733,5.656c2.643,3.756,3.965,7.905,3.965,12.425
		S67.828,748.414,65.185,752.169z M159.651,744.849c-10.575-2.115-41.246-10.048-53.091-13.063
		c29.612-1.744,72.126-2.378,94.282-2.033C189.471,734.057,167.687,741.461,159.651,744.849z"/>
</g>
<g id="Layer_1">
</g>
</svg>
