<?xml version="1.0" encoding="iso-8859-1"?>
<!-- Generator: Adobe Illustrator 16.0.0, SVG Export Plug-In . SVG Version: 6.00 Build 0)  -->
<!DOCTYPE svg PUBLIC "-//W3C//DTD SVG 1.1//EN" "http://www.w3.org/Graphics/SVG/1.1/DTD/svg11.dtd">
<svg version="1.1" xmlns="http://www.w3.org/2000/svg" xmlns:xlink="http://www.w3.org/1999/xlink" x="0px" y="0px" width="1000px"
	 height="1000px" viewBox="0 0 1000 1000" style="enable-background:new 0 0 1000 1000;" xml:space="preserve">
<g id="UCase_x5F_C">
	<path style="fill:#272525;" d="M40.016,389.23c0.42,4.682,2.436,9.522,6.518,14.31c14.117,16.499,32.928,26.313,56.068,35.997
		c12.158,5.058,46.518,24.422,46.518,24.422c3.977,2.649,8.277,5.597,12.941,8.76c4.691,3.168,9.018,6.089,12.941,8.766
		c3.975,2.679,6.668,4.731,8.086,6.189c2.896,2.437,8.305,7.059,16.186,13.88c7.914,6.813,16.375,14.114,25.355,21.905
		c9.008,7.788,17.631,15.063,25.887,21.881c8.275,6.841,14.211,11.679,17.797,14.602c2.891,2.921,6.664,6.711,11.328,11.307
		c4.682,4.628,9.359,9.253,14.021,13.875c4.682,4.652,8.631,8.765,11.865,12.415c3.242,3.652,4.838,5.731,4.838,6.193
		c0.746,1.458,0.918,5.11,0.557,10.951c-0.354,5.845-0.719,12.064-1.07,18.649c-0.379,6.547-0.555,12.661-0.555,18.228
		c0,5.6,0.367,9.145,1.068,10.575c0,1.003,2.703,3.272,8.1,6.956c5.398,3.646,9.914,6.461,13.482,8.378
		c1.461,0.488,4.141,1.46,8.09,2.923c3.959,1.462,8.102,2.924,12.412,4.379c4.316,1.462,8.467,2.923,12.398,4.383
		c3.961,1.462,7.021,2.194,9.172,2.194h20.484c1.463-0.487,4.869-2.683,10.264-6.577c5.385-3.889,9.156-6.322,11.32-7.302
		c1.461-1.917,3.42-4.489,5.922-7.653c2.543-3.163,4.871-6.326,7.018-9.492c2.15-3.164,4.693-7.164,11.889-19.636L329.783,529.735
		c13.416-3.599,13.85-7.06,10.389-14.852c-0.082-0.161-16.664-3.025-31.74-8.165c-5.527-1.868-35.686-22.396-53.457-37.569
		c-16.607-14.142-30.682-22.283-38.389-39.105c-0.189-0.055-3.287,26.612-7.492,29.939c-4.207,3.328-11.346-20.877-11.467-24.72
		s5.965-10.467,5.965-10.467c-2.516-1.566-10.578-13.062-12.525-15.469c-13.844-16.986,27.465-46.654,43.07-61.855
		c16.756-16.332,50.563-45.838,56.215-51.17l125.736-129.819c0-0.945,0.541-3.271,1.623-6.897c1.082-3.679,1.607-6.246,1.607-7.678
		v-4.032c0-1.705-0.352-3.272-1.078-4.733l-2.152-5.869c-2.164-1.896-6.115-4.462-11.877-7.655
		c-5.727-3.137-12.031-6.328-18.863-9.465c-6.826-3.167-13.287-5.979-19.428-8.411c-6.086-2.407-10.604-3.653-13.471-3.653
		c-1.436-0.461-4.311-0.213-8.627,0.76c-4.313,0.944-8.629,2.161-12.943,3.623c-4.314,1.459-8.449,3.191-12.414,5.113
		c-3.938,1.944-6.637,3.651-8.1,5.111c-0.701,0.513-2.328,1.813-4.838,4.004c-2.518,2.188-4.857,4.893-7.023,8.03
		c-2.146,3.19-4.123,6.332-5.936,9.495c-1.783,3.19-3.027,5.732-3.756,7.682v14.575c-0.701,1-1.977,2.922-3.789,5.87
		c-1.783,2.896-3.771,5.815-5.924,8.733c-2.164,2.949-4.326,5.843-6.475,8.766c-2.148,2.919-3.586,4.869-4.313,5.841
		c-4.318,4.382-11.496,11.576-21.572,21.528c-10.061,9.979-20.854,20.445-32.359,31.401c-11.498,10.952-22.285,21.068-32.359,30.29
		c-10.063,9.25-16.877,15.577-20.488,18.986c-1.434,1.433-4.137,3.653-8.09,6.546c-3.945,2.922-8.084,5.841-12.41,8.788
		c-4.314,2.894-8.627,5.709-12.941,8.385c-4.314,2.678-7.184,4.491-8.613,5.462c-1.465,0.518-2.883,0.76-4.33,0.76
		c0,0-9.086,0.541-13.262,1.134c-4.449,0.622-9.076,2.572-15.244,5.84c-9.33,5.708-15.186,11.981-20.336,18.067
		C58.244,362.458,39.938,389.176,40.016,389.23z M337.346,195.34c0-3.679,1.26-7.085,3.771-10.224
		c2.543-3.164,6.303-4.761,11.332-4.761c5.758,0,9.9,1.597,12.398,4.761c2.531,3.139,3.777,6.545,3.777,10.224
		c0,3.624-1.246,6.897-3.777,9.845c-2.498,2.919-6.641,4.38-12.398,4.38c-5.029,0-8.789-1.46-11.332-4.38
		C338.605,202.238,337.346,198.964,337.346,195.34z M352.449,589.152c2.162,0.975,5.924,3.413,11.332,7.305
		c5.385,3.891,8.816,6.327,10.238,7.275c0.717,0.972,1.447,3.297,2.148,6.951c0.73,3.65,1.082,6.462,1.082,8.383h-24.801V589.152z"
		/>
</g>
<g id="Layer_1">
</g>
</svg>
