<?xml version="1.0" encoding="iso-8859-1"?>
<!-- Generator: Adobe Illustrator 16.0.0, SVG Export Plug-In . SVG Version: 6.00 Build 0)  -->
<!DOCTYPE svg PUBLIC "-//W3C//DTD SVG 1.1//EN" "http://www.w3.org/Graphics/SVG/1.1/DTD/svg11.dtd">
<svg version="1.1" xmlns="http://www.w3.org/2000/svg" xmlns:xlink="http://www.w3.org/1999/xlink" x="0px" y="0px" width="1000px"
	 height="1000px" viewBox="0 0 1000 1000" style="enable-background:new 0 0 1000 1000;" xml:space="preserve">
<g id="UCase_x5F_V">
	<path style="fill:#272525;" d="M402.623,394.816c-0.893-2.306-3.305-7.163-6.643-13.454c-4.098-7.812-9.877-16.98-18.879-25.663
		c-9.01-8.653-18.016-17.305-27.02-25.986c-9.006-8.654-16.275-15.653-21.754-20.997c-3.148-2.66-10.77-9.495-22.898-20.506
		c-12.207-10.988-25.281-23.002-39.383-35.996c-14.135-12.993-33.178-29.218-47.449-40.936
		c-12.801-10.496-54.33-47.171-56.256-55.173c-1.98-8.004-3.068-21.785-3.857-31.901c-0.727-9.523-3.521-72.348-5.098-80.348
		c-1.543-8.003-2.332-12.994-2.332-15.002c-1.6-2.661-5.127-8.166-10.582-16.491c-5.506-8.329-9.408-13.837-11.742-16.521
		c-1.6-2.659-4.936-5.996-9.982-9.983c-5.129-4.015-8.461-5.994-10.037-5.994l-82.273,31.98c-0.787,0.678-1.168,1.684-1.168,3.012
		c-0.814,0.678-1.191,1.654-1.191,2.985v1.003c0,2.683,0.377,4.665,1.191,5.994c0,1.354,0.381,2.686,1.168,4.015
		c0.76,0.677,2.332,2.659,4.691,5.997c2.361,3.334,4.719,6.671,7.051,10.008c2.359,3.337,4.531,6.672,6.486,9.981
		c1.926,3.365,2.955,5.344,2.955,6.021c0,0.654,0.164,2.66,0.574,5.998c0.377,3.338,0.566,6.997,0.566,10.985
		c0,4.014,0.191,8.002,0.598,12.017c0.379,3.988,0.594,7,0.594,8.979c0,2.009-0.215,69.714-0.594,72.698
		c-0.406,3.014-0.598,6.187-0.598,9.524c-0.789,3.334-1.141,6.997-1.141,10.985c0,0,0,64.179,0,67.49
		c0,1.359,0.164,9.412,0.574,16.06c0.377,6.671,7.025,169.24,7.025,177.568s0.16,16.982,0.596,25.989
		c0.377,9.002,0.568,15.84,0.568,20.505c0,3.337-0.191,9.007-0.568,17.009c-0.436,7.974,1.055,51.186,1.055,51.186l1.303,92.286
		v118.706c0,2.008,1.168,4.503,3.557,7.484c2.332,3.013,5.291,6.348,8.787,10.011c3.553,3.663,6.836,6.839,10.01,9.494
		c3.092,2.686,5.859,4.339,8.219,5.019c3.908,0.651,7.434,0.977,10.578,0.977c3.123,0.679,6.268,1.004,9.387,1.004h8.244
		c3.908,0,10.176-0.325,18.803-1.004c8.627-0.648,13.697-0.977,15.297-0.977c4.695-0.68,12.125-3.176,22.354-7.515
		c10.146-4.342,16.031-7.161,17.607-8.489c0-1.329,0.375-3.012,1.164-5.016c0-1.333,0.193-2.823,0.625-4.505
		c0.379-1.657,0.568-3.147,0.568-4.476c0-2.008-0.406-5.348-1.193-10.012c-0.789-4.666-1.164-7.323-1.164-8.001
		c-0.791-1.329-2.146-4.503-4.129-9.493c-1.924-4.992-4.121-10.175-6.453-15.52c-2.332-5.317-4.502-10.31-6.457-15
		c-1.953-4.638-2.953-7.651-2.953-8.978c0-0.649-0.191-4.827-0.576-12.507c-0.404-7.648-1.461-15.786-1.461-25.116
		c0-9.336-0.299-29.677-0.299-35.674c0-3.337,2.336-14.049,2.336-17.388c1.572-2.005,17.574-2.061,24.467-5.317
		c9.086-4.284,18.58-20.805,22.482-26.15c3.965-5.315,7.869-10.142,11.805-14.481c3.908-4.341,6.615-7.517,8.217-9.524
		c6.266-5.994,17.225-15.979,32.904-30.001c15.68-13.996,32.336-28.647,49.996-43.999c17.607-15.328,34.072-29.976,49.342-43.997
		c15.301-14,26.07-23.658,32.334-29c2.359-4.828,3.391-9.386,2.359-15.979C404.738,403.388,403.9,398.073,402.623,394.816z
		 M128.73,729.854c-4.719,0-8.438-1.681-11.176-5.02c-2.77-3.306-4.123-6.997-4.123-10.984c0-4.016,1.354-7.68,4.123-11.013
		c2.738-3.31,6.457-4.995,11.176-4.995c5.477,0,9.574,1.686,12.318,4.995c2.736,3.333,4.121,6.997,4.121,11.013
		c0,3.987-1.385,7.679-4.121,10.984C138.304,728.174,134.207,729.854,128.73,729.854z M151.054,794.85
		c-3.934,0.651-6.67,0-8.246-2.009c-1.576-2.008-2.336-4.149-2.336-6.511c0-2.303,0.76-4.313,2.336-5.996
		c1.576-1.649,4.313-2.14,8.246-1.488c6.264,1.331,9.387,3.985,9.387,7.999C160.441,790.833,157.318,793.521,151.054,794.85z
		 M300.845,427.857c-4.664,3.42-129.822,91.444-129.822,91.444V285.715c3.145,2.006,43.832,28.075,53.625,33.638
		c11.016,6.292,31.791,25.035,38.764,32.117c9.035,9.14,13.188,19.125,15.328,23.437c3.469,7.079,2.553,16.464,4.504,19.802
		c1.953,3.336,4.123,6.672,6.482,10.008c2.363,3.337,29.73-8.408,30.518-3.741c0.783,4.665,0.16,7.268-0.082,8.599
		C318.855,416.465,306.189,423.951,300.845,427.857z M333.619,365.957c-2.359,3.333-6.322,4.989-11.777,4.989
		c-5.48,0-9.604-1.657-12.342-4.989c-2.738-3.338-4.094-7.165-4.094-11.505c0-4.341,1.355-8.164,4.094-11.5
		c2.738-3.336,6.861-4.992,12.342-4.992c5.455,0,9.418,1.656,11.777,4.992c2.326,3.336,3.496,7.159,3.496,11.5
		C337.115,358.792,335.945,362.618,333.619,365.957z"/>
</g>
<g id="Layer_1">
</g>
</svg>
