<?xml version="1.0" encoding="iso-8859-1"?>
<!-- Generator: Adobe Illustrator 16.0.0, SVG Export Plug-In . SVG Version: 6.00 Build 0)  -->
<!DOCTYPE svg PUBLIC "-//W3C//DTD SVG 1.1//EN" "http://www.w3.org/Graphics/SVG/1.1/DTD/svg11.dtd">
<svg version="1.1" xmlns="http://www.w3.org/2000/svg" xmlns:xlink="http://www.w3.org/1999/xlink" x="0px" y="0px" width="1000px"
	 height="1000px" viewBox="0 0 1000 1000" style="enable-background:new 0 0 1000 1000;" xml:space="preserve">
<g id="UCase_x5F_X">
	<path style="fill:#272525;" d="M605.709,392.236c-0.758-5.045-1.141-7.948-1.141-8.707c-6.213-6.185-16.816-17.389-31.871-33.611
		c-15.082-16.249-31.307-33.229-48.691-51.021c-17.387-17.77-33.832-34.776-49.262-50.998
		c-15.491-16.25-26.288-27.833-32.475-34.778c-1.545-2.332-4.256-5.994-8.109-11.012c-3.875-5.018-7.729-10.634-11.609-16.819
		c-3.879-6.185-7.705-11.964-11.58-17.389c-3.877-5.398-6.564-9.274-8.113-11.583c-4.5-6.727-13.617-23.001-22.354-32.659
		c-7.053-7.787-30.188-24.388-40.664-26.989l-48.287,41.096c-6.178,5.398-16.621,15.246-31.273,29.567
		c-14.701,14.294-29.973,29.567-45.787,45.789c-15.869,16.221-30.926,31.494-45.221,45.79
		c-14.295,14.297-24.168,24.141-29.566,29.566c-3.092,3.067-7.732,8.493-13.887,16.222c-6.213,7.705-12.59,15.464-19.156,23.193
		c-6.563,7.732-12.561,15.057-17.955,22.026c-5.426,6.945-8.898,11.584-10.443,13.891c-0.762,0.788-0.572,2.143,0.592,4.069
		c1.143,1.924,5.4,3.934,4.047,6.374c-2.766,5.018-15.355,8.489-15.355,9.277H40.015L281.14,628.13
		c2.252,1.951,3.498,3.985,4.609,5.776c-2.115,5.235,2.688,3.473-5.639,12.04c-1.191,1.224,90.33,45.521,100.146,37.22
		c8.438-7.162,8.873-16.03,10.418-19.122c0-2.307,10.611-14.648,12.182-16.195c2.33-3.908,9.277-12.37,20.859-25.526
		c11.611-13.155,24.361-27.234,38.277-42.29c13.891-15.082,26.827-28.999,38.819-41.747c11.988-12.75,19.502-20.669,22.598-23.764
		c5.42-6.209,12.559-14.294,21.457-24.33c8.871-10.063,17.766-20.129,26.664-30.139c8.867-10.065,16.412-18.961,22.594-26.665
		c6.188-7.758,9.66-12.019,10.443-12.75c0-1.573,0.383-4.666,1.141-9.278c0.783-4.665,1.166-7.757,1.166-9.275
		C606.875,400.509,606.492,397.254,605.709,392.236z M231.742,266.424c2.715-3.879,6.373-5.803,11.012-5.803
		c5.4,0,9.473,1.924,12.182,5.803c2.688,3.827,4.066,8.084,4.066,12.75c0,4.609-1.379,8.872-4.066,12.75
		c-2.709,3.85-6.781,5.804-12.182,5.804c-4.639,0-8.297-1.955-11.012-5.804c-2.713-3.879-4.07-8.141-4.07-12.75
		C227.671,274.508,229.029,270.251,231.742,266.424z M167.369,354.506c1.551-2.334,4.234-3.094,8.117-2.334
		c6.184,1.519,9.273,4.639,9.273,9.276s-3.09,7.705-9.273,9.279c-3.883,0.76-6.566,0.162-8.117-1.738
		c-1.568-1.952-2.332-4.287-2.332-6.969C165.037,359.305,165.8,356.81,167.369,354.506z M433.619,586.813
		c-2.334,3.88-6.211,5.806-11.609,5.806c-5.428,0-9.467-1.926-12.15-5.806c-2.742-3.851-4.072-8.3-4.072-13.317
		c0-5.047,1.33-9.468,4.072-13.32c2.684-3.878,6.723-5.803,12.15-5.803c5.398,0,9.275,1.925,11.609,5.803
		c2.307,3.853,3.469,8.273,3.469,13.32C437.087,578.513,435.925,582.962,433.619,586.813z M504.881,373.084
		c-0.787,5.4-1.164,8.874-1.164,10.445c-0.789,0.759-2.146,3.093-4.074,6.944c-1.924,3.878-4.041,7.733-6.369,11.612
		c-2.309,3.85-4.453,7.7-6.379,11.609c-1.928,3.823-2.9,6.16-2.9,6.944c-1.551,3.064-2.715,8.68-3.475,16.792
		c15.707-14.651,12.938-10.361,2.633,12.801c-4.287,7.788-7.541,14.569-12.1,21.377c-4.506,6.779-17.121,34.287-33.283,33.608
		c-23.463-1.002-42.916,9.737-53.658,37.57c-4.469,11.612-3.689,37.244-31.869,39.904c-17.713,1.682-17.363-4.18-30.193-11.395
		c-10.717-6.021-48.641-43.591-61.77-56.776l-100.85-93.883c-0.795-0.784,1.135-4.068,5.771-9.873
		c4.639-5.776,10.037-12.75,16.252-20.858c6.154-8.113,12.939-16.226,20.287-24.335c7.326-8.14,13.697-14.893,19.098-20.291
		c2.332-2.332,6.184-6.185,11.609-11.611c5.4-5.397,11.178-11.203,17.391-17.36c6.156-6.21,12.338-12.015,18.553-17.413
		c6.156-5.426,3.445-1.844,12.75-10.419c9.305-8.571,81.787-69.766,89.543-63.663c24.908,19.61,32.174,25.388,32.174,25.388
		l100.86,95.079c0,2.307,0.377,4.637,1.164,6.945c0,1.547,0.16,3.282,0.566,5.206c0.383,1.928,0.572,3.691,0.572,5.238
		C506.02,364.216,505.641,367.687,504.881,373.084z"/>
</g>
<g id="Layer_1">
</g>
</svg>
