<?xml version="1.0" encoding="iso-8859-1"?>
<!-- Generator: Adobe Illustrator 16.0.0, SVG Export Plug-In . SVG Version: 6.00 Build 0)  -->
<!DOCTYPE svg PUBLIC "-//W3C//DTD SVG 1.1//EN" "http://www.w3.org/Graphics/SVG/1.1/DTD/svg11.dtd">
<svg version="1.1" xmlns="http://www.w3.org/2000/svg" xmlns:xlink="http://www.w3.org/1999/xlink" x="0px" y="0px" width="1000px"
	 height="1000px" viewBox="0 0 1000 1000" style="enable-background:new 0 0 1000 1000;" xml:space="preserve">
<g id="UCase_x5F_G">
	<path style="fill:#272525;" d="M39.007,769.996c0-1.981,0.167-4.828,0.52-8.493c0.324-3.661,0.648-7.839,0.988-12.504
		c0.322-4.638,0.664-8.817,0.988-12.507c0.34-3.634,0.844-6.482,1.522-8.488c0.65-1.33,1.992-3.825,3.988-7.486
		c2.004-3.667,4.148-7.679,6.51-12.018c2.318-4.315,4.488-8.494,6.48-12.509c2.008-3.986,3.664-6.645,5.02-7.999
		c4.639-5.999,11.989-15.493,21.999-28.485c9.985-12.992,21.489-27.509,34.496-43.5c13.004-16.002,26.487-33.016,40.5-50.997
		c13.999-18.011,27.493-35.021,40.501-51.002c13.006-16.006,24.659-30.327,35.007-43.024c10.323-12.641,18.146-22,23.485-27.995
		v-61.988L43.025,74.98c-0.678-2.661-1.006-5.32-1.006-8.004c-0.675-1.981-1.003-3.986-1.003-5.994c0-1.979,0-3.662,0-4.993
		c0-3.333,0.328-7.647,1.003-12.995c0.651-5.342,1.006-8.652,1.006-10.008c0-0.651,2.82-3.664,8.488-9.006
		c5.655-5.316,10.161-8.979,13.51-10.987c1.316-0.651,4.151-2.17,8.491-4.503c4.327-2.333,8.655-4.503,12.993-6.509
		c4.34-1.981,8.654-3.828,13.01-5.482c4.326-1.679,7.149-2.847,8.502-3.497h10.986h11.014c2.661,1.328,6.649,4.473,11.991,9.492
		c5.333,4.993,8.655,8.492,10.01,10.5c0.648,1.331,2.143,3.987,4.504,8.001c2.321,3.987,4.639,8.167,6.997,12.482
		c2.321,4.367,4.508,8.355,6.498,12.015c1.995,3.662,3.323,6.483,4.002,8.492c1.33,1.355,1.994,4.501,1.994,9.496
		c0,5.018-0.664,8.841-1.994,11.501c3.987,7.35,11.991,19.695,23.995,36.999c12,17.362,24.997,35.865,38.994,55.506
		c13.999,19.665,27.337,38.003,40.009,55.011c12.667,16.983,21.646,28.835,26.991,35.486c2.006,2.006,5.018,5.181,9.004,9.521
		c4.012,4.341,8.328,8.654,12.993,12.996c4.668,4.337,9.008,8.327,13.021,11.987c3.991,3.688,7.001,6.185,8.981,7.516
		c1.33,0.678,2.658,1.004,4.014,1.004h5.995h7c1.329,0,2.659-0.326,3.987-1.004c1.328-0.655,4.014-2.661,8.002-5.999
		c4.018-3.337,8.164-7.161,12.506-11.5c4.34-4.338,8.844-8.843,13.511-13.51c4.639-4.666,8.004-8.325,9.98-11.011
		c4.018-4.639,10.526-11.992,19.503-22.001c9.01-9.981,18.017-20.321,27.021-30.979c8.981-10.663,17.499-20.511,25.503-29.518
		c8.002-9.005,12.993-15.164,14.997-18.498c1.332-2.009,3.148-5.155,5.48-9.496c2.336-4.341,4.671-8.818,7.002-13.511
		c2.332-4.639,4.338-8.653,6.02-11.987c1.657-3.338,2.497-5.671,2.497-7.001c0.652-2.005,1.003-7,1.003-15.002
		c0-8-0.185-16.492-0.513-25.498c-0.327-9.007-0.68-17.661-1.004-26.017c-0.326-8.328-0.165-13.482,0.514-15.488
		c0-0.651,2.819-3.664,8.492-9.006c5.671-5.316,10.173-8.979,13.507-10.987c2.01-0.651,4.992-2.17,9.008-4.503
		c3.99-2.333,8.328-4.503,12.995-6.509c4.635-1.981,9.006-3.828,12.994-5.482c3.986-1.679,7.001-2.847,9.004-3.497h10.989h10.008
		c2.662,1.328,6.649,4.473,11.993,9.492c5.344,4.993,8.652,8.492,10.006,10.5c2.012,2.009,4.154,4.993,6.51,9.006
		c2.31,3.987,4.641,8.327,7.003,12.993c2.305,4.668,4.314,8.844,5.992,12.507c1.656,3.664,2.498,5.833,2.498,6.483
		c0,1.355-0.842,3.69-2.498,6.999c-1.678,3.362-3.688,7.351-5.992,12.018c-2.362,4.664-4.693,8.978-7.003,12.994
		c-2.355,3.987-4.498,6.999-6.51,9.005c-2.682,3.337-7.837,9.66-15.488,18.991c-7.677,9.331-16.681,20.182-27.017,32.498
		c-10.337,12.344-21.485,25.664-33.502,40.013c-11.993,14.322-23.166,27.832-33.503,40.502
		c-10.334,12.669-19.343,23.653-26.996,32.986c-7.674,9.361-12.828,15.68-15.488,19.018c-5.342,5.343-11.69,12.477-19.015,21.483
		c-7.352,9.006-14.35,18.012-20.995,27.019c-6.674,8.98-12.506,16.656-17.499,22.978c-4.993,6.347-7.516,9.848-7.516,10.499
		c0,1.355-0.324,4.502-0.975,9.519c-0.675,4.996-1.002,8.493-1.002,10.499c0,3.338,0.327,7.161,1.002,11.503
		c0.651,4.339,0.975,7.164,0.975,8.493L521.028,565.01v45.003c2.66,0,6.65-1.004,11.988-3.014c5.346-2.005,8.659-2.331,10.011-1.003
		c1.33,1.356,4.832,4.506,10.501,9.496c5.644,5.018,9.493,8.841,11.502,11.518c4.635,5.992,11.637,15.163,20.995,27.503
		c9.332,12.344,18.502,24.984,27.51,37.98c8.976,13.019,17.144,25.011,24.494,35.999c7.326,11.011,11.989,17.849,13.998,20.507
		c0,2.007,0.322,3.69,1.004,5.021c0,1.328,0.162,2.494,0.486,3.497c0.326,0.977,0.52,1.819,0.52,2.496
		c0,0.652-0.355,2.171-1.006,4.505c-0.682,2.33-1.004,4.147-1.004,5.479c-2.009,3.36-6.998,7.19-15.003,11.503
		c-8.002,4.342-16.491,8.683-25.497,12.994c-9.008,4.367-18.016,8-26.993,11.011c-9.006,3.015-15.517,4.505-19.504,4.505
		c-1.356,0-3.853-1.49-7.515-4.505c-3.66-3.011-7.838-6.644-12.479-11.011c-4.694-4.312-9.358-8.652-14.023-12.994
		c-4.667-4.313-8.005-8.143-9.985-11.503c-1.354-1.981-2.848-5.995-4.502-11.99c-1.683-5.997-3.664-12.508-5.997-19.504
		c-2.357-7.001-4.502-13.32-6.508-18.992c-2.008-5.666-3.338-9.167-3.992-10.493c-2.004-4.018-9.356-14.68-21.999-32.013
		c-12.694-17.336-27.181-36.84-43.51-58.5c-16.329-21.646-32.5-43.16-48.504-64.509c-16.006-21.324-28.672-38.003-38.005-49.995
		c-1.33-2.01-4.83-5.672-10.5-10.986c-5.667-5.346-9.495-8.684-11.502-10.011c-1.981,2.004-4.991,4.826-8.981,8.488
		c-4.012,3.692-8.354,7.679-13.016,12.021c-4.668,4.339-8.981,8.491-12.995,12.48c-3.99,4.011-7.002,6.669-9.006,7.998
		c-3.338,3.366-9.172,9.847-17.497,19.505c-8.331,9.686-17.005,19.994-25.995,31.006c-8.995,10.984-17.677,21.487-26.005,31.495
		c-8.34,10.011-14.157,17.008-17.497,21.014c-2.006,3.334-5.178,8.001-9.495,13.994c-4.338,5.996-8.84,12.182-13.508,18.503
		c-4.667,6.348-9.004,12.181-12.993,17.497c-4.002,5.345-6.352,9.006-7,10.988v10.007v11.018c0.648,0.649,1.995,2.98,3.988,6.996
		c2.006,3.986,4.165,8.166,6.51,12.479c2.334,4.366,4.653,8.681,7,13.022c2.333,4.338,3.823,6.835,4.502,7.484v11.014v9.983
		c-3.35,1.353-9.168,3.852-17.497,7.515c-8.355,3.665-17.01,7.841-26.016,12.503c-8.991,4.668-17.661,8.847-25.987,12.479
		c-8.354,3.662-14.19,6.161-17.499,7.516c-1.354,1.329-5.684,2.496-13.006,3.499C66.679,814.51,62.338,815,61.008,815
		c0-2.656,0.326-7.16,1.004-13.484c0.653-6.346,1.656-9.845,3.012-10.525c1.316-2.63,4.639-6.481,9.983-11.473
		c5.344-5.021,9.331-8.169,12.016-9.521H39.007z M87.023,32.986c0.65-2.66-0.188-4.83-2.506-6.512
		c-2.348-1.653-5.008-2.495-8.004-2.495c-2.999,0-5.846,0.841-8.502,2.495c-2.66,1.682-3.666,3.852-2.987,6.512
		c1.993,6.674,5.819,10.008,11.489,10.008C82.169,42.994,85.669,39.661,87.023,32.986z M174.022,565.01
		c-5.344,0-9.499,2.167-12.506,6.481c-2.996,4.34-4.506,9.005-4.506,13.994c0,5.023,1.51,9.688,4.506,14.028
		c3.008,4.342,7.162,6.482,12.506,6.482c5.317,0,9.329-2.141,11.991-6.482c2.66-4.34,4.016-9.005,4.016-14.028
		c0-4.989-1.355-9.654-4.016-13.994C183.351,567.177,179.339,565.01,174.022,565.01z M369.006,400.997
		c-5.344,0-9.331,2.171-11.991,6.51c-2.656,4.342-3.986,9.17-3.986,14.484c0,5.344,1.33,10.177,3.986,14.516
		c2.66,4.339,6.647,6.482,11.991,6.482c5.342,0,9.331-2.143,12.02-6.482c2.656-4.339,3.988-9.172,3.988-14.516
		c0-5.314-1.332-10.143-3.988-14.484C378.337,403.167,374.349,400.997,369.006,400.997z M500.029,217.996
		c0.654-2.659-0.186-4.831-2.521-6.511c-2.333-1.657-4.992-2.496-7.977-2.496c-3.008,0-5.857,0.839-8.514,2.496
		c-2.66,1.681-3.667,3.853-2.988,6.511c1.98,5.994,5.807,9.006,11.502,9.006C495.175,227.002,498.676,223.99,500.029,217.996z
		 M521.028,647c-5.342,0-9.358,2.17-12.017,6.511c-2.656,4.339-3.988,8.979-3.988,13.997c0,4.991,1.332,9.659,3.988,13.997
		c2.658,4.342,6.675,6.487,12.017,6.487c5.318,0,9.33-2.146,11.988-6.487c2.662-4.338,4.021-9.006,4.021-13.997
		c0-5.019-1.358-9.658-4.021-13.997C530.358,649.17,526.347,647,521.028,647z M543.027,114.992c-5.343,0-9.49,2.169-12.505,6.511
		c-3.012,4.34-4.5,9.17-4.5,14.485c0,5.345,1.488,10.174,4.5,14.515c3.015,4.34,7.162,6.483,12.505,6.483
		c5.318,0,9.332-2.143,11.992-6.483c2.66-4.341,4.016-9.169,4.016-14.515c0-5.315-1.355-10.145-4.016-14.485
		C552.359,117.161,548.346,114.992,543.027,114.992z"/>
</g>
<g id="Layer_1">
</g>
</svg>
