<?xml version="1.0" encoding="iso-8859-1"?>
<!-- Generator: Adobe Illustrator 16.0.0, SVG Export Plug-In . SVG Version: 6.00 Build 0)  -->
<!DOCTYPE svg PUBLIC "-//W3C//DTD SVG 1.1//EN" "http://www.w3.org/Graphics/SVG/1.1/DTD/svg11.dtd">
<svg version="1.1" xmlns="http://www.w3.org/2000/svg" xmlns:xlink="http://www.w3.org/1999/xlink" x="0px" y="0px" width="1000px"
	 height="1000px" viewBox="0 0 1000 1000" style="enable-background:new 0 0 1000 1000;" xml:space="preserve">
<g id="UCase_x5F_S">
	<path style="fill:#272525;" d="M331.595,496.018c17.305-10.225,67.219-39.362,81.352-44.054c16.869-5.561,29.619-8.275,50.375-5.75
		c20.723,2.525,42.833,3.879,59.918,0.464c33.586-8.923,36.625-22.164,46.443-29.436c2.332-2.277-28.914-80.997-24.387-85.612
		c0,0-100.854-3.738-112.411-10.684c-11.531-6.919-25.525-1.577-42.975-10.146c-17.656-8.707-40.332-17.468-63.793-29.242
		c-21.951-11.012-29.355-12.993-20.215-26.637c-16.572-7.895-43.807-11.177-43.807-11.177c-3.336-1.223-9.822-14.567-12.396-16.441
		c-18.285-13.209,36.268-36.293,56.883-48.12c5.887-3.392,24.195-14.596,47.34-18.12c-28.598-6.729-20.293-24.902-2.578-31.984
		c5.967-2.385,9.572,16.468,13.559,18.744c7.623-3.985,13.619-7.161,15.926-8.435l166.04-100.964c0-0.734,0.732-2.523,2.143-5.371
		c1.436-2.847,2.141-4.827,2.141-5.966v-3.122c0-1.328-0.459-2.548-1.438-3.688l-2.846-4.559
		c-2.85-1.492-7.891-19.989-15.516-22.458c-7.596-2.47-15.895-4.938-24.93-7.379c-9.006-2.468-17.553-4.637-25.663-6.538
		c-8.053-1.872-13.996-2.848-17.791-2.848c-1.904-0.353-5.701-0.165-11.396,0.595c-5.697,0.732-11.393,1.684-17.09,2.82
		c-5.695,1.14-11.148,2.471-16.412,3.964c-5.18,1.517-8.732,2.848-10.662,3.985c-0.943,0.38-3.066,1.412-6.398,3.121
		c-3.311,1.709-6.43,3.796-9.277,6.241c-2.82,2.467-5.424,4.935-7.84,7.376c-2.359,2.469-4.016,4.478-4.963,5.969v11.338
		c-0.947,0.785-2.602,2.278-4.99,4.558c-2.361,2.248-5.021,4.529-7.844,6.808c-2.846,2.277-5.695,4.557-8.57,6.809
		c-2.82,2.28-4.695,3.796-5.672,4.556c-5.719,3.42-15.191,8.979-28.508,16.737c-13.289,7.758-27.533,15.897-42.723,24.414
		c-15.164,8.52-29.434,16.385-42.752,23.574c-13.289,7.188-22.301,12.1-27.047,14.756c-1.896,1.112-5.451,2.821-10.684,5.101
		c-5.236,2.279-10.689,4.528-16.385,6.808c-5.727,2.28-11.395,4.45-17.121,6.538c-5.67,2.087-9.465,3.499-11.361,4.258
		c-1.928,0.407-3.799,0.571-5.699,0.571c0,0-12.016,0.432-17.551,0.894c-5.832,0.49-11.988,1.981-20.1,4.559
		c-12.318,4.42-20.074,9.305-26.855,14.051c-10.688,7.432-34.855,28.212-34.721,28.236c0.545,3.664-13.43,32.689-8.027,36.406
		c18.631,12.83,43.453,20.453,74.051,27.994c16.031,3.932,61.441,18.99,61.441,18.99c5.207,2.059,10.936,4.338,17.061,6.807
		c6.213,2.47,11.939,4.749,17.119,6.836c5.238,2.061,8.787,3.663,10.689,4.799c3.824,1.899,10.934,5.508,21.346,10.8
		c10.475,5.289,21.623,10.983,33.5,17.033c11.887,6.051,23.277,11.72,34.18,17.008c10.936,5.318,18.775,9.089,23.518,11.369
		c3.799,2.277,8.791,5.206,14.975,8.786c6.158,3.607,12.344,7.189,18.504,10.798c6.158,3.608,11.391,6.807,15.678,9.655
		c4.258,2.822,6.402,4.451,6.402,4.827c0,0-28.727,19.152-31.711,20.671c0,0-185.57,110.381-200.273,118.6
		c-24.09,13.453-32.904,7.049-47.527,11.935c-13.018,4.34-21.266,8.028-31.898,19.532c-9.172,9.896-14.186,25.443-14.186,25.443
		s31.949,24.954,32.986,25.551c2.006,1.79,6.592,5.375,13.725,10.771c7.105,5.398,15,11.094,23.68,17.09
		c8.598,5.995,17.008,11.989,25.199,17.981c8.113,5.996,14.213,10.176,18.283,12.563c7.105,4.205,20.105,11.826,38.926,22.949
		c18.826,11.083,38.656,22.906,59.541,35.467c20.865,12.613,40.965,24.443,60.307,35.51c19.313,11.121,33.064,18.744,41.203,22.949
		l63.555,31.872c13.809-2.035,38.035-11.012,47.309-17.037c11.504-7.484,23.52-20.1,29.461-25.305
		c2.033-1.817,5.561-4.803,10.664-9.011c5.096-4.203,10.141-8.679,15.27-13.478c2.199-2.061,22.516-14.431,24.713-16.331
		c-30.033-6.402-53.441-14.972-77.176-21.214c-17.334-4.557-103.405-46.21-115.639-52.854c-12.236-6.647-8.682-3.884-16.793-8.087
		c-8.164-4.202-16.33-8.709-24.441-13.51c-8.168-4.771-15.758-9.275-22.863-13.451c-7.162-4.205-12.236-7.215-15.303-9.006
		c-7.104-4.181-15.514-9.44-25.17-15.734c-9.66-6.29-11.75-7.349-19.859-13.618c-8.166-6.294-12.885-10.497-19.016-15.002
		c-6.104-4.501-8.652-7.024-7.596-7.649L331.595,496.018z M125.572,229.555c-3.311,2.28-8.736,3.394-16.359,3.394
		c-6.645,0-11.609-1.113-14.971-3.394c-3.314-2.278-4.99-4.826-4.99-7.649c0-2.848,1.676-5.504,4.99-7.947
		c3.361-2.469,8.326-3.715,14.971-3.715c7.623,0,13.049,1.246,16.359,3.715c3.361,2.443,5.016,5.099,5.016,7.947
		C130.587,224.729,128.933,227.276,125.572,229.555z M324.677,440.573c3.523-2.987,8.898-4.507,16.031-4.507
		c7.109,0,12.205,1.52,15.273,4.507c3.037,3.008,4.557,6.428,4.557,10.333c0,3.907-1.52,7.351-4.557,10.337
		c-3.068,3.01-8.164,4.501-15.273,4.501c-7.133,0-12.508-1.491-16.031-4.501c-3.58-2.986-5.344-6.431-5.344-10.337
		C319.333,447.001,321.097,443.581,324.677,440.573z M208.63,532.938c2.035-1.468,5.586-1.928,10.688-1.357
		c8.141,1.221,12.207,3.608,12.207,7.216c0,3.579-4.066,5.991-12.207,7.188c-5.102,0.567-8.652,0-10.688-1.818
		c-2.035-1.791-3.066-3.743-3.066-5.833C205.564,536.248,206.595,534.43,208.63,532.938z M143.8,611.875l-17.988-23.272
		c2.852,0.759,7.844,2.654,14.973,5.666c7.139,3.04,11.666,4.936,13.539,5.669c0.951,0.759,1.93,2.55,2.848,5.398
		c0.951,2.852,1.436,5.048,1.436,6.539H143.8z M351.152,740.088c3.529-2.987,8.385-4.504,14.488-4.504
		c7.104,0,12.453,1.517,16.033,4.504c3.547,2.982,5.342,6.291,5.342,9.871c0,3.613-1.795,6.919-5.342,9.903
		c-3.58,2.984-8.93,4.503-16.033,4.503c-6.104,0-10.959-1.519-14.488-4.503c-3.578-2.984-5.371-6.29-5.371-9.903
		C345.781,746.379,347.574,743.07,351.152,740.088z"/>
</g>
<g id="Layer_1">
</g>
</svg>
