<?xml version="1.0" encoding="iso-8859-1"?>
<!-- Generator: Adobe Illustrator 16.0.0, SVG Export Plug-In . SVG Version: 6.00 Build 0)  -->
<!DOCTYPE svg PUBLIC "-//W3C//DTD SVG 1.1//EN" "http://www.w3.org/Graphics/SVG/1.1/DTD/svg11.dtd">
<svg version="1.1" xmlns="http://www.w3.org/2000/svg" xmlns:xlink="http://www.w3.org/1999/xlink" x="0px" y="0px" width="1000px"
	 height="1000px" viewBox="0 0 1000 1000" style="enable-background:new 0 0 1000 1000;" xml:space="preserve">
<g id="UCase_x5F_Y">
	<path style="fill:#272525;" d="M180.018,716.975c-0.672-2.001-0.5-5.156,0.5-9.5c1-4.328,2.5-8.656,4.5-13c2-4.328,4-8.157,6-11.5
		c2-3.329,4-5.656,6-7.001c-0.671,0-3.344-0.655-8-1.999c-4.671-1.327-7.671-2-9-2c-2,0-5.671,0.673-11,2
		c-2.672,0.672-5,1.344-7,1.999c-1.344,1.345-3,3.672-5,7.001c-2,3.343-4,7.172-6,11.5c-2,4.344-3.672,8.672-5,13
		c-1.344,4.344-2,7.499-2,9.5c-1.344-2.656-4.344-6.829-9-12.501c-4.672-5.655-9.844-11.827-15.5-18.499
		c-5.672-6.656-11-12.828-16-18.5c-5-5.656-8.844-9.5-11.5-11.5c-0.672-0.655-2.672-2.001-6-4c-3.344-1.999-7-4.156-11-6.5
		c-4-2.328-7.672-4.5-11-6.499c-3.345-2-5.345-3.329-6-4c-2.672-2-6.344-5.501-11-10.5c-4.672-5-7-8.156-7-9.5
		c-0.671-3.328-1-10.156-1-20.5c0-10.328,0.328-17.156,1-20.5l-33.999,20c1.328-1.328,3.656-4,7-8c3.328-4,6.656-8,10-12
		c3.329-3.999,6.656-7.999,10-11.999c3.328-4,5.656-6.657,7-8c3.329-2.657,9.5-6.501,18.5-11.501c9-4.999,14.828-8.155,17.5-9.499
		c0.657,0,3.156-0.328,7.5-1c4.329-0.656,8.156-1,11.5-1c0.656,0,2,0.172,4,0.5c2,0.344,3.656,0.5,5,0.5c2,0.672,4,1,6,1
		c1.328,0.671,3.656,3,7,7c3.328,4,6.828,8.344,10.5,13c3.656,4.671,7.156,9.172,10.5,13.499c3.328,4.345,5.328,6.844,6,7.5
		c2.656,2.001,6.5,5,11.5,9c5,3.999,10.329,8.172,16,12.5c5.656,4.343,10.828,8.343,15.5,12c4.656,3.672,8,6.172,10,7.5
		c2,1.344,5,0.844,9-1.501c4-2.327,6.656-3.5,8-3.5V104.982c-1.344-2-3-5.828-5-11.5c-2-5.656-3.843-11.656-5.5-18
		c-1.672-6.328-3.172-12.5-4.5-18.5c-1.344-6-2-10.328-2-13c0-1.328,2.157-4.5,6.5-9.5c4.328-5,7.828-8.828,10.5-11.5
		c2-0.656,4.828-2,8.5-4c3.657-2,7.329-4,11-6c3.656-2,7-4,10-6c3-2,4.828-3,5.5-3c1.328,0,4.156-0.5,8.5-1.5
		c4.328-1,7.828-1.5,10.5-1.5c0.656,0,3.656,0.671,9,2c2,0.672,4.328,1,7,1c2.656,1.343,8.157,6,16.5,14
		c8.328,8,17.328,16.5,26.999,25.5c9.656,9,18.656,17.5,27,25.499c8.328,8,13.5,13,15.5,15c3.328,2.672,11,9,23,19
		c12,10,24.828,20.844,38.5,32.5c13.656,11.671,26.327,22.499,38,32.499c11.656,10,19.155,16.344,22.5,19c3.328,2,7,5.672,11,11
		c4,5.344,5.998,8.344,5.998,9c0,1.344,0.33,4.672,1,10c0.658,5.344,1.002,9.672,1.002,13c0,1.343-0.172,3-0.5,5
		c-0.344,2-0.502,4-0.502,6c-0.67,2.672-1,5-1,7c0,1.343-1.5,2.999-4.498,4.999c-3,2-6.343,4-10,6c-3.672,2-7.344,4-11,6
		c-3.672,2-6.5,3-8.5,3c-1.343,0-4.171,0.343-8.5,1c-4.343,0.672-7.843,1-10.499,1c-1.344,0-3,0-5,0s-3.671-0.329-5-1
		c-2.671,0-4.671-0.328-6-1c-2-0.656-6.343-4-13-10c-6.672-6-13.844-12.5-21.5-19.5c-7.672-7-15-13.656-22-19.999
		c-7-6.329-11.5-10.157-13.5-11.5c-2.671-2-8.344-5.656-17-11c-8.672-5.328-14.343-8.328-17-9v590.991c0,0.673-1.343,1.844-4,3.5
		c-2.672,1.673-5.844,3.672-9.5,6c-3.671,2.344-7.5,4.501-11.5,6.5c-4,2-7.344,3.672-10,4.999c-0.672,0-3.344,0.173-8,0.5
		c-4.671,0.344-8.344,0.501-11,0.501h-9c-2.671,0-5-0.328-7-1.001c-1.344-0.655-4.343-2.655-9-5.999c-4.672-3.328-9.672-7.328-15-12
		c-5.343-4.656-10.672-9.156-16-13.5c-5.344-4.327-9.344-7.827-12-10.499c-2.672-2.656-5.844-6.156-9.5-10.501
		c-3.672-4.328-7.343-8.499-11-12.498c-3.671-4-6.843-7.656-9.5-11.001C181.347,719.646,180.018,717.646,180.018,716.975z"/>
</g>
<g id="Layer_1">
</g>
</svg>
