<?xml version="1.0" encoding="iso-8859-1"?>
<!-- Generator: Adobe Illustrator 16.0.0, SVG Export Plug-In . SVG Version: 6.00 Build 0)  -->
<!DOCTYPE svg PUBLIC "-//W3C//DTD SVG 1.1//EN" "http://www.w3.org/Graphics/SVG/1.1/DTD/svg11.dtd">
<svg version="1.1" xmlns="http://www.w3.org/2000/svg" xmlns:xlink="http://www.w3.org/1999/xlink" x="0px" y="0px" width="1000px"
	 height="1000px" viewBox="0 0 1000 1000" style="enable-background:new 0 0 1000 1000;" xml:space="preserve">
<g id="UCase_x5F_O">
	<path style="fill:#272525;" d="M605.713,285.949c-0.76-5.02-1.168-7.949-1.168-8.68c-6.18-6.213-16.789-17.417-31.871-33.64
		c-15.057-16.221-31.277-33.228-48.666-50.997c-17.387-17.792-33.826-34.774-49.287-50.994
		c-15.465-16.25-26.286-27.833-32.444-34.778c-1.574-2.334-4.262-6.021-8.109-11.041c-3.881-5.019-7.762-10.633-11.611-16.817
		c-3.881-6.186-7.73-11.964-11.586-17.361c-3.877-5.427-6.564-9.276-8.109-11.61c-4.506-6.727-13.646-22.976-22.383-32.632
		C373.457,9.61,350.316-6.99,339.82-9.622l-48.26,41.099c-6.182,5.425-16.627,15.27-31.301,29.593
		c-14.674,14.269-29.951,29.54-45.791,45.789c-15.84,16.221-30.926,31.467-45.193,45.762
		c-14.318,14.322-24.168,24.168-29.564,29.567c-3.092,3.094-7.732,8.492-13.92,16.221c-6.182,7.733-12.563,15.462-19.125,23.194
		c-6.59,7.732-12.559,15.082-17.959,22.024c-5.418,6.974-8.893,11.611-10.441,13.918c-0.785,0.758-0.598,2.116,0.572,4.068
		c1.166,1.927,5.426,3.933,4.066,6.376c-2.789,5.018-15.35,8.489-15.35,9.277H40.015l199.52,200.949
		c2.248,1.955,19.965,18.665,26.475,26.912c-1.195,2.932-84.502,78.75-159.289,148.436c-31.684,29.511-33.283,0.866-51.211,38.196
		c-8.111,25.602,1.814,69.877,1.867,79.179c16.637,2.737,79.348,7.377,95.377,12.071c15.49,4.546,24.717,9.614,29.217,23.506
		c13.537-17.851,4.777-9.876,48.477-70.217c47.229-65.213,106.307-132.515,119.221-132.515
		c11.473-0.025,46.764,46.685,82.732,100.179c0.139-0.434,4.775-16.141,10.445-29.892c3.662,7.242,5.75,9.79,7.783,16.138
		c0.244,13.862-1.168,25.146-2.654,37.439c10.873,16.677,21.59,33.417,31.301,49.152c22.814,36.93,13.621,28.495,22.711,33.457
		c12.555-7.786,33.334-21.185,49.502-37.313c17.357-17.306,34.396-53.41,41.908-67.895c-17.061-27.752-23.578-29.895-47.309-53.033
		c-26.123-25.47-30.951-34.045-59.598-59.216c-37.485-32.962-72.59-58.021-72.047-64.886c2.498-5.072-2.305,1.27,9.277-11.854
		c11.584-13.158,24.334-27.265,38.25-42.318c13.917-15.053,26.852-28.999,38.844-41.749c11.967-12.748,19.502-20.668,22.598-23.761
		c5.398-6.186,12.559-14.297,21.461-24.305c8.867-10.094,17.764-20.13,26.66-30.167c8.871-10.063,16.412-18.933,22.598-26.664
		c6.186-7.732,9.656-11.991,10.414-12.75c0-1.544,0.408-4.638,1.168-9.276c0.76-4.638,1.168-7.731,1.168-9.276
		C606.881,294.249,606.473,290.966,605.713,285.949z M141.742,255.429c-7.84-0.189-23.545-1.817-23.438-2.522
		c12.342-11.529,45.168-35.616,48.043-37.704v0.026C164.392,221.252,146.681,247.265,141.742,255.429z M208.96,684
		c-3.959,11.96-26.99,33.042-39.145,38.546c-8.516,3.853-23.57,7.024-29.699,3.284c15.6-11.098,30.945-21.729,44.674-35.862
		c8.68-8.95,18.041-18.772,23.85-30.109C208.748,664.901,209.611,678.358,208.96,684z M313.722,95.982
		c2.713-3.878,6.379-5.806,11.018-5.806c5.395,0,9.461,1.927,12.178,5.806c2.686,3.824,4.07,8.085,4.07,12.75
		c0,4.611-1.385,8.87-4.07,12.747c-2.717,3.854-6.783,5.806-12.178,5.806c-4.639,0-8.305-1.952-11.018-5.806
		c-2.711-3.877-4.066-8.136-4.066-12.747C309.656,104.067,311.011,99.806,313.722,95.982z M283.099,612.469
		c-3.879,0.759-6.566,0.161-8.109-1.739c-1.549-1.951-2.336-4.285-2.336-6.97c0-2.713,0.787-5.208,2.336-7.514
		c1.543-2.332,4.23-3.094,8.109-2.332c6.186,1.521,9.275,4.638,9.275,9.274C292.375,607.831,289.285,610.895,283.099,612.469z
		 M461.181,356.07c-4.527,6.781-29.621,25.201-45.787,24.495c-23.463-1.004-42.912,9.736-53.656,37.599
		c-4.477,11.607-3.689,37.216-31.879,39.9c-17.707,1.685-12.391,3.39-23.783-5.886c-10.984-8.981-32.662-30.732-45.816-43.944
		l-90.195-85.639c-0.789-0.785,1.137-4.039,5.777-9.846c4.639-5.806,10.039-12.778,16.248-20.887
		c6.156-8.112,12.912-16.225,20.264-24.333c7.352-8.113,13.725-14.894,19.123-20.292c2.332-2.307,6.188-6.186,11.611-11.583
		c5.396-5.398,11.18-11.202,17.387-17.388c6.16-6.186,12.344-11.988,18.555-17.389c6.16-5.426,3.445-1.87,12.75-10.444
		c9.307-8.57,74.029-64.097,81.783-57.994c24.904,19.613,21.545,17.145,21.545,17.145l86.235,81.674
		c9.705,10.851,10.145,18.011,10.357,28.864c0.244,12.776-5.965,22.542-8.299,26.42c-2.311,3.853-4.449,7.705-6.377,11.61
		c-1.926,3.823,6.973,15.406,6.973,16.194c-0.408,0.787-1.387,1.141-2.654,1.356c-0.871,3.04-3.746,9.251-8.084,18.99
		C468.992,342.479,465.71,349.263,461.181,356.07z M508.354,405.276c-2.301,3.88-6.182,5.806-11.58,5.806
		c-5.426,0-9.496-1.926-12.182-5.806c-2.711-3.851-4.043-8.3-4.043-13.32c0-5.045,1.332-9.466,4.043-13.318
		c2.686-3.88,6.756-5.805,12.182-5.805c5.398,0,9.279,1.925,11.58,5.805c2.332,3.852,3.477,8.273,3.477,13.318
		C511.83,396.976,510.686,401.425,508.354,405.276z M550.701,358.158c-3.098,4.042-21.105,16.276-25.85,11.529
		c-3.939-3.96,4.363-20.318,6.348-22.923c3.715-4.882,9.65-7.459,15.434-4.066C551.459,345.517,554.443,353.25,550.701,358.158z"/>
</g>
<g id="Layer_1">
</g>
</svg>
