<?xml version="1.0" encoding="iso-8859-1"?>
<!-- Generator: Adobe Illustrator 16.0.0, SVG Export Plug-In . SVG Version: 6.00 Build 0)  -->
<!DOCTYPE svg PUBLIC "-//W3C//DTD SVG 1.1//EN" "http://www.w3.org/Graphics/SVG/1.1/DTD/svg11.dtd">
<svg version="1.1" xmlns="http://www.w3.org/2000/svg" xmlns:xlink="http://www.w3.org/1999/xlink" x="0px" y="0px" width="1000px"
	 height="1000px" viewBox="0 0 1000 1000" style="enable-background:new 0 0 1000 1000;" xml:space="preserve">
<g id="UCase_x5F_Z">
	<path style="fill:#272525;" d="M248.995,402.994c-1.346-1.327-3.346-4-6.002-8c-2.67-4-5.842-8.156-9.5-12.5
		c-3.67-4.329-6.998-8.5-9.998-12.5c-3.002-4-4.844-7-5.502-9c-5.342-7.329-13.342-19-24-35c-10.67-16-22.842-34-36.498-53.999
		c-13.672-20-27.844-41.156-42.498-63.499c-14.674-22.328-28.846-43.656-42.5-63.999c-13.672-20.328-25.844-38.499-36.502-54.499
		c-10.67-16-18.67-28-24-36c0-1.328-0.172-3.156-0.498-5.5c-0.346-2.329-0.5-4.156-0.5-5.5v-5c0-1.328,0.328-2.656,0.998-4
		c1.33-2.656,4.658-6.656,10.002-12c5.328-5.329,9-8.656,11-10c1.328-0.656,4-2.157,8-4.5c4-2.328,8.156-4.5,12.5-6.5
		c4.328-2,8.5-3.828,12.5-5.5c4-1.656,6.656-2.828,7.998-3.5c1.328,0,2.658-0.328,4-1c1.328,0,2.502-0.156,3.502-0.5
		c0.998-0.328,2.156-0.5,3.498-0.5c1.33,0,2.328,0.172,3.002,0.5C88.653-9.156,89.651-9,90.995-9c1.328,0.672,2.33,1,3,1
		c2.002,1.344,5.158,3.672,9.5,7c4.328,3.344,8.828,7.344,13.5,12c4.656,4.671,8.658,9.172,12,13.5c3.328,4.344,5.656,7.5,7,9.5
		c1.328,0.672,1.658,3.844,1,9.5c-0.672,5.671-1,9.171-1,10.5c0.656,1.344,1.828,3.672,3.5,7c1.656,3.344,3.5,7.344,5.498,12
		c2.002,4.672,4,9,6.002,13c1.998,4,3.656,7,5,9c1.998,3.343,5.156,8,9.5,14c4.326,6,8.656,12.343,13,19
		c4.326,6.672,8.326,12.672,12,18c3.656,5.344,6.156,9,7.498,10.999c1.33,1.344,3.83,4,7.502,8.001c3.654,4,7.654,8.171,11.998,12.5
		c4.33,4.344,8.5,8.344,12.5,12c4,3.672,6.656,6.172,8,7.5c0-2,0.156-5.328,0.502-10c0.326-4.656,0.498-9.656,0.498-15
		c0-5.328,0.156-10.5,0.502-15.5c0.326-5,0.498-8.5,0.498-10.5c0-2.656-0.172-6.828-0.498-12.5
		c-0.346-5.656-0.502-11.156-0.502-16.5c0-5.328-0.172-10.156-0.498-14.5c-0.346-4.328-0.502-6.828-0.502-7.5c0-2-1-6-3-12
		c-1.998-6-4.342-12.5-7-19.5c-2.672-7-5-13.328-6.998-19c-2.002-5.656-3.002-9.156-3.002-10.5c0-1.328,2.5-4.656,7.502-10
		c5-5.329,9.156-9.329,12.498-12c2-0.656,5.156-2.157,9.502-4.5c4.326-2.328,8.656-4.5,12.998-6.5c4.328-2,8.328-3.828,11.998-5.5
		c3.658-1.656,5.83-2.828,6.502-3.5c1.328,0,4.658-0.328,10-1c5.328-0.656,9.656-1,13-1c0.656,0,2,0.172,4,0.5
		c1.998,0.344,4,0.5,6,0.5c2.656,0.672,5.328,1,8,1c1.328,1.344,2.998,3.672,5,7c1.998,3.344,4.156,7.344,6.5,12
		c2.328,4.671,4.326,9.172,5.998,13.5c1.656,4.344,2.828,7.5,3.502,9.5c1.326,8,3.154,22.5,5.498,43.5
		c2.328,21,4.502,43.499,6.5,67.499c2.002,24,3.828,46.844,5.5,68.5c1.656,21.672,2.5,36.843,2.5,45.499
		c2.002-1.328,5.656-4.5,11-9.5c5.33-5,8.658-8.5,10-10.5c6-8,13.5-18.656,22.5-31.999c9-13.328,17.828-26.5,26.5-39.5
		c8.656-13,16.156-24.656,22.5-35c6.328-10.328,9.826-16.156,10.5-17.5c0-2,0-7,0-15s-0.172-16.656-0.502-26
		c-0.342-9.328-0.498-17.828-0.498-25.499c0-7.656,0.326-12.5,1-14.5c0-1.328,2.654-4.656,8-10c5.326-5.329,9.656-9.329,12.998-12
		c3.328-2,10-5.5,20-10.5s16.656-8.156,20.002-9.5h10.998h9.002c2.654,1.344,6.654,4.5,11.998,9.5c5.328,5,8.656,8.5,10,10.5
		c1.328,2.671,3.154,6.343,5.5,11c2.326,4.671,4.5,9.172,6.498,13.5c2.002,4.344,3.828,8.172,5.502,11.5
		c1.656,3.344,2.498,5.344,2.498,6c0,0.672-1.498,3.5-4.498,8.5c-3,5-6.844,10.672-11.502,17c-4.67,6.343-9.342,12.843-13.998,19.5
		c-4.674,6.671-8.674,12-11.998,16c-4,6-10.846,15.5-20.502,28.5c-9.672,13-20.5,27.671-32.499,43.999
		c-12,16.344-24.674,33.343-38,51c-13.344,17.672-26,34.671-38,50.999c-12,16.344-23,30.844-32.998,43.5
		c-10.002,12.671-17.346,22-22.002,28v328.994c0.656,2.001,2.156,4.844,4.5,8.5c2.33,3.673,4.658,7.673,7.002,12
		c2.326,4.344,4.326,8.5,5.998,12.501c1.656,4,2.83,6.671,3.5,8c0,1.344,0.328,2.671,1.002,4c0,1.344,0.154,2.499,0.498,3.499
		c0.33,1.001,0.5,1.845,0.5,2.5c0,1.344-0.17,2.5-0.5,3.5c-0.344,1-0.498,2.172-0.498,3.5c-0.674,1.344-1.002,2.672-1.002,4
		c-1.342,1.344-3.672,3.844-6.998,7.5c-3.344,3.672-7.344,7.672-12,12c-4.674,4.344-9,8.5-13,12.5s-7,6.999-9,8.999
		c-2.002,1.344-5.174,3.172-9.5,5.501c-4.344,2.327-8.672,4.5-13,6.499c-4.346,2.001-8.346,3.828-12,5.501
		c-3.672,1.655-5.844,2.499-6.502,2.499l-7.998-8c-2.674-1.999-5.172-4.172-7.5-6.499c-2.346-2.329-4.172-4.157-5.5-5.501
		c-2-2.656-4.672-6.156-8-10.499c-3.344-4.329-6.672-8.657-9.998-13.001c-3.346-4.327-6.174-8.156-8.502-11.499
		c-2.344-3.328-3.498-5.328-3.498-6V402.994z M155.995,135.998c-5.344,0-9.172,2.172-11.5,6.5c-2.344,4.344-3.5,9-3.5,14
		c0,5,1.156,9.672,3.5,14c2.328,4.343,6.156,6.5,11.5,6.5c4.656,0,8.328-2.157,11-6.5c2.656-4.328,4-9,4-14c0-5-1.344-9.656-4-14
		C164.323,138.17,160.651,135.998,155.995,135.998z M360.991,300.996c-3.344-1.328-5.672-1-6.998,1c-1.346,2-2.002,4.5-2.002,7.5
		c0,3,0.656,5.844,2.002,8.5c1.326,2.672,3.654,3.672,6.998,3c6.658-2,10-5.656,10-11
		C370.991,304.667,367.649,301.668,360.991,300.996z"/>
</g>
<g id="Layer_1">
</g>
</svg>
