<?xml version="1.0" encoding="iso-8859-1"?>
<!-- Generator: Adobe Illustrator 16.0.0, SVG Export Plug-In . SVG Version: 6.00 Build 0)  -->
<!DOCTYPE svg PUBLIC "-//W3C//DTD SVG 1.1//EN" "http://www.w3.org/Graphics/SVG/1.1/DTD/svg11.dtd">
<svg version="1.1" xmlns="http://www.w3.org/2000/svg" xmlns:xlink="http://www.w3.org/1999/xlink" x="0px" y="0px" width="1000px"
	 height="1000px" viewBox="0 0 1000 1000" style="enable-background:new 0 0 1000 1000;" xml:space="preserve">
<g id="UCase_x5F_D">
	<path style="fill:#272525;" d="M644.572,749.982c-2.346-5.997-5.006-12.33-8.004-18.991c-3.012-6.675-5.994-13.009-9.008-19.019
		c-2.998-5.994-5.496-9.999-7.486-11.992V43.876c0-2.007-1.848-4.829-5.508-8.492c-3.678-3.662-8.166-7.841-13.512-12.508
		c-5.344-4.666-10.838-8.831-16.494-12.507c-5.672-3.662-10.502-6.498-14.504-8.492c-1.344,0-4.355-0.326-8.994-1.003
		c-4.68-0.651-8.357-1.004-11.012-1.004c-1.334,0-3.176,0.176-5.496,0.501c-2.348,0.339-4.502,0.502-6.498,0.502
		c-2.688,0.678-5.346,1.003-8.004,1.003c-2.674,1.994-6.172,4.83-10.502,8.492c-4.34,3.677-8.68,7.842-13.006,12.507
		c-4.344,4.667-7.991,8.846-11.003,12.508c-2.984,3.649-8.464,12.303-8.492,14.312c-1.547,2.7-3.661,11.611-11.556,30.374
		c-6.946,16.495-19.4,40.519-32.124,67.433c-7.95,16.794-27.022,49.039-32.423,59.322c-6.374,12.155-28.866,52.512-32.122,59.037
		c-6.293,12.627-10.702,24.755-19.67,36.478c-5.126,6.701-11.869,7.813-19.1,5.208c-7.245-2.604-11.597-10.131-17.011-15.125
		c-5.644-5.209-10.825-12.263-22.058-23.942c-18.368-21.961-37.264-44.847-54.452-67.569
		c-24.011-31.757-40.995-71.544-47.723-88.406c-7.57-18.992-13.593-35.311-21.976-47.751c-5.345-7.922-13.322-16.942-21.787-24.105
		c-8.017-6.783-26.438-23.563-28.432-25.612c-1.995-2.048-5.888-5.372-7.136-7.163c-2.333-3.336-3.838-5.331-4.504-5.996
		c-2.659,0-5.345-0.326-7.991-1.003c-1.993,0-3.838-0.164-5.493-0.502C99.811,0.046,98.32-0.13,96.989-0.13
		c-3.35,0-7.514,0.353-12.507,1.004c-4.992,0.678-8.167,1.003-9.496,1.003c-1.356,0.665-3.676,1.845-6.999,3.5
		c-3.351,1.668-7.19,3.663-11.504,5.996c-4.341,2.346-8.505,4.666-12.506,7c-4.003,2.346-7,3.853-9.009,4.503
		c-2.658,2.008-6.497,5.67-11.502,11.001c-4.992,5.345-7.489,8.669-7.489,9.998l39.001,81.013v308.044
		c1.329,2.007,3.161,5.996,5.494,12.005c2.332,6.009,4.503,12.343,6.511,19.005c1.995,6.673,3.825,12.997,5.508,18.99
		c1.654,6.009,2.495,10.365,2.495,13.01c0,1.994-0.841,5.005-2.495,8.995c-1.683,4.015-3.514,8.18-5.508,12.508
		c-2.007,4.34-4.179,8.504-6.511,12.506c-2.333,4.004-4.165,6.351-5.494,7v225.034c0,1.995,0.827,5.171,2.51,9.514
		c1.655,4.339,3.5,8.653,5.494,12.993s4.165,8.344,6.497,11.993c2.334,3.661,4.151,6.158,5.508,7.515c1.994,0.65,4.315,0.99,7,0.99
		c2.66,0.665,6.321,1.004,10.989,1.004c3.336,0,7.515-0.339,12.507-1.004c5.005-0.664,8.166-0.99,9.495-0.99
		c2.007-1.356,8.004-4.666,18.015-10.011c9.998-5.316,21.84-6.215,27.917-14.721c17.364-24.309,12.699-28.107,14.977-38.214
		c1.52-6.726,28.65-48.835,41.89-68.366c18.205-26.861,31.702-49.828,36.328-57.804c2.726-4.735,15.248-25.626,26.845-45.175
		c5.631-1.422,9.904-0.066,14.094-1.854c18.233-7.816,23.034-9.269,29.084-17.583c5.209-7.163,4.221-12.194,2.387-21.055
		c0.014-5.411-10.416-11.284-10.362-18.245c3.201-4.979,5.753-8.954,6.972-11.273c3.039-5.776,12.561-17.58,18.802-25.57
		c6.214-7.988,12.318-2.659,16.061,1.275c15.737,16.538,24.893,28.934,36.764,45.432c8.882,12.37,43.098,69.915,47.166,76.398
		c7.815,12.438,29.233,50.356,41.672,69.455c11.735,18.003,23.509,41.509,26.902,46.6c4.637,6.944,20.266,40.221,25.475,54.112
		c5.725,15.288,5.563,25.002,7.244,28.648c1.656,3.664,5.506,6.594,6.84,7.95c2.004,0.65,4.34,0.99,6.996,0.99
		c2.012,0.665,4.016,1.004,6.01,1.004h5.006c3.322,0,7.488-0.339,12.492-1.004c5.008-0.664,8.154-0.99,9.512-0.99
		c0.652-0.68,2.822-1.846,6.496-3.501c3.652-1.652,7.65-3.662,12.006-6.008c4.314-2.32,8.494-4.503,12.496-6.497
		c4.002-2.009,7-3.665,8.994-5.007c2.656-1.995,6.51-5.657,11.5-11.001c5.008-5.319,7.518-8.657,7.518-10.001
		C648.398,759.993,646.906,755.978,644.572,749.982z M90.303,261.045c-8.723,0-13.091-8.994-13.091-17.989
		c-0.014-8.98,4.355-17.986,13.091-17.986c8.723,0,13.09,9.006,13.104,17.986C103.42,252.051,99.053,261.045,90.303,261.045z
		 M120.974,200.584c-6.539,0-9.89-9.916-10.066-17.934c-0.203-8.492,3.147-19.372,10.066-19.372
		c6.729,0,10.079,10.405,10.092,18.679C131.066,190.206,127.703,200.584,120.974,200.584z M280.421,440.38
		c-6.292,12.06-19.384,33.275-30.087,49.188c-11.45,17.01-22.967,31.511-34.728,45.729c-10.418,12.587-19.534,29.52-34.51,35.378
		c-13.214,5.168-19.887,7.446-26.1,1.954V259.211c8.953-1.084,15.681,0.341,22.844,2.607c13.674,4.34,20.185,8.899,28.434,13.457
		c18.952,10.473,31.905,29.952,43.843,47.317c13.363,19.438,25.123,36.003,32.776,50.354c7.094,13.307,12.587,19.683,11.149,28.365
		C292.603,409.898,287.366,427.071,280.421,440.38z M315.883,376.854c-12.59-0.368-19.833-17.799-18.017-31.04
		c1.438-10.498,9.904-17.458,16.497-17.796c9.332-0.475,17.363,10.514,18.447,22.357
		C333.992,363.302,327.316,377.179,315.883,376.854z M538.027,682.088c-3.09-2.956-6.266-5.847-9.307-8.912
		c-3.686-3.69-6.783-7.868-9.971-11.936c-0.119-0.857-8.271-21.069-10.782-30.863c-1.384-5.427,1.357-9.429,5.196-11.448
		c8.006,11.327,16.428,22.342,25.219,33.086c0.16,0.651,4.502,12.492,5.9,17.972C545.857,676.161,542.533,680.527,538.027,682.088z
		 M553.334,512.943c-1.428,9.916-3.91,19.747-6.514,26.914c-2.414,6.66-7.164,10.632-13.24,13.671
		c-2.93,1.467-8.465,1.302-14.107-0.65c-4.719-1.628-2.74-0.569-10.203-6.729c-18.665-15.409-71.963-104.955-79.222-122.563
		c-7.569-18.339-9.849-20.835-11.584-35.88c-1.328-11.543,8.859-30.428,19.398-49.487c10.541-19.058,37.85-65.858,48.618-82.478
		c22.004-33.981,18.016-29.519,28.215-42.106c10.203-12.589,25.33-26.48,39.504-17.216l-23.727,72.061
		c0,0,14.758,3.485,20.553,19.982C561.104,317.219,558.541,476.695,553.334,512.943z"/>
</g>
<g id="Layer_1">
</g>
</svg>
