<?xml version="1.0" encoding="iso-8859-1"?>
<!-- Generator: Adobe Illustrator 16.0.0, SVG Export Plug-In . SVG Version: 6.00 Build 0)  -->
<!DOCTYPE svg PUBLIC "-//W3C//DTD SVG 1.1//EN" "http://www.w3.org/Graphics/SVG/1.1/DTD/svg11.dtd">
<svg version="1.1" xmlns="http://www.w3.org/2000/svg" xmlns:xlink="http://www.w3.org/1999/xlink" x="0px" y="0px" width="1000px"
	 height="1000px" viewBox="0 0 1000 1000" style="enable-background:new 0 0 1000 1000;" xml:space="preserve">
<g id="UCase_x5F_J">
	<path style="fill:#272525;" d="M59.976,304.347c-8.498-10.899-15.172-27.839-19.422-40.636
		c-4.248-12.795,17.574-59.049,31.84-57.555c14.234,1.491,21.266-0.608,21.266-0.608L307.417,16.597
		c1.846-0.609,3.719-0.885,5.588-0.885c1.367-0.583,2.785-0.859,4.174-0.859c1.416,0,2.582,0,3.518,0
		c2.326,0,5.334,0.276,9.078,0.859c3.717,0.557,6.041,0.885,6.979,0.885c0.48,0,2.553,2.452,6.271,7.359
		c3.74,4.931,6.293,8.799,7.684,11.733c0.457,1.139,1.521,3.564,3.162,7.333c1.621,3.768,3.111,7.485,4.529,11.279
		c1.391,3.766,2.678,7.485,3.844,11.278c1.164,3.742,1.973,6.17,2.428,7.358v9.535v9.534c-0.936,2.301-3.111,5.762-6.627,10.392
		c-3.49,4.653-5.941,7.511-7.336,8.648c-0.934,0.607-2.781,1.896-5.559,3.946c-2.83,1.999-5.715,4.021-8.752,6.042
		c-3.035,2.024-5.814,3.921-8.369,5.667c-2.578,1.718-4.553,2.856-5.945,3.438c-0.932,1.164-3.158,1.746-6.625,1.746
		c-3.514,0-6.195-0.582-8.041-1.746c-5.133,3.465-13.756,10.418-25.844,20.814c-12.139,10.392-25.037,21.669-38.766,33.808
		c-13.756,12.114-26.555,23.67-38.436,34.671c-11.891,10.95-20.158,18.762-24.783,23.393c-1.418,1.714-3.617,4.349-6.652,7.812
		c-3.035,3.49-6.041,7.232-9.076,11.252c-3.037,4.047-5.818,7.791-8.371,11.278c-2.58,3.465-4.324,6.069-5.232,7.79
		c-0.506,1.163-0.711,2.278-0.711,3.489v5.186v6.092c0,1.139,0.205,2.277,0.711,3.466c0.426,1.137,1.844,3.465,4.17,6.931
		c2.326,3.459,5.008,7.028,8.041,10.819c3.035,3.768,6.172,7.639,9.432,11.711c3.26,4.019,5.818,6.929,7.689,8.646
		c3.236,3.49,8.367,9.106,15.375,16.893c6.977,7.817,14.188,15.627,21.646,23.439c7.434,7.793,14.314,15.15,20.609,22.102
		c6.271,6.929,10.598,11.255,12.92,13.026c1.391,1.113,3.594,2.706,6.629,4.729c3.029,1.999,6.145,4.02,9.432,6.068
		c3.234,1.999,6.041,3.744,8.367,5.209c2.328,1.416,3.971,2.175,4.906,2.175c1.391,0.556,4.881,0.858,10.471,0.858
		s11.531-0.149,17.83-0.456c6.27-0.278,12.316-0.556,18.154-0.857c5.816-0.305,9.408-0.15,10.824,0.455
		c0.48,0,2.553,2.428,6.271,7.334c3.74,4.929,6.293,8.796,7.684,11.731c0.457,1.72,1.521,4.324,3.162,7.791
		c1.621,3.489,3.111,7.23,4.529,11.252c1.391,4.045,2.678,7.813,3.844,11.277c1.164,3.465,1.973,6.042,2.428,7.813v9.539v8.671
		c-0.936,2.3-3.111,5.739-6.627,10.393c-3.49,4.628-5.941,7.509-7.336,8.649c-1.391,1.746-6.268,5.635-6.268,5.635l-25.443-10.134
		l7.615,21.416c0,0-4.072,2.151-4.529,2.151c-0.932,0-2.578-0.709-4.904-2.151c-2.324-1.44-5.133-3.185-8.369-5.186
		c-3.262-2.046-6.297-4.072-9.082-6.097c-2.801-2.043-4.9-3.889-6.293-5.635c-2.328-2.302-6.754-6.804-13.277-13.43
		c-6.5-6.622-14.084-14.437-22.711-23.39c-8.594-8.977-17.926-18.611-27.914-29.03c-10.018-10.417-19.471-20.08-28.297-29.055
		c-8.852-8.978-16.539-16.768-23.064-23.419c-6.523-6.626-10.924-11.1-13.273-13.401c-3.719-4.655-8.727-10.116-14.998-16.489
		c-6.295-6.373-12.564-12.439-18.865-18.205c-6.295-5.767-11.658-10.798-16.084-15.172c-4.422-4.327-6.852-6.501-7.305-6.501
		c-0.961,0-8.775-4.552-14.643-4.348C85.949,333.173,68.447,315.247,59.976,304.347z M570.385,521.972
		c-0.174,9.436-9.707,46.661-12.439,44.967c-3.943-2.455-8.799,1.592-9.734,1.592l-114.555,93.628c0,0-27.715,17.903-28.627,19.096
		c-0.961,1.134-3.158,4.143-6.65,9.076c-3.486,4.905-6.17,8.219-8.016,9.934c-4.197,4.077-10.594,10.146-19.221,18.209
		c-8.621,8.096-17.471,16.032-26.551,23.875c-9.08,7.786-17.445,14.87-25.135,21.243c-7.689,6.322-12.467,10.366-14.338,12.11
		c-1.389,0-2.555,0.276-3.492,0.884c-0.934,0-1.744,0.13-2.453,0.406c-0.682,0.303-1.262,0.455-1.742,0.455
		c-0.453,0-1.518-0.302-3.109-0.861c-1.646-0.607-2.936-0.884-3.846-0.884c-2.348-1.744-5.033-6.069-8.039-12.996
		c-3.035-6.955-6.045-14.291-9.105-22.105c-3.01-7.813-5.566-15.598-7.689-23.389c-2.07-7.815-3.133-13.452-3.133-16.947
		c0-1.132,1.063-3.309,3.133-6.473c2.123-3.183,4.68-6.8,7.689-10.819c3.061-4.071,6.07-8.146,9.105-12.139
		c3.006-4.072,5.691-6.956,8.039-8.675c1.365-1.16,4.174-2.478,8.371-3.895c4.197-1.465,8.727-3.187,13.604-5.211
		c4.906-2.044,9.307-3.891,13.277-5.61c3.941-1.773,6.396-2.91,7.328-3.492c2.813-1.718,10.273-8.116,22.385-19.077
		c12.088-10.979,25.695-23.565,40.865-37.682c15.1-14.184,30.119-28.196,45.037-42.077c14.896-13.835,26.529-24.834,34.922-32.927
		c1.418-1.164,3.971-4.194,7.689-9.079c3.717-4.931,6.041-8.266,6.98-9.986c-1.395-1.747-3.389-4.349-5.945-7.788
		c-2.557-3.469-5.332-7.233-8.367-11.281c-3.033-4.045-5.946-7.787-8.75-11.278c-2.781-3.44-4.656-6.066-5.564-7.789
		c-2.354-2.882-6.877-7.964-13.629-15.172c-6.754-7.234-13.986-14.718-21.648-22.533c-7.658-7.809-15.021-15.294-22.002-22.529
		c-7.004-7.257-14.666-15.198-14.666-15.198l12.998-17.476l-35.703-2.451c0,0-8.523-7.789-12.217-11.254
		c-3.768-3.464-6.324-5.513-7.688-6.069h-7.002h-7.695c-0.447,0.556-2.07,1.747-4.873,3.466c-2.783,1.746-5.715,3.615-8.727,5.611
		c-3.035,2.074-6.068,4.047-9.105,6.071c-3.006,2.049-4.754,3.337-5.232,3.919h-7.688h-6.955c-0.961-2.907-2.705-7.917-5.256-15.172
		c-2.584-7.234-5.49-14.744-8.729-22.534c-3.26-7.785-6.17-15.297-8.727-22.559c-2.551-7.203-4.324-12.286-5.256-15.146
		c-0.912-1.162-1.746-4.929-2.432-11.276c-0.707-6.348-1.063-10.092-1.063-11.256c1.875,0,3.945-2.298,9.613-4.726
		c4.096-1.769,21.848-14.337,21.848-14.337c1.365,0,3.363,0.126,5.918,0.431c2.578,0.276,5.486,0.554,8.725,0.883
		c3.26,0.278,6.17,0.534,8.748,0.861c2.555,0.277,4.529,0.683,5.92,1.314c0.936,0.53,2.682,1.72,5.234,3.413
		c2.576,1.744,5.359,3.643,8.395,5.666c3.033,2.021,5.943,3.891,8.748,5.636c2.783,1.723,4.629,3.165,5.59,4.325
		c4.174,4.02,10.801,10.394,19.904,19.066c9.074,8.652,19.191,18.64,30.367,29.919c11.203,11.251,23.064,22.961,35.631,35.097
		c12.566,12.139,24.455,23.824,35.631,35.103c11.176,11.3,21.168,21.39,30.042,30.344c8.824,8.951,15.379,15.729,19.551,20.356
		c0,0,6.979,9.28,14.643,2.986c5.791,6.043,27.563,48.6,34.363,44.656C571.527,495.12,570.385,521.972,570.385,521.972z
		 M300.767,121.061c1.869,0.583,3.365-0.152,4.555-2.174c1.16-2.05,1.742-4.324,1.742-6.932c0-2.604-0.582-5.057-1.742-7.357
		c-1.189-2.326-2.686-3.21-4.555-2.578c-4.652,1.746-6.98,5.031-6.98,9.936C293.787,116.837,296.115,119.924,300.767,121.061z
		 M534.479,463.128c0-4.651-1.541-8.213-4.551-10.872c-3.035-2.578-6.297-3.868-9.762-3.868c-3.514,0-6.779,1.291-9.811,3.868
		c-3.033,2.659-4.527,6.221-4.527,10.872c0,4.602,1.494,8.067,4.527,10.396c3.031,2.302,6.297,3.464,9.811,3.464
		c3.465,0,6.727-1.162,9.762-3.464C532.938,471.195,534.479,467.729,534.479,463.128z M508.281,525.946
		c0-4.655-1.52-8.114-4.553-10.418c-3.033-2.303-6.396-3.465-10.113-3.465c-3.744,0-7.133,1.162-10.143,3.465
		c-3.033,2.304-4.523,5.763-4.523,10.418c0,4.627,1.49,8.066,4.523,10.368c3.01,2.328,6.398,3.485,10.143,3.485
		c3.717,0,7.08-1.157,10.113-3.485C506.762,534.013,508.281,530.573,508.281,525.946z M128.003,243.225
		c0-4.903-2.102-8.242-6.301-9.96c-1.846-0.582-3.359,0.276-4.527,2.578c-1.16,2.3-1.744,4.779-1.744,7.383
		c0,2.582,0.584,4.908,1.744,6.932c1.168,2.022,2.682,2.73,4.527,2.199C125.902,251.142,128.003,248.132,128.003,243.225z
		 M153.337,197.125c0-4.625-1.516-8.091-4.549-10.418c-3.033-2.3-6.273-3.461-9.76-3.461c-3.52,0-6.754,1.161-9.791,3.461
		c-3.031,2.328-4.525,5.793-4.525,10.418c0,4.605,1.494,8.068,4.525,10.371c3.037,2.303,6.271,3.514,9.791,3.514
		c3.486,0,6.727-1.21,9.76-3.514C151.822,205.192,153.337,201.73,153.337,197.125z M279.474,450.005
		c0-4.627-1.516-8.243-4.553-10.827c-3.033-2.601-6.396-3.915-10.139-3.915c-3.717,0-7.107,1.314-10.117,3.915
		c-3.033,2.584-4.525,6.2-4.525,10.827c0,4.604,1.492,8.069,4.525,10.367c3.01,2.326,6.4,3.492,10.117,3.492
		c3.742,0,7.105-1.166,10.139-3.492C277.958,458.074,279.474,454.609,279.474,450.005z"/>
</g>
<g id="Layer_1">
</g>
</svg>
