<?xml version="1.0" encoding="iso-8859-1"?>
<!-- Generator: Adobe Illustrator 16.0.0, SVG Export Plug-In . SVG Version: 6.00 Build 0)  -->
<!DOCTYPE svg PUBLIC "-//W3C//DTD SVG 1.1//EN" "http://www.w3.org/Graphics/SVG/1.1/DTD/svg11.dtd">
<svg version="1.1" xmlns="http://www.w3.org/2000/svg" xmlns:xlink="http://www.w3.org/1999/xlink" x="0px" y="0px" width="1000px"
	 height="1000px" viewBox="0 0 1000 1000" style="enable-background:new 0 0 1000 1000;" xml:space="preserve">
<g id="Glyph_x5F_Caret">
	<path style="fill:#2B2A2A;" d="M316.921,265.993l9.01,25.001l30.992,38.98l28.989,45.993l25.004,31.988l13.99,26.995
		l-17.991,21.992l-31.983,5.006l-19.01-48.99l-14.999-38.984l-30.996-50.994l-8.99-28.992l-60.989-84.989l-9.994-5.992
		l-69.994,97.979l-10.981,27.984l-46.997,84.988l-5.992,21.996l-10.005,30.997l-25.995-11L36,440.958l1.999-14.011l16.987-21.985
		l13.994-14.001h-0.99l63.988-111.966l32-48.991v-16l15.985-16.989h-0.993l26.983-50.999l5.994-1.991l34.004-2.009l1.994,13.003
		l14.008,17.993l29.992,45.994L316.921,265.993z"/>
</g>
<g id="Layer_1">
</g>
</svg>
