<?xml version="1.0" encoding="iso-8859-1"?>
<!-- Generator: Adobe Illustrator 16.0.0, SVG Export Plug-In . SVG Version: 6.00 Build 0)  -->
<!DOCTYPE svg PUBLIC "-//W3C//DTD SVG 1.1//EN" "http://www.w3.org/Graphics/SVG/1.1/DTD/svg11.dtd">
<svg version="1.1" xmlns="http://www.w3.org/2000/svg" xmlns:xlink="http://www.w3.org/1999/xlink" x="0px" y="0px" width="1000px"
	 height="1000px" viewBox="0 0 1000 1000" style="enable-background:new 0 0 1000 1000;" xml:space="preserve">
<g id="Layer_2">
	<g id="Box" style="display:none;">
		<path style="display:inline;fill:#272525;" d="M66.974,874.983l-15.996,1.999l-10.995-1.999v-33.989l7.996-23.993l-5.997-31.991
			l4.999-177.945l-3-350.89l6.997-24.993l-6.997-8.997l-1.999-68.979l6.997-1.998l-4.998-13.998l195.94,3l8.996-1h95.972l9.996,2
			l47.986-4l13.996,2l2,33.991l-5.998,22.992l2.998,31.99l-5.998,166.949l3,362.887l-6.998,24.993l10.997,8.999l-1.001,66.978
			l-0.999,16.993l-43.987,2l-193.94-3.997l-8.998,0.999h-55.982l-11.996-2l-27.991,3.999L66.974,874.983z M76.971,841.993
			l277.914-1.999h16.996l3.999-72.978l0.999-118.964l5.999-120.964v-49.983l-0.999-12.996l-1-86.972v-4.999l-2.999-52.984l11.998-5
			l-11.998-16.994l1-57.982l1-65.979l-293.91,1l-0.999,54.982l-1,6.999L79.97,354.144l-5.998,120.962v49.983l1,13l0.999,86.97v4.998
			l2.999,52.984l-11.996,15.996l11.996,5.998v78.976l1-3L76.971,841.993z"/>
	</g>
	<g style="display:none;">
		<path style="display:inline;fill:#272525;" d="M293.193,642.291l-13.922,1.989l-17.9,2.983l-9.945,0.993l-26.85,16.905
			l-63.645,18.896l-24.861,7.956l-4.973,1.988l-13.922,4.973l0.995,3.978l-14.917,89.5l-0.994,5.967v37.789l-5.967,42.762
			l-38.784-2.984l-16.905-15.911L66.459,751.68l9.944-60.661l12.928-15.911l-0.995-2.984v-19.889l23.867-131.268l3.978-20.883
			l4.972-20.884v-11.933l0.994-11.934l28.839-145.189l12.929-28.839l-5.967-5.967l5.967-41.767l6.961-43.755l9.944-54.695
			l53.7,2.983l-2.983,22.873l4.972,13.922l3.978,13.922l32.816,153.145l-3.978,16.906l1.988,7.956l2.984,8.95l57.678,253.584v17.901
			l26.85,99.443l8.949,67.623l16.907,49.722l-33.812,15.911h-5.967l-13.922-4.972l-12.928-102.428l9.945-8.95l-11.934-13.922
			l-4.972-35.802l-2.983-8.948l-2.983-26.851L293.193,642.291z M145.021,533.895l-11.933,68.618l-1.989,9.944l-1.989,9.944
			l-2.983,29.833h12.928l4.972-0.994l21.878-0.994l0.994-2.982l0.994-3.979l67.623-21.879l28.839-8.949l12.927-5.967l11.934-5.966
			h-0.994l-4.973-7.957l-25.855-126.294l-7.956-54.695l-36.794-169.055l-4.972-19.89l-0.995,17.9l-33.812,158.118l-9.944,15.911
			l2.984,11.934L145.021,533.895z"/>
	</g>
</g>
<g id="Layer_1">
</g>
</svg>
