<?xml version="1.0" encoding="iso-8859-1"?>
<!-- Generator: Adobe Illustrator 16.0.0, SVG Export Plug-In . SVG Version: 6.00 Build 0)  -->
<!DOCTYPE svg PUBLIC "-//W3C//DTD SVG 1.1//EN" "http://www.w3.org/Graphics/SVG/1.1/DTD/svg11.dtd">
<svg version="1.1" xmlns="http://www.w3.org/2000/svg" xmlns:xlink="http://www.w3.org/1999/xlink" x="0px" y="0px" width="1000px"
	 height="1000px" viewBox="0 0 1000 1000" style="enable-background:new 0 0 1000 1000;" xml:space="preserve">
<g id="LCase_x5F_U">
	<path style="fill:#272525;" d="M142.617,732.887l-3.319-59.348l0.074-29.935l6.4-26.85l-4.797-37.788l-3.894-108.527l4.026-14.918
		l40.057,1.996l-1.782,33.198l-3.186,33.806l0.217,17.187l1.429,23.341v16.901l-6.412,42.764l1.555,23.974l0.794,10.938l0.88,23.548
		l-8.652,55.786l6.391,42.273l3.24,26.847l21.604,21.871l13.654,2.996l11.188-4.978l21.638-10.941l36.069-15.915h-0.787l4.005-2.978
		l28.039-19.897h-0.807l20.855-14.92l3.077-17.3l5.604-39.963l-1.175-22.018l-3.73-53.251l0.869-41.874l6.39-13.923l-2.4-0.994
		h0.808l-5.619-3.983l-2.854-72.164l2.002-27.942l23.249-1.007l17.615,1.007l3.211,25.874l-3.377,13.29l-8.813,9.948l3.207,9.937
		l3.99,9.953l-5.364,32.105l-1.64,25.968v21.877l-0.822,27.84l5.619,21.886l-7.127,79.41l6.531,66.039l8.041,58.685l-37.688,7.96
		l-3.995-26.854l-3.987-28.836l-9.635-11.944l-90.56,51.722l-20.819,14.919l-37.691-0.988l-36.061-38.789l-0.811-40.789
		l3.072-22.266L142.617,732.887z"/>
</g>
<g id="Layer_1">
</g>
</svg>
