<?xml version="1.0" encoding="iso-8859-1"?>
<!-- Generator: Adobe Illustrator 16.0.0, SVG Export Plug-In . SVG Version: 6.00 Build 0)  -->
<!DOCTYPE svg PUBLIC "-//W3C//DTD SVG 1.1//EN" "http://www.w3.org/Graphics/SVG/1.1/DTD/svg11.dtd">
<svg version="1.1" xmlns="http://www.w3.org/2000/svg" xmlns:xlink="http://www.w3.org/1999/xlink" x="0px" y="0px" width="1000px"
	 height="1000px" viewBox="0 0 1000 1000" style="enable-background:new 0 0 1000 1000;" xml:space="preserve">
<g id="LCase_x5F_L">
	<path style="fill:#272525;" d="M142.05,833.948l10.944-9.957l-4.979-4.97l1-40.784l4.978-75.588l7.952-13.915h0.997l-8.949-3.985
		l2.973-54.688v-4.979l1.993-85.528l0.997-12.916v-49.747l-6.962-118.349l-4.979-119.334l-3.97-36.796l-0.999-56.688l4.969-3.984
		l30.84,4.982h26.849l-5.97,71.604l-9.942,7.962l5.974,22.868l-2.992,358.023l7.96,176.035l-5.977,30.818l7.964,21.891v38.782
		l-17.912,1.997l-47.727-3.985L142.05,833.948z"/>
</g>
<g id="Layer_1">
</g>
</svg>
