<?xml version="1.0" encoding="iso-8859-1"?>
<!-- Generator: Adobe Illustrator 16.0.0, SVG Export Plug-In . SVG Version: 6.00 Build 0)  -->
<!DOCTYPE svg PUBLIC "-//W3C//DTD SVG 1.1//EN" "http://www.w3.org/Graphics/SVG/1.1/DTD/svg11.dtd">
<svg version="1.1" xmlns="http://www.w3.org/2000/svg" xmlns:xlink="http://www.w3.org/1999/xlink" x="0px" y="0px" width="1000px"
	 height="1000px" viewBox="0 0 1000 1000" style="enable-background:new 0 0 1000 1000;" xml:space="preserve">
<g id="LCase_x5F_B">
	<path style="fill:#272525;" d="M251.958,517.516l6.259,0.861l44.605,37.551l13.076,16.364l100.444,88.518l5.241,33.888
		l-4.919,1.996l-36.793,39.789l-41.771,34.802l-36.795,27.833l-16.909,14.915l-15.914,13.937l-65.795,49.659l-32.657,3.049
		l-28.923-3.631l-4.025-122.568l6.088-58.781l1.668-136.341l4.303-72.509l-3.979-115.365l1.701-111.935l-6.907-47.749l5.754-10.955
		l-6.514-11.353l0.187-57.108l52.369,6.91l-4.814,43.231l2.511,10.282l-4.506,62.313l-3.553,64.281l2.881,59.865l-2.303,28.025
		l0.989,29.844l5.97,11.922l0.464,28.843L251.958,517.516z M185.938,518.757l-0.316,21.718l3.97,51.714l-3.597,111.65v16.103
		l2.876,24.167l0.056,64.965l0.521,21.37l88.626-65.031l9.783,4.038l20.145-27.629l55.957-47.124l6.265-10.789l-7.986-5.617
		l-6.041-11.222l-28.057-28.27l-24.741-13.237l-62.085-64.211L185.938,518.757z"/>
</g>
<g id="Layer_1">
</g>
</svg>
