<?xml version="1.0" encoding="iso-8859-1"?>
<!-- Generator: Adobe Illustrator 16.0.0, SVG Export Plug-In . SVG Version: 6.00 Build 0)  -->
<!DOCTYPE svg PUBLIC "-//W3C//DTD SVG 1.1//EN" "http://www.w3.org/Graphics/SVG/1.1/DTD/svg11.dtd">
<svg version="1.1" xmlns="http://www.w3.org/2000/svg" xmlns:xlink="http://www.w3.org/1999/xlink" x="0px" y="0px" width="1000px"
	 height="1000px" viewBox="0 0 1000 1000" style="enable-background:new 0 0 1000 1000;" xml:space="preserve">
<g id="LCase_x5F_E">
	<path style="fill:#272525;" d="M349.33,511.044l-13.973,11.516l-9.789,14.146l-70.906,69.288l-39.336,28.108l-22.143,26.708
		l52.479-2.152l59.813,6.904l46.439-7.198l-3.23-64.019l6.57-42.294L349.33,511.044z M379.944,665.562l-3.859,35.682l-76.013-5.031
		l-67.525-4.323l-40.911,1.593l3.246,4.817l19.556,16.302l11.555,21.237l9.781,1.072l28.458,26.113l52.452,50.066l18.674,15.213
		l29.339,21.777l14.23,13.602l-26.677,14.146l-14.229,4.884l-16.007-13.051l-6.22-15.771l-8.885-3.264l-69.354-62.57l-3.563-11.429
		l-37.33-27.739L160.2,711.896l-20.444-16.873l-2.674-30.462l65.097-62.018l34.613-22.879l-1.157-7.332l10.929-4.083l73.681-77.241
		l8.888-1.094l5.333-9.789l10.674-8.159l30.946,11.447l2.702,75.527l5.785,56.98L379.944,665.562z"/>
</g>
<g id="Layer_1">
</g>
</svg>
