<?xml version="1.0" encoding="iso-8859-1"?>
<!-- Generator: Adobe Illustrator 16.0.0, SVG Export Plug-In . SVG Version: 6.00 Build 0)  -->
<!DOCTYPE svg PUBLIC "-//W3C//DTD SVG 1.1//EN" "http://www.w3.org/Graphics/SVG/1.1/DTD/svg11.dtd">
<svg version="1.1" xmlns="http://www.w3.org/2000/svg" xmlns:xlink="http://www.w3.org/1999/xlink" x="0px" y="0px" width="1000px"
	 height="1000px" viewBox="0 0 1000 1000" style="enable-background:new 0 0 1000 1000;" xml:space="preserve">
<g id="LCase_x5F_X">
	<path style="fill:#272525;" d="M433.383,855.771l10.445,16.907l-27.852,7.097l-23.759,1.862l-6.965-9.28l-25.228-58.395
		l-22.597-34.92l-49.615-81.317l-61.506,113.83l-6.952,2.736h0.881l0.838,13.098l-20.844,36.568v7.092l-8.725,11.456l-50.113-9.694
		l1.749-13.111l11.307-10.896l31.353-46.403l9.548-9.813l25.239-48.011l25.875-41.055l17.621-35.367l-13.896-24.018l-41.756-61.129
		l-37.415-52.922v-8.199h0.854l-6.093-3.264l-28.696-38.202l43.996-9.383h3.477l7.849,1.076l6.071,18.563l6.092,17.999
		l29.572,46.925l10.459,22.939l23.476,33.825l21.735,32.204l24.74-47.896l11.303-17.461l2.615-4.372l2.598-3.268l9.574-24.005
		l20.908-30.566l19.128-46.402l41.692,1.947l16.516,6.561l-37.385,54.567l-11.301,6.012l4.309,5.452l-40.859,59.487l-10.442,18.001
		l-12.2,18.549l-16.525,25.646l30.176,60.161l15.652,28.377h1.744l24.343,34.374l19.155,31.649L433.383,855.771z"/>
</g>
<g id="Layer_1">
</g>
</svg>
