<?xml version="1.0" encoding="iso-8859-1"?>
<!-- Generator: Adobe Illustrator 16.0.0, SVG Export Plug-In . SVG Version: 6.00 Build 0)  -->
<!DOCTYPE svg PUBLIC "-//W3C//DTD SVG 1.1//EN" "http://www.w3.org/Graphics/SVG/1.1/DTD/svg11.dtd">
<svg version="1.1" xmlns="http://www.w3.org/2000/svg" xmlns:xlink="http://www.w3.org/1999/xlink" x="0px" y="0px" width="1000px"
	 height="1000px" viewBox="0 0 1000 1000" style="enable-background:new 0 0 1000 1000;" xml:space="preserve">
<g id="LCase_x5F_J">
	<path style="fill:#272525;" d="M291.241,678.229l-6.965,7.967l-1.989,16.905l18.898,198.906l-12.93,22.871l-33.814,21.876
		l-4.976,9.955l-3.979,11.938l-75.578,68.607l-32.826-30.826v-26.84l31.828-11.944h-0.995l13.917-8.939l9.945-5.972l30.84-18.899
		l28.832-37.79l-2.973-19.882l3.972-109.415v-51.723l-0.999-8.932l-0.986-61.648l5.967-59.675l-13.026-106.53l22.153-8.634
		l26.756,1.433l-5.036,81.439L291.241,678.229z M245.409,406.162l-6.61-35.993l3.16-24.003l53.516-2.863l3.982,10.956l2.498,25.138
		l-3.458,23.317l-14.669,10.782L245.409,406.162z"/>
</g>
<g id="Layer_1">
</g>
</svg>
