<?xml version="1.0" encoding="iso-8859-1"?>
<!-- Generator: Adobe Illustrator 16.0.0, SVG Export Plug-In . SVG Version: 6.00 Build 0)  -->
<!DOCTYPE svg PUBLIC "-//W3C//DTD SVG 1.1//EN" "http://www.w3.org/Graphics/SVG/1.1/DTD/svg11.dtd">
<svg version="1.1" xmlns="http://www.w3.org/2000/svg" xmlns:xlink="http://www.w3.org/1999/xlink" x="0px" y="0px" width="1000px"
	 height="1000px" viewBox="0 0 1000 1000" style="enable-background:new 0 0 1000 1000;" xml:space="preserve">
<g id="LCase_x5F_D">
	<path style="fill:#272525;" d="M369.92,472.14l0.47-28.855l5.969-11.929l0.988-29.83l0.996-30.842l-3.974-56.683v-64.636
		l-0.999-65.651l-0.991-6.954l-7.958-52.718l57.683,22.878l-1.983,36.794l-1.986,11.951l-2.992,11.924l2.992,39.788l-3.979,118.346
		l-3.984,115.358l4.308,72.523l1.664,136.343l-3.979,51.712l8.952,126.299l-31.829,6.962l-32.816,8.955l-65.637-61.672
		l-15.92-13.916l-16.905-14.919l-36.796-27.857l-41.769-34.806l-36.794-39.777l-5.567-34.147l5.887-1.735l100.446-88.517
		l22.879-18.895l32.813-29.836l3.342-5.651L369.92,472.14z M318.003,555.594l-67.63,59.674l-26.848,26.847l-22.877,23.876
		l-6.592,7.625l-4.963,4.535l6.265,10.803l37.785,41.752l15.914,8.961l28.837,30.823l85.536,64.646h0.99l5.969-31.818l-0.988-69.615
		l9.936-28.835l-8.947-5.98l-0.669-112.464l3.975-51.718l-0.315-21.69L318.003,555.594z"/>
</g>
<g id="Layer_1">
</g>
</svg>
