<?xml version="1.0" encoding="iso-8859-1"?>
<!-- Generator: Adobe Illustrator 16.0.0, SVG Export Plug-In . SVG Version: 6.00 Build 0)  -->
<!DOCTYPE svg PUBLIC "-//W3C//DTD SVG 1.1//EN" "http://www.w3.org/Graphics/SVG/1.1/DTD/svg11.dtd">
<svg version="1.1" xmlns="http://www.w3.org/2000/svg" xmlns:xlink="http://www.w3.org/1999/xlink" x="0px" y="0px" width="1000px"
	 height="1000px" viewBox="0 0 1000 1000" style="enable-background:new 0 0 1000 1000;" xml:space="preserve">
<g id="LCase_x5F_A">
	<path style="fill:#272525;" d="M212.081,539.816l-24.783,119.267l-10.75,122.43l3.606,26.859l24.208,21.876l15.254,2.979
		l12.551-4.971l24.213-10.93l37.006-17.755l10.724,1.947l-6.642-6.478l26.668-11.648l10.122-6.906l19.911-12.87l5.37-76.587
		l-5.592-133.778l-4.051-32.146l-16.093-1.433l-87.461,5.763l5.186-7.771l-13.617,8.08l-19.857,3.72L212.081,539.816z
		 M370.657,477.372l24.916,8.639l-2.847,203.015l5.382,125.298l8.978,58.682l-42.165,7.96l-4.478-26.841l-4.48-28.845
		l-10.772-11.949L243.83,865.05l-23.315,14.922l-42.161-0.995l-40.374-38.777l-0.897-40.786l6.741-61.629l3.117-66.754
		l17.971-96.949l-1.368-54.109l9.347-16.985l25.171-6.328l117.313-9.786l9.927,5.823l-6.415-8.633L370.657,477.372z"/>
</g>
<g id="Layer_1">
</g>
</svg>
