<?xml version="1.0" encoding="iso-8859-1"?>
<!-- Generator: Adobe Illustrator 16.0.0, SVG Export Plug-In . SVG Version: 6.00 Build 0)  -->
<!DOCTYPE svg PUBLIC "-//W3C//DTD SVG 1.1//EN" "http://www.w3.org/Graphics/SVG/1.1/DTD/svg11.dtd">
<svg version="1.1" xmlns="http://www.w3.org/2000/svg" xmlns:xlink="http://www.w3.org/1999/xlink" x="0px" y="0px" width="1000px"
	 height="1000px" viewBox="0 0 1000 1000" style="enable-background:new 0 0 1000 1000;" xml:space="preserve">
<g id="LCase_x5F_K">
	<path style="fill:#272525;" d="M137.082,876.702l3.984-25.875l3.982-24.84l-1.988-85.546l4.968-133.263l1.985-30.829l2.993-30.838
		l-3.98-234.7l-0.998-3.982l-0.995-14.915l-3.973-55.689l9.946-24.864h0.989l-13.92-3.99l-1.994-61.648l30.829-0.987l27.848,1.985
		l0.997,25.85l-2.982,14.926l-1.995,16.91l-0.993,52.707l-3.979,52.702l3.979,192.942l-9.943,71.597l3.98,58.687l11.934,245.653
		l-13.928,3.97L137.082,876.702z M324.054,515.155l-58.43,74.734l-13.812,17.831l12.378,18.988l78.799,116.106l-3.972,3.595
		l8.95,7.197l46.741,53.229l27.848,30.226l31.824,24.453l-19.931,11.176l-43.758,12.97l-24.863-46.05l-52.708-73.381l-60.662-74.83
		l-11.944-18.693L229.58,665.5l-18.438-40.945l-11.931-20.864l23.873-29.496l28.397-32.064l3.981,0.714h4.963l-0.982-10.783
		l29.811-31.295l4-13.313l1.985-10.79l57.155-82.02l26.838-46.04l18.907-2.156l41.762,21.578l-29.827,30.231l-14.919,7.172h0.991
		l-0.991,9.368l-27.333,44.255L324.054,515.155z"/>
</g>
<g id="Layer_1">
</g>
</svg>
