<?xml version="1.0" encoding="iso-8859-1"?>
<!-- Generator: Adobe Illustrator 16.0.0, SVG Export Plug-In . SVG Version: 6.00 Build 0)  -->
<!DOCTYPE svg PUBLIC "-//W3C//DTD SVG 1.1//EN" "http://www.w3.org/Graphics/SVG/1.1/DTD/svg11.dtd">
<svg version="1.1" xmlns="http://www.w3.org/2000/svg" xmlns:xlink="http://www.w3.org/1999/xlink" x="0px" y="0px" width="1000px"
	 height="1000px" viewBox="0 0 1000 1000" style="enable-background:new 0 0 1000 1000;" xml:space="preserve">
<g id="LCase_x5F_F">
	<path style="fill:#272525;" d="M148.023,480.881l-3.877-36.009l6.902,4.016l-5.753-15.244V301.843l2.882-27.625l-3.171-15.535
		l8.351-17.538l18.692-9.356l21.576,11.541l29.513,26.839l52.509,38.877l45.546,40.302l29.803,18.884l-8.76,17.644l-21.043,18.906
		l-12.652-16.767l-49.548-39.372l-27.772-24.198l-29.002-22.658l-12.794-6.213l-7.004,3.41l2.879,14.944l-2.879,16.997
		l6.374,157.915l11.461-0.806l42.876,0.559l60.997,1.729l33.098-7.767l6.906,4.038l4.598,37.402l-9.497,9.487l-13.229-2.582
		l-35.108,1.16l8.058-7.486L282.55,530.9l-97.731-4.263v25.84l0.997,26.868l2.979,43.754l-0.986,87.51l7.949,91.5l-1.991,34.802
		l4.979,13.937v26.847l-11.936,1.989l-49.729-5.966l3.971-72.605l6.971-71.594l-5.971-26.869l2.98-104.423L148.023,480.881z"/>
</g>
<g id="Layer_1">
</g>
</svg>
