<?xml version="1.0" encoding="iso-8859-1"?>
<!-- Generator: Adobe Illustrator 16.0.0, SVG Export Plug-In . SVG Version: 6.00 Build 0)  -->
<!DOCTYPE svg PUBLIC "-//W3C//DTD SVG 1.1//EN" "http://www.w3.org/Graphics/SVG/1.1/DTD/svg11.dtd">
<svg version="1.1" xmlns="http://www.w3.org/2000/svg" xmlns:xlink="http://www.w3.org/1999/xlink" x="0px" y="0px" width="1000px"
	 height="1000px" viewBox="0 0 1000 1000" style="enable-background:new 0 0 1000 1000;" xml:space="preserve">
<g id="LCase_x5F_V">
	<path style="fill:#272525;" d="M256.278,723.445l16.11,64.133L282.856,816l3.206,13.383l1.619,0.567l2.436,0.561l15.273-51.307
		l15.323-52.416l9.677-39.565l8.859-18.393l12.856-57.997l11.3-60.77l11.283-8.922l-2.438-2.234v-14.483l12.086-56.313l5.646-4.463
		l45.986,4.17l-7.252,16.718l-13.709,39.592l-7.225,20.063l-6.45,18.956l-9.68,49.619l-10.466,49.071l-11.284,15.606l0.808,6.14
		l0.81,2.774v2.241l-29.8,88.637l-12.877,63.565l-12.083,37.916l-25.046,1.414l-27.081,1.071l-8.866-13.948l-20.15-84.173
		L201,665.99l-10.469-21.179l-2.422-19.518l-17.728-46.275l-6.433-42.382l-26.867-69.026l25.479-7.207l27.611,2.869l8.111,55.01
		l12.098,36.243l-5.658,1.673h0.809l11.28,15.048l15.294,88.09L256.278,723.445z"/>
</g>
<g id="Layer_1">
</g>
</svg>
