<?xml version="1.0" encoding="iso-8859-1"?>
<!-- Generator: Adobe Illustrator 16.0.0, SVG Export Plug-In . SVG Version: 6.00 Build 0)  -->
<!DOCTYPE svg PUBLIC "-//W3C//DTD SVG 1.1//EN" "http://www.w3.org/Graphics/SVG/1.1/DTD/svg11.dtd">
<svg version="1.1" xmlns="http://www.w3.org/2000/svg" xmlns:xlink="http://www.w3.org/1999/xlink" x="0px" y="0px" width="1000px"
	 height="1000px" viewBox="0 0 1000 1000" style="enable-background:new 0 0 1000 1000;" xml:space="preserve">
<g id="LCase_x5F_W">
	<path style="fill:#272525;" d="M220.511,730.004l5.56,51.368l2.782,19.874l1.837,17.688l9.224-16.019l10.44-15.204l8.035-21.263
		l1.834-11.604l29.783-45.255l10.168-33.233l7.229-12.4l23.975-3.865l14.787,2.763l54.902,103.709l23.494,58.451h0.941l3.668-22.098
		l21.236-192.766l2.803-49.151l8.281-34.801l-2.756-53.029l15.706-6.07l16.587,1.66l27.404,2.856l-14.75,63.516l-15.707,135.314
		l-13.854,7.192l6.47,16.567l-6.47,53.575l-7.395,96.654l-2.752,18.775v14.926l-32.941,1.549h-3.723l-18.53-1.448v-4.958
		l-0.894-2.773l-31.396-59.655l-0.859-6.747l-20.696-38.301l-9.415-14.347l-4.345-7.906l1.808-10.661l-3.805,1.447l-6.796-14.175
		l-3.768-13.121l-12.93,32.567l-5.527,14.384l-2.755,3.298l-27.925,47.771l-4.636,10.485l-24.93,51.362l-7.844,11.708l-21.558-0.592
		l-27.132-0.915v-22.651l-0.922-3.313l-10.134-74.561l-0.929-17.69l-0.905-8.817v-8.843l-23.101-176.184l-20.307-92.795
		l16.045-2.395l39.711-2.215l2.756,18.794l-1.835,53.017l0.939,7.172v19.888l8.287,6.084l3.696,44.73l3.722,44.181L220.511,730.004z
		"/>
</g>
<g id="Layer_1">
</g>
</svg>
