<?xml version="1.0" encoding="iso-8859-1"?>
<!-- Generator: Adobe Illustrator 16.0.0, SVG Export Plug-In . SVG Version: 6.00 Build 0)  -->
<!DOCTYPE svg PUBLIC "-//W3C//DTD SVG 1.1//EN" "http://www.w3.org/Graphics/SVG/1.1/DTD/svg11.dtd">
<svg version="1.1" xmlns="http://www.w3.org/2000/svg" xmlns:xlink="http://www.w3.org/1999/xlink" x="0px" y="0px" width="1000px"
	 height="1000px" viewBox="0 0 1000 1000" style="enable-background:new 0 0 1000 1000;" xml:space="preserve">
<g id="LCase_x5F_H">
	<path style="fill:#272525;" d="M387.047,466.769l4.962,97.459l-4.978,106.403l6.971,65.653v3.967l3.976,64.647l-2.986,24.865
		l3.984,19.874l3.978,19.916l-10.944,11.925l-47.742-5.966l3.982-53.71l6.954-48.737l-0.989-74.582l0.989-42.766l-6.954-113.37
		l-0.988-27.855l-33.158,24.067l-14.914-1l-18.896,6.952l-16.908,11.94h-6.967l-36.789,16.908l-25.866,13.925l-5.964,45.74
		l2.982,100.462l1.992,98.462l3.978,33.796l-3.978,8.959l-22.877-1.001l-28.838-1.98l-1-22.879l5.973-60.661l4.97-90.49
		l3.981-96.492l-3.981-50.717l-1.992-20.885l-2.978-191.928l-1.989-136.258l-5.972-28.842l-0.988-28.842l9.937-1.99h41.774
		l4.97,11.927l-6.962,62.664l-4.967,22.878l7.958,12.919v212.843l4.967,13.918l0.993,55.689l71.924-23.533h4.968l63.767-39.657
		l10.851-1.641l10.44-7.573L387.047,466.769z"/>
</g>
<g id="Layer_1">
</g>
</svg>
