<?xml version="1.0" encoding="iso-8859-1"?>
<!-- Generator: Adobe Illustrator 16.0.0, SVG Export Plug-In . SVG Version: 6.00 Build 0)  -->
<!DOCTYPE svg PUBLIC "-//W3C//DTD SVG 1.1//EN" "http://www.w3.org/Graphics/SVG/1.1/DTD/svg11.dtd">
<svg version="1.1" xmlns="http://www.w3.org/2000/svg" xmlns:xlink="http://www.w3.org/1999/xlink" x="0px" y="0px" width="1000px"
	 height="1000px" viewBox="0 0 1000 1000" style="enable-background:new 0 0 1000 1000;" xml:space="preserve">
<g id="LCase_x5F_I">
	<path style="fill:#272525;" d="M184.823,592.557l-2.995,29.683l3.982,26.937l1.984,15.932l0.998,10.44l0.998,2.743v163.237
		l1.984,11.542l3.984,10.994l-1.99,9.347l-21.886,3.291l-18.89-0.555l-15.912-0.547l8.941-35.182V686.546l2.991-18.696l3.979-33.521
		l-7.959-17.581l-3.984-131.364l-2.973-15.373l17.899-2.754l39.782,4.395l-2.987,28.029l-4.978,15.941L184.823,592.557z
		 M153.852,412.728l18.887,0.561l21.89-3.304l1.983-9.348l-3.979-10.992l-1.985-11.543l1.729-25.526l-4.893-5.252L149.5,344.16
		l-7.771,12.664l1.441,33.935l-3.163,14.67L153.852,412.728z"/>
</g>
<g id="Layer_1">
</g>
</svg>
