<?xml version="1.0" encoding="iso-8859-1"?>
<!-- Generator: Adobe Illustrator 16.0.0, SVG Export Plug-In . SVG Version: 6.00 Build 0)  -->
<!DOCTYPE svg PUBLIC "-//W3C//DTD SVG 1.1//EN" "http://www.w3.org/Graphics/SVG/1.1/DTD/svg11.dtd">
<svg version="1.1" xmlns="http://www.w3.org/2000/svg" xmlns:xlink="http://www.w3.org/1999/xlink" x="0px" y="0px" width="1000px"
	 height="1000px" viewBox="0 0 1000 1000" style="enable-background:new 0 0 1000 1000;" xml:space="preserve">
<g id="LCase_x5F_C">
	<path style="fill:#272525;" d="M159.552,643.737l35.442-37.017l36.303-27.73l3.452-11.433L302.162,505l8.642-3.27l6.059-15.777
		l15.546-13.051l13.839,4.89l25.933,14.144l-13.845,13.598l-24.408,24.852l-18.141,15.239l-51,50.041l-27.656,26.112l-9.51,1.094
		l-11.235,21.22l-19.009,16.316l-4.728,7.714l-12.95,10.788l23.71,17.622l16.432,20.663l30.253,33.171l76.913,64.212l9.509,14.145
		l26.796,19.028l17.289,17.436l-41.267,18.476l-10.378-8.183l-5.187-9.78l-8.641-1.09l-44.077-47.878l2.589-7.615l-12.09-3.806
		l-57.909-55.49l-66.559-58.771l2.599-30.446L159.552,643.737z"/>
</g>
<g id="Layer_1">
</g>
</svg>
