<?xml version="1.0" encoding="iso-8859-1"?>
<!-- Generator: Adobe Illustrator 16.0.0, SVG Export Plug-In . SVG Version: 6.00 Build 0)  -->
<!DOCTYPE svg PUBLIC "-//W3C//DTD SVG 1.1//EN" "http://www.w3.org/Graphics/SVG/1.1/DTD/svg11.dtd">
<svg version="1.1" xmlns="http://www.w3.org/2000/svg" xmlns:xlink="http://www.w3.org/1999/xlink" x="0px" y="0px" width="1000px"
	 height="1000px" viewBox="0 0 1000 1000" style="enable-background:new 0 0 1000 1000;" xml:space="preserve">
<g id="LCase_x5F_N">
	<path style="fill:#272525;" d="M390.764,610.833l7.202,65.555l-4.397,117.787l5.788,28.431l6.963,49.459l-4.984,8.68l-38.784,0.867
		l-9.926-1.728l2.967-50.336l0.808-12.59l6.331-21.302l-7.635-4.016l-2.092-94.142l1.51-60.495l-3.156-44.233l-7.774-11.656
		l-44.534-16.98l-16.838-17.273l2.023,10.395l-50.934-19.456l-35.104-12.363l-8.124,0.42l-0.993,5.22v78.961l-8.938,54.69
		l0.994,2.603l6.965,13.892l5.207,119.867l0.48,31.832l1.977,13.892l-1.977,34.712l-31.835,1.729l-24.872-3.463l4.977-50.34
		l1.391-12.605l6.258-14.896l-1.509-28.917l-0.866-14.246l0.651-28.915l2.321-79.036l-3.002-57.271l-1.976-56.413l-4.974-40.809
		v-29.504l46.739-11.282l37.585,22.397l12.947,12.949l83.147,39.3l7.411,0.48l34.895,18.927l23.886,6.038l6.39,32.439
		L390.764,610.833z"/>
</g>
<g id="Layer_1">
</g>
</svg>
