<?xml version="1.0" encoding="iso-8859-1"?>
<!-- Generator: Adobe Illustrator 16.0.0, SVG Export Plug-In . SVG Version: 6.00 Build 0)  -->
<!DOCTYPE svg PUBLIC "-//W3C//DTD SVG 1.1//EN" "http://www.w3.org/Graphics/SVG/1.1/DTD/svg11.dtd">
<svg version="1.1" xmlns="http://www.w3.org/2000/svg" xmlns:xlink="http://www.w3.org/1999/xlink" x="0px" y="0px" width="1000px"
	 height="1000px" viewBox="0 0 1000 1000" style="enable-background:new 0 0 1000 1000;" xml:space="preserve">
<g id="LCase_x5F_Z">
	<path style="fill:#272525;" d="M163.248,881.479l-19.828-1.251l-2.941-5.771l-3.396-11.869l1.72-10.788l8.474-4.383l1.026-3.819
		l33.077-44.873l20.632-44.895l16.161-37.338l44.836-73.584l27.835-56.791c0-0.554,0.894-2.175,0.894-4.344v-3.234l25.539-73.755
		l-4.173-2.273l-111.284,0.541l-56.211,6.398l-5.398-3.804v-10.822l3.963-24.245l24.226,1.612l68.441,2.057l53.842,0.539
		l45.752-1.621h35.873l11.923,24.907l-42.157,67.633v11.91l-39.473,58.434l-27.803,61.126l-43.982,80.058l-7.171,5.426h-0.914
		l6.285,1.621l-14.892,31.042l-6.286,15.695l-6.264,14.604h-0.908l5.391,2.153c3.599,0,10.77-0.531,16.161-0.531h45.747
		l58.296-2.166l36.796-4.863l14.356-1.634l7.197,3.798l-10.516,38.558l-54.734-1.089l-7.177-1.067h-66.395l-55.644,1.616
		L163.248,881.479z"/>
</g>
<g id="Layer_1">
</g>
</svg>
