<?xml version="1.0" encoding="iso-8859-1"?>
<!-- Generator: Adobe Illustrator 16.0.0, SVG Export Plug-In . SVG Version: 6.00 Build 0)  -->
<!DOCTYPE svg PUBLIC "-//W3C//DTD SVG 1.1//EN" "http://www.w3.org/Graphics/SVG/1.1/DTD/svg11.dtd">
<svg version="1.1" xmlns="http://www.w3.org/2000/svg" xmlns:xlink="http://www.w3.org/1999/xlink" x="0px" y="0px" width="1000px"
	 height="1000px" viewBox="0 0 1000 1000" style="enable-background:new 0 0 1000 1000;" xml:space="preserve">
<g id="LCase_x5F_Q">
	<path style="fill:#272525;" d="M302.468,839.23l-3.354-5.656l-32.814-29.83l-22.878-18.897l-100.44-88.5l-5.898-1.746l5.581-34.151
		l36.788-39.778l41.78-34.813l36.791-27.855l16.909-14.913l15.916-13.916l65.631-61.67l32.826,8.959l31.81,6.952l-8.945,126.301
		l3.981,51.721l-1.672,136.336l-4.285,72.523l2.723,19.275l-0.434,33.232l6.638,64.738l5.737,31.649l-6.599,9.788l-53.396,10.938
		l9.098-61.97l0.111-31.841l0.357-39.007l-5.975-11.927l1.485-15.937L302.468,839.23z M373.398,838.364l0.301-21.691l-3.971-51.724
		l0.673-112.459l8.956-5.979l-9.951-28.835l0.995-69.611l-5.963-31.816h-0.997l-85.547,64.632l-28.827,30.828l-15.913,8.962
		l-37.785,41.76l-6.271,10.809l4.957,4.531l6.611,7.619l22.879,23.872l26.843,26.849l67.622,59.673L373.398,838.364z"/>
</g>
<g id="Layer_1">
</g>
</svg>
