<?xml version="1.0" encoding="iso-8859-1"?>
<!-- Generator: Adobe Illustrator 16.0.0, SVG Export Plug-In . SVG Version: 6.00 Build 0)  -->
<!DOCTYPE svg PUBLIC "-//W3C//DTD SVG 1.1//EN" "http://www.w3.org/Graphics/SVG/1.1/DTD/svg11.dtd">
<svg version="1.1" xmlns="http://www.w3.org/2000/svg" xmlns:xlink="http://www.w3.org/1999/xlink" x="0px" y="0px" width="1000px"
	 height="1000px" viewBox="0 0 1000 1000" style="enable-background:new 0 0 1000 1000;" xml:space="preserve">
<g id="LCase_x5F_G">
	<path style="fill:#272525;" d="M191.898,659.303l66.898,1.729l45.103-2.85l34.098,1.555l9.3-1.655l-1.097-35.034l6.256-4.318
		l-5.175-7.984l0.016-44.329l-2.975-28.854l-1.574-5.585l-9.065-0.428l-29.999,24.167l-29.777,31.3l-45.109,35.165l-3.02-6.257
		l-4.1,10.571l-13.81,16.409l-14.891,11.649L191.898,659.303z M137.082,667.29l4.316-9.929l38.843-40.14l50.288-39.709l28.697-34.32
		l37.554-30.426l31.51-35.822l9.927-6.691l7.983-7.986l47.691,12.729l-13.769,75.494l4.967,5.979l3.022,272.949l-5.658,10.806
		l2.681,6.101l2.978,2.968l1.001,29.839l6.004,21.222l-8.054,12.953l-22.447,6.342l12.082,3.736l-48.621,39.427l-28.492,30.644
		l-11.941,7.469l-13.955,16.269l-9.207,18.396l-32.369-5.606l-8.776-50.346l28.197-10.08l13.574-8.82l21.672-21.396l16.829,0.433
		l19.857-31.354l17.552-27.329l7.771-11.228l-3.476-67.751l0.997-5.958l-2.988-59.669l3.976-24.871v-8.354l-42.963-4.685
		l-70.788,5.398l3.671-5.604l-21.361,4.957l-33.237-3.025l-33.234,4.319l-7.339-6.689L137.082,667.29z"/>
</g>
<g id="Layer_1">
</g>
</svg>
