<?xml version="1.0" encoding="iso-8859-1"?>
<!-- Generator: Adobe Illustrator 16.0.0, SVG Export Plug-In . SVG Version: 6.00 Build 0)  -->
<!DOCTYPE svg PUBLIC "-//W3C//DTD SVG 1.1//EN" "http://www.w3.org/Graphics/SVG/1.1/DTD/svg11.dtd">
<svg version="1.1" xmlns="http://www.w3.org/2000/svg" xmlns:xlink="http://www.w3.org/1999/xlink" x="0px" y="0px" width="1000px"
	 height="1000px" viewBox="0 0 1000 1000" style="enable-background:new 0 0 1000 1000;" xml:space="preserve">
<g id="LCase_x5F_T">
	<path style="fill:#272525;" d="M221.275,480.615l50.672,2.235l-2.428-33.7l-3.79-3.07l-0.647-32.367l1.729-16.399l-4.75-30.429
		l-6.906-8.201l20.938-4.968l18.129,0.646l7.552,3.022l5.602,19.854l4.28,53.898l-6.211-3.831l7.35,12.297l5.886,43.774
		l11.574-1.469l14.593-1.421l21.884-0.518l79.251-0.275l7.344,35l-12.922,2.629l-46.752-4.73l-7.959-0.52l-12.922-2.11h-53.706
		v11.055l-3.968,13.713l-3.988,13.157l4.995,32.671l-6.965,27.383l5.958,116.439l4.965,75.327l-2.963,4.229l-3.002,3.677
		l11.921,39.517v28.471l-28.835,2.094l-23.873-1.587l-13.916-4.739l12.949-30.542l1.973-104.855l5.959-9.475l4.993-10.021h0.993
		l-6.952-3.155l-3.003-24.761l0.998-43.21v-15.806l1.006-6.311l0.999-23.19l-3.003-51.621l-1.99-18.964l-2.972-20.04h-62.665
		l-42.758,4.75l-8.959,2.109l-17.911,0.526l-1.968-15.799l3.576-19.743L221.275,480.615z"/>
</g>
<g id="Layer_1">
</g>
</svg>
