<?xml version="1.0" encoding="iso-8859-1"?>
<!-- Generator: Adobe Illustrator 16.0.0, SVG Export Plug-In . SVG Version: 6.00 Build 0)  -->
<!DOCTYPE svg PUBLIC "-//W3C//DTD SVG 1.1//EN" "http://www.w3.org/Graphics/SVG/1.1/DTD/svg11.dtd">
<svg version="1.1" xmlns="http://www.w3.org/2000/svg" xmlns:xlink="http://www.w3.org/1999/xlink" x="0px" y="0px" width="1000px"
	 height="1000px" viewBox="0 0 1000 1000" style="enable-background:new 0 0 1000 1000;" xml:space="preserve">
<g id="LCase_x5F_M">
	<path style="fill:#272525;" d="M278.504,606.82l2.99,2.982l9.938,21.879l3.981,10.95l4.981,8.944l3.971-8.944l5.969-9.95
		l28.841-43.762l25.919-34.528l6.961-18.914l3.982-1.975h-0.995l30.503-36.635l15.105-32.146l36.482,3.142l10.925,8.94
		l-9.549,102.163l-4.956,28.841l3.979,14.91l11.713,181.377l2.006,36.804l2.971,39.771l-52.706,1.995l-5.955-5.963l1.975-25.875
		l6.964-71.598l0.646-33.959l4.961-14.92l-2.974-6.951l-6.909-20.722l5.48-64.036l-2.993-61.65l2.141-47.658l-1.994,1.995
		l-8.962,15.912l-30.793,40.197l-30.008,38.276l-7.943,17.902l-3.981,6.957l-10.942,17.905h0.992l-16.905,35.805l-6.966-1.987
		l-23.864-4.982l-7.952-28.835l-11.943-17.905l-42.761-73.582l-10.802-15.833l-10.944-13.918l-11.935-15.912l-0.996,1.001
		l2.593,51.059l-1.729,1.542l0.998,7.952l-2.992,77.589l-3.969,10.937l4.979,4.979l-0.177,19.74l-6.041,17.697l9.028,32.713
		l8.912,106.247l-1.998,16.899l-55.69,1.982l-2.981-14.926l5.964-37.791l1.001-29.832l0.994-4.954l7.954-7.967l-6.957-1.997
		l-0.997-29.836l5.179-133.626l-3.981-50.726l-2.25-22.418l4.965-19.896l-3.968-14.919l-3.981-15.911l-0.789-21.298l31.828-5.964
		l20.062-2.121l31.296,56.071L278.504,606.82z"/>
</g>
<g id="Layer_1">
</g>
</svg>
