<?xml version="1.0" encoding="iso-8859-1"?>
<!-- Generator: Adobe Illustrator 16.0.0, SVG Export Plug-In . SVG Version: 6.00 Build 0)  -->
<!DOCTYPE svg PUBLIC "-//W3C//DTD SVG 1.1//EN" "http://www.w3.org/Graphics/SVG/1.1/DTD/svg11.dtd">
<svg version="1.1" xmlns="http://www.w3.org/2000/svg" xmlns:xlink="http://www.w3.org/1999/xlink" x="0px" y="0px" width="1000px"
	 height="1000px" viewBox="0 0 1000 1000" style="enable-background:new 0 0 1000 1000;" xml:space="preserve">
<g id="LCase_x5F_P">
	<path style="fill:#272525;" d="M243.96,842.529l-48.178,36.841l-11.952,26.541l0.135,50.555l8.809,79.796l-20.893,1.787
		l-34.799-2.663l9.994-93.485l-8.853-43.263l5.599-166.61l6.322-16.752l-9.768,1.646l3.79-141.473l-1.983-23.03l-1.998-18.574
		l-1.998-45.138l30.833-14.164l10.954-1.77l93.476,78.771l9.948,15.934l45.754,32.743l72.594,59.296l-2.982,42.486l-34.811,27.439
		l-18.886,19.477l-19.897,19.456l-21.893,18.594l-31.898,24.501L243.96,842.529z M186.828,784.669l-1.994,35.407l2.988,12.39
		l1.988-0.895l44.481-31.078l30.82-28.327l33.212-22.371l20.869-23.887l6.963-7.959l31.825-30.992l1.008-5.306v-4.435
		l-26.854-23.893l-36.815-31.858l-13.92-11.503l-2.961-8.848l-12.949-2.653l-77.555-67.269l-1.997,13.271l-5.964,94.702
		l0.996,42.484l0.994,21.224v20.365l3.861,49.924L186.828,784.669z"/>
</g>
<g id="Layer_1">
</g>
</svg>
