<?xml version="1.0" encoding="iso-8859-1"?>
<!-- Generator: Adobe Illustrator 16.0.0, SVG Export Plug-In . SVG Version: 6.00 Build 0)  -->
<!DOCTYPE svg PUBLIC "-//W3C//DTD SVG 1.1//EN" "http://www.w3.org/Graphics/SVG/1.1/DTD/svg11.dtd">
<svg version="1.1" xmlns="http://www.w3.org/2000/svg" xmlns:xlink="http://www.w3.org/1999/xlink" x="0px" y="0px" width="1000px"
	 height="1000px" viewBox="0 0 1000 1000" style="enable-background:new 0 0 1000 1000;" xml:space="preserve">
<g id="LCase_x5F_O">
	<path style="fill:#272525;" d="M278.672,474.517l33.299,1.64l17.412-1.073l12.464,10.521l4.608,5.524l50.025,71.546l0.931,1.658
		v2.763l0.927,4.992l12.953,7.76l56.563,78.541l6.604,3.316l-9.05,26.54l-26.21,28.39l-17.563,24.926l-12.583,23.359l-10.716,28.235
		h-13.869l-3.706,22.147l-42.612,51.07l-1.859,11.068l-46.913,3.949l-7.392-4.983L271.82,860.36l-58.609-76.54l-36.08-43.768
		l-37.285-57.687l-2.764-24.36l37.006-39.884l17.586-27.142h6.46l6.472-4.988l6.996-21.431l54.605-65.906L278.672,474.517z
		 M303.924,839.77h-0.934l7.406,2.777l1.847,0.56l24.087-37.981l27.401-41.326l21.823-33.874l25.268-32.265l0.934-1.663
		l11.104-16.612l3.692-4.979l1.863-2.228l-0.928-4.425v-2.774l-0.936-2.215l-36.375-52.483l-2.762-15.511h0.91l-12.025-4.977
		l-50.014-57.686l-17.807-18.102l-0.925-3.882l-0.938-1.102l-5.544,2.769l-27.001,35.448l-5.551,0.54h-3.696l5.533,7.207
		l-60.195,74.765l-8.32,9.97l-3.71,5.538l-4.624,3.875l-9.255,16.066l-3.696,6.651l43.482,74.767l6.485,14.411l14.79,7.205
		L303.924,839.77z"/>
</g>
<g id="Layer_1">
</g>
</svg>
