<?xml version="1.0" encoding="iso-8859-1"?>
<!-- Generator: Adobe Illustrator 16.0.0, SVG Export Plug-In . SVG Version: 6.00 Build 0)  -->
<!DOCTYPE svg PUBLIC "-//W3C//DTD SVG 1.1//EN" "http://www.w3.org/Graphics/SVG/1.1/DTD/svg11.dtd">
<svg version="1.1" xmlns="http://www.w3.org/2000/svg" xmlns:xlink="http://www.w3.org/1999/xlink" x="0px" y="0px" width="1000px"
	 height="1000px" viewBox="0 0 1000 1000" style="enable-background:new 0 0 1000 1000;" xml:space="preserve">
<g id="LCase_x5F_Y">
	<path style="fill:#272525;" d="M149.104,735.456l-4.045-57.519l3.666-31.939l-2.803-26.754l1.539-37.716l-10.379-91.121
		l7.332-17.914l39.063,4.758l-0.433,34.734l-4.318,24.604l4.184,7.694l-2.456,17.986l3.876,22.252l-1.934,40.765l-4.317,23.306
		l2.19,13.604l0.895,23.54l-3.085,53.707l2.161,44.669l0.564,26.035l9.497,30.516l20.717-3.753l17.974-11.144l21.236-6.181
		l23.039-14.748l6.304,0.397l28.304-12.483l-1.376-2.641l20.86-14.926l3.881-26.461l0.782-38.709l-3.667-24.173l3.579-52.348
		l0.514-34.837l2.81-9.064l-0.434-9.283l4.752-21.15l-6.906,4.104l-3.51-62.689l-7.935-33.132l33.025-7.766l19.195,6.039
		l1.788,32.753l-0.272,10.421l0.857,13.158l-5.599,11.656l2.587,13.378l-3.229,26.54l-0.442,30.002l-4.308,17.908l6.684,17.479
		l1.728,35.396l-12.23,77.829l6.699,65.172l6.251,93.007l-16.832,25.034l-29.805,31.229l-18.606,16.794l-18.947,3.71l12.258,2.313
		l-28.489,25.676l-20.069,23.739l-24.634-13.384l-15.309-19.421l-6.183-20.284l37.267-13.164l40.358-30.651l0.649-7.119
		l21.581-20.068l6.476-1.721l12.949-12.305l0.222-19.854l2.934-53.242l-2.297-11.505l-87.021,47.34l-22.678,16.625l-39.784-1.374
		l-32.077-28.188l-3.442-46.623l2.153-24.385L149.104,735.456z"/>
</g>
<g id="Layer_1">
</g>
</svg>
