<?xml version="1.0" encoding="iso-8859-1"?>
<!-- Generator: Adobe Illustrator 16.0.0, SVG Export Plug-In . SVG Version: 6.00 Build 0)  -->
<!DOCTYPE svg PUBLIC "-//W3C//DTD SVG 1.1//EN" "http://www.w3.org/Graphics/SVG/1.1/DTD/svg11.dtd">
<svg version="1.1" xmlns="http://www.w3.org/2000/svg" xmlns:xlink="http://www.w3.org/1999/xlink" x="0px" y="0px" width="1000px"
	 height="1000px" viewBox="0 0 1000 1000" style="enable-background:new 0 0 1000 1000;" xml:space="preserve">
<g id="LCase_x5F_R">
	<path style="fill:#272525;" d="M384.02,582.843l-9.781-1.729l-44.675-16.259l-8.628-10.088L249,534.058l-14.385-0.28
		l-39.433-10.357l-8.378,5.398v15.908l0.998,15.898l-7.861,33.874v25.847l4.966,16.912l1.415,17.787l-4.977,48.72l1.713,38.388
		l3.117,28.204l1.295,20.992l-6.966,3.989h0.999l8.961,17.899l5.365,64.245l-18.896,5.963l-37.784-2.969l3.25-64.364l6.967-44.755
		v-13.918l-0.994-14.92l-0.996-28.848l1.15-87.467l-7.451-65.58l-3.994-76.575l46.738-16.899l56.249,16.832l13.12,6.985
		l78.18,26.871l27.09,6.156l9.16-0.439l40.473,19.855l3.474,8.202L384.02,582.843z"/>
</g>
<g id="Layer_1">
</g>
</svg>
