<?xml version="1.0" encoding="iso-8859-1"?>
<!-- Generator: Adobe Illustrator 16.0.0, SVG Export Plug-In . SVG Version: 6.00 Build 0)  -->
<!DOCTYPE svg PUBLIC "-//W3C//DTD SVG 1.1//EN" "http://www.w3.org/Graphics/SVG/1.1/DTD/svg11.dtd">
<svg version="1.1" xmlns="http://www.w3.org/2000/svg" xmlns:xlink="http://www.w3.org/1999/xlink" x="0px" y="0px" width="1000px"
	 height="1000px" viewBox="0 0 1000 1000" style="enable-background:new 0 0 1000 1000;" xml:space="preserve">
<g id="LCase_x5F_S">
	<path style="fill:#272525;" d="M332.416,726.453l-37.237-18.881l-3.979-1.066l-45.757-27.763l-60.669-26.13l-23.859-9.611
		l-21.441-9.574l-2.391-34.324l58.674-36.806l27.855-20.288l28.837-21.871l23.873-18.669l11.94-8.555l20.871-19.206l11.92-1.067
		l43.131,15.952l-11.924,14.412l-39.783,13.338l-4.987,12.276l-67.629,44.276l-26.843,21.875l-24.873,21.878l34.434,14.981
		l19.895,8.544l18.896,6.394l100.451,54.96l23.852,10.148l-2.947,33.648l-39.786,28.816l-36.776,24.011l-24.867,19.196
		l-40.783,29.898l-12.92,13.341l-12.942,12.799l-19.895,8.005l-45.335-17.259l3.982-8.554l25.859-12.263l29.831-19.202
		l28.856-20.277l14.91-5.337h-0.992l16.904-12.276l52.726-44.829L332.416,726.453z"/>
</g>
<g id="Layer_1">
</g>
</svg>
